<svg xmlns="http://www.w3.org/2000/svg" width="24" height="24"><path d="M18.5 12.989a5.506 5.506 0 0 0-5.5 5.5c0 3.033 2.468 5.5 5.5 5.5s5.5-2.467 5.5-5.5-2.468-5.5-5.5-5.5zm2 6H19v1.5a.5.5 0 0 1-1 0v-1.5h-1.5a.5.5 0 0 1 0-1H18v-1.5a.5.5 0 0 1 1 0v1.5h1.5a.5.5 0 0 1 0 1zm-2-7c.294 0 .582.027.864.064a.486.486 0 0 0 .42-.142l3.069-3.069a.499.499 0 0 0-.288-.849l-7.242-.96L11.947.265c-.168-.339-.727-.339-.895 0L7.676 7.033l-7.242.96a.501.501 0 0 0-.288.849l5.311 5.311L4.01 21.39a.502.502 0 0 0 .714.546l6.884-3.442a.5.5 0 0 0 .416-.458c.234-3.391 3.08-6.047 6.476-6.047z"/></svg>