<svg width="23" height="23" xmlns="http://www.w3.org/2000/svg"><path d="M11.505 23.01C5.161 23.01 0 17.849 0 11.505 0 5.161 5.161 0 11.505 0 17.849 0 23.01 5.161 23.01 11.505c0 6.344-5.161 11.505-11.505 11.505zm0-22.01C5.713 1 1 5.713 1 11.505 1 17.297 5.713 22.01 11.505 22.01c5.792 0 10.505-4.713 10.505-10.505C22.01 5.713 17.297 1 11.505 1zM9.51 18.01a.5.5 0 0 1-.354-.853l5.646-5.646-5.645-5.647a.5.5 0 0 1 .707-.707l6 6a.5.5 0 0 1 0 .707l-6 6a.498.498 0 0 1-.354.146z" fill="#8A94A6" fill-rule="nonzero"/></svg>