<svg xmlns="http://www.w3.org/2000/svg" width="20" height="20"><path fill="#C9CED6" fill-rule="evenodd" d="M10 20c-.09 0-.18-.03-.255-.087C9.347 19.604 0 12.28 0 5.625A5.631 5.631 0 0 1 5.625 0 5.6 5.6 0 0 1 10 2.095 5.6 5.6 0 0 1 14.375 0 5.631 5.631 0 0 1 20 5.625c0 6.656-9.347 13.98-9.745 14.288A.415.415 0 0 1 10 20zM5.625.833A4.798 4.798 0 0 0 .833 5.625c0 5.66 7.659 12.193 9.167 13.424 1.508-1.23 9.167-7.762 9.167-13.424A4.798 4.798 0 0 0 14.375.833a4.776 4.776 0 0 0-4.025 2.199c-.153.237-.547.237-.7 0A4.776 4.776 0 0 0 5.625.833z"/></svg>