<svg xmlns="http://www.w3.org/2000/svg" width="18" height="24"><path d="M9 24c-2.94 0-8.5-.522-8.5-2.5 0-1.842 4.844-2.322 6.328-2.425a.505.505 0 0 1 .533.464.501.501 0 0 1-.465.534C3.105 20.336 1.5 21.2 1.5 21.5c0 .436 2.628 1.5 7.5 1.5s7.5-1.064 7.5-1.5c0-.3-1.605-1.164-5.396-1.427a.502.502 0 0 1-.465-.534.508.508 0 0 1 .533-.464c1.484.103 6.328.583 6.328 2.425 0 1.978-5.56 2.5-8.5 2.5zm0-14c-1.93 0-3.5-1.57-3.5-3.5S7.07 3 9 3s3.5 1.57 3.5 3.5S10.93 10 9 10zm0-6a2.503 2.503 0 0 0-2.5 2.5C6.5 7.878 7.621 9 9 9s2.5-1.122 2.5-2.5S10.379 4 9 4z"/><path d="M9 21a.5.5 0 0 1-.436-.255C8.316 20.304 2.5 9.905 2.5 6.5 2.5 2.916 5.416 0 9 0s6.5 2.916 6.5 6.5c0 3.405-5.816 13.804-6.064 14.245A.5.5 0 0 1 9 21zM9 1a5.506 5.506 0 0 0-5.5 5.5c0 2.637 4.129 10.444 5.5 12.963 1.371-2.519 5.5-10.326 5.5-12.963C14.5 3.467 12.032 1 9 1z"/></svg>