<svg xmlns="http://www.w3.org/2000/svg" width="20" height="20"><path d="M18 19.5C8.351 19.5.5 11.649.5 2 .5 1.173 1.173.5 2 .5h3.5C6.327.5 7 1.173 7 2c0 1.17.184 2.319.545 3.413.171.547.028 1.13-.371 1.53L5.589 9.049c1.304 2.458 2.888 4.041 5.362 5.361l2.157-1.629c.35-.356.952-.497 1.483-.314 1.089.36 2.237.543 3.409.543.827 0 1.5.673 1.5 1.5V18c0 .827-.673 1.5-1.5 1.5zM2 1.5a.5.5 0 0 0-.5.5c0 9.098 7.402 16.5 16.5 16.5a.5.5 0 0 0 .5-.5v-3.49a.5.5 0 0 0-.5-.5c-1.278 0-2.532-.2-3.728-.595a.501.501 0 0 0-.509.119L11.301 15.4a.498.498 0 0 1-.529.046c-2.934-1.503-4.735-3.305-6.218-6.218A.5.5 0 0 1 4.6 8.7l1.82-2.41c.183-.19.23-.383.172-.57A11.87 11.87 0 0 1 6 2a.5.5 0 0 0-.5-.5H2z"/></svg>