<svg xmlns="http://www.w3.org/2000/svg" width="24" height="20"><path d="M21.5 7.999a.5.5 0 0 0-.5.5v9c0 .827-.673 1.5-1.5 1.5h-17c-.827 0-1.5-.673-1.5-1.5v-13c0-.827.673-1.5 1.5-1.5h13a.5.5 0 0 0 0-1h-13a2.503 2.503 0 0 0-2.5 2.5v13c0 1.378 1.122 2.5 2.5 2.5h17c1.378 0 2.5-1.122 2.5-2.5v-9a.5.5 0 0 0-.5-.5zm2.473-4.632c-.005-.018-.004-.038-.011-.056a.483.483 0 0 0-.115-.17L20.853.147a.5.5 0 0 0-.707.707l2.145 2.145H21.5c-6.341 0-11.5 5.159-11.5 11.5a.5.5 0 0 0 1 0c0-5.79 4.71-10.5 10.5-10.5h.793l-2.147 2.147a.5.5 0 0 0 .707.708l3-3c.014-.014.019-.032.031-.046.029-.036.059-.073.077-.117.018-.043.022-.089.027-.134.003-.02.012-.037.012-.058 0-.047-.015-.089-.027-.132z"/></svg>