<svg xmlns="http://www.w3.org/2000/svg" width="22" height="22"><path d="M15.766 0H6.233c-.05 0-.098.01-.142.029-.014.005-.024.016-.037.025-.028.016-.057.03-.08.053L.106 5.974c-.017.017-.026.04-.04.06-.013.019-.03.036-.038.058A.372.372 0 0 0 0 6.233v15.4c0 .203.164.367.367.367h15.399a.367.367 0 0 0 .366-.367V18.7a.367.367 0 0 0-.733 0v2.567H.733V6.6h5.5a.367.367 0 0 0 .367-.367v-5.5h8.8v10.634a.367.367 0 0 0 .732 0v-11A.367.367 0 0 0 15.766 0zm-9.9 5.867H1.252l4.614-4.615v4.615zm8.808 6.895l-.524 2.619-.989-1.978c-.125-.248-.532-.248-.656 0l-.99 1.978-.523-2.619a.37.37 0 0 0-.431-.287.366.366 0 0 0-.288.43l.733 3.668a.366.366 0 0 0 .688.091l1.139-2.277 1.138 2.277a.366.366 0 0 0 .378.2.366.366 0 0 0 .311-.291l.733-3.667a.367.367 0 0 0-.72-.144zm7.03-.287a.37.37 0 0 0-.43.287l-.524 2.619-.99-1.978c-.124-.248-.53-.248-.656 0l-.989 1.978-.523-2.619a.369.369 0 0 0-.432-.287.366.366 0 0 0-.288.43l.734 3.668a.366.366 0 0 0 .687.091l1.14-2.277 1.138 2.277a.366.366 0 0 0 .378.2.366.366 0 0 0 .31-.291l.734-3.667a.367.367 0 0 0-.288-.431zm-13.63.287l-.523 2.619-.99-1.978c-.124-.248-.531-.248-.656 0l-.989 1.978-.524-2.619a.369.369 0 0 0-.43-.287.366.366 0 0 0-.289.43l.733 3.668a.366.366 0 0 0 .688.091l1.139-2.277 1.139 2.277a.366.366 0 0 0 .377.2.366.366 0 0 0 .311-.291l.734-3.667a.367.367 0 0 0-.72-.144z"/></svg>