<?xml version="1.0" encoding="UTF-8"?>
<svg width="19px" height="20px" viewBox="0 0 19 20" version="1.1" xmlns="http://www.w3.org/2000/svg" xmlns:xlink="http://www.w3.org/1999/xlink">
    <!-- Generator: Sketch 55.2 (78181) - https://sketchapp.com -->
    <title>google-icon</title>
    <desc>Created with Sketch.</desc>
    <g id="Symbols" stroke="none" stroke-width="1" fill="none" fill-rule="evenodd">
        <g id="Button/Google" transform="translate(-12.000000, -14.000000)" fill="#FFFFFF" fill-rule="nonzero">
            <g id="google-icon">
                <g transform="translate(12.000000, 14.000000)">
                    <path d="M18.9909453,10.1870992 C18.9909453,9.36770992 18.9263008,8.76977099 18.7863984,8.14969466 L9.68925781,8.14969466 L9.68925781,11.8480153 L15.0290742,11.8480153 C14.921457,12.7670992 14.3401016,14.1512214 13.0481758,15.0812977 L13.0300664,15.2051145 L15.9064141,17.4969466 L16.1056914,17.5174046 C17.9358516,15.7789313 18.9909453,13.2210687 18.9909453,10.1870992" id="Shape"></path>
                    <path d="M9.68925781,19.9312977 C12.3053203,19.9312977 14.5015273,19.0454198 16.1056914,17.5174046 L13.0481758,15.0812977 C12.2299883,15.6681679 11.1318477,16.0778626 9.68925781,16.0778626 C7.12700391,16.0778626 4.95232031,14.3394656 4.17710547,11.9366412 L4.06347656,11.9465649 L1.07260938,14.3272519 L1.03349609,14.439084 C2.62682422,17.6945038 5.89964844,19.9312977 9.68925781,19.9312977" id="Shape"></path>
                    <path d="M4.17710547,11.9366412 C3.97255859,11.3165649 3.85417969,10.6521374 3.85417969,9.96564885 C3.85417969,9.27908397 3.97255859,8.61473282 4.16634375,7.99465649 L4.16092578,7.86259542 L1.13257812,5.44366412 L1.03349609,5.4921374 C0.376808594,6.84305344 0,8.36007634 0,9.96564885 C0,11.5712214 0.376808594,13.0881679 1.03349609,14.439084 L4.17710547,11.9366412" id="Shape"></path>
                    <path d="M9.68925781,3.85335878 C11.5086563,3.85335878 12.7359375,4.66167939 13.4357461,5.33717557 L16.1702617,2.5910687 C14.4908398,0.985496183 12.3053203,0 9.68925781,0 C5.89964844,0 2.62682422,2.23671756 1.03349609,5.4921374 L4.16634375,7.99465649 C4.95232031,5.59183206 7.12700391,3.85335878 9.68925781,3.85335878" id="Shape"></path>
                </g>
            </g>
        </g>
    </g>
</svg>