<?xml version="1.0" encoding="UTF-8"?>
<svg width="12px" height="10px" viewBox="0 0 12 10" version="1.1" xmlns="http://www.w3.org/2000/svg" xmlns:xlink="http://www.w3.org/1999/xlink">
    <!-- Generator: Sketch 62 (91390) - https://sketch.com -->
    <title>ic-arrow-white@3x</title>
    <desc>Created with Sketch.</desc>
    <defs>
        <path d="M11.422589,5.24407768 L15.5892557,9.41074435 L15.6039814,9.42584529 C15.6201322,9.44282969 15.635574,9.46049457 15.6502594,9.47879251 L15.5892557,9.41074435 C15.619618,9.44110667 15.6471476,9.47322901 15.6718445,9.50678297 C15.6855267,9.52551484 15.6982311,9.54437371 15.7101641,9.56375825 C15.7170363,9.57478698 15.7235479,9.58594932 15.7297784,9.59722544 C15.7956881,9.71640648 15.8333333,9.85380698 15.8333333,10 C15.8333333,10.146193 15.7956881,10.2835935 15.7295625,10.4030365 C15.7235479,10.4140507 15.7170363,10.425213 15.7102435,10.4362513 C15.6982311,10.4556263 15.6855267,10.4744852 15.6720936,10.4927756 C15.6648464,10.5027249 15.6576208,10.5121178 15.6501678,10.5213882 C15.635574,10.5395054 15.6201322,10.5571703 15.6039814,10.5741547 C15.5992685,10.579116 15.5943012,10.5842101 15.5892557,10.5892557 L11.422589,14.7559223 C11.0971521,15.0813592 10.5695146,15.0813592 10.2440777,14.7559223 C9.91864077,14.4304854 9.91864077,13.9028479 10.2440777,13.577411 L12.9876667,10.833 L5,10.8333333 C4.53976271,10.8333333 4.16666667,10.4602373 4.16666667,10 C4.16666667,9.53976271 4.53976271,9.16666667 5,9.16666667 L12.9866667,9.166 L10.2440777,6.42258898 C9.91864077,6.09715207 9.91864077,5.56951459 10.2440777,5.24407768 C10.5695146,4.91864077 11.0971521,4.91864077 11.422589,5.24407768 Z" id="path-1"></path>
    </defs>
    <g id="04-User-Login" stroke="none" stroke-width="1" fill="none" fill-rule="evenodd">
        <g id="Icon-/-Line-/-Right-arrow-long" transform="translate(-4.000000, -5.000000)">
            <mask id="mask-2" fill="white">
                <use xlink:href="#path-1"></use>
            </mask>
            <use id="Mask" fill-opacity="0" fill="#161634" fill-rule="nonzero" xlink:href="#path-1"></use>
            <g id="Color-/-Black-/-Black-800" mask="url(#mask-2)" fill="#FFFFFF" fill-rule="evenodd">
                <polygon id="Black-/-Black-800" points="0 0 20 0 20 20 0 20"></polygon>
            </g>
        </g>
    </g>
</svg>