<?xml version="1.0" encoding="UTF-8"?>
<svg width="100px" height="100px" viewBox="0 0 100 100" version="1.1" xmlns="http://www.w3.org/2000/svg" xmlns:xlink="http://www.w3.org/1999/xlink">
    <!-- Generator: Sketch 55.2 (78181) - https://sketchapp.com -->
    <title>ic-my-account</title>
    <desc>Created with Sketch.</desc>
    <g id="04-User-Login" stroke="none" stroke-width="1" fill="none" fill-rule="evenodd">
        <g id="D_09A2_User-Sign-Up-Email" transform="translate(-955.000000, -347.000000)" fill="#C9CED6">
            <path d="M1005,347 C1032.57273,347 1055,369.436364 1055,397 C1055,410.763636 1049.4,423.254545 1040.36364,432.309091 C1040.34545,432.327273 1040.34545,432.354545 1040.32727,432.372727 C1040.22727,432.472727 1040.1,432.536364 1040,432.636364 C1037.81818,434.772727 1035.46364,436.727273 1032.92727,438.445455 C1032.63636,438.645455 1032.32727,438.8 1032.03636,438.990909 C1029.61818,440.554545 1027.07273,441.945455 1024.39091,443.081818 C1024.08182,443.218182 1023.75455,443.309091 1023.43636,443.436364 C1020.71818,444.518182 1017.89091,445.4 1014.96364,446 C1014.79091,446.036364 1014.60909,446.045455 1014.43636,446.081818 C1011.37273,446.663636 1008.22727,447 1005,447 C1001.77273,447 998.618182,446.672727 995.563636,446.081818 C995.390909,446.045455 995.209091,446.036364 995.036364,446 C992.109091,445.409091 989.281818,444.518182 986.563636,443.436364 C986.245455,443.309091 985.918182,443.218182 985.609091,443.081818 C982.927273,441.945455 980.381818,440.554545 977.963636,438.990909 C977.672727,438.8 977.363636,438.645455 977.072727,438.445455 C974.536364,436.727273 972.181818,434.772727 970,432.636364 C969.890909,432.536364 969.772727,432.472727 969.672727,432.372727 C969.654545,432.354545 969.654545,432.327273 969.636364,432.309091 C960.6,423.263636 955,410.772727 955,397 C955,369.436364 977.427273,347 1005,347 Z M1037.32129,421 C1042.10136,414.353569 1045,406.268128 1045,397.472175 C1045,375.158516 1026.82496,357 1004.491,357 C982.157045,357 963.982009,375.158516 964,397.472175 C964,406.268128 966.889655,414.353569 971.678718,421 C975.82864,413.858909 982.121037,408.363687 989.556688,405.161889 C984.947665,401.042721 981.995009,395.124789 981.995009,388.478359 C981.995009,376.075885 992.095252,365.993817 1004.5,365.993817 C1016.90476,365.993817 1027.005,376.075885 1027.005,388.478359 C1027.005,395.124789 1024.04335,401.042721 1019.44332,405.161889 C1026.86997,408.372681 1033.16237,413.867903 1037.32129,421 Z" id="ic-my-account"></path>
        </g>
    </g>
</svg>