<?xml version="1.0" encoding="UTF-8"?>
<svg width="15px" height="22px" viewBox="0 0 15 22" version="1.1" xmlns="http://www.w3.org/2000/svg" xmlns:xlink="http://www.w3.org/1999/xlink">
    <!-- Generator: Sketch 55.2 (78181) - https://sketchapp.com -->
    <title>Icon/ic-password</title>
    <desc>Created with Sketch.</desc>
    <g id="04-User-Login" stroke="none" stroke-width="1" fill="none" fill-rule="evenodd" stroke-linecap="round" stroke-linejoin="round">
        <g id="D_09_User-Sign-In" transform="translate(-816.000000, -585.000000)" stroke="#A7ABBD">
            <g id="Icon/ic-password" transform="translate(817.000000, 586.000000)">
                <path d="M2.27272727,9.18181818 L2.27272727,4.54545455 C2.27272727,2 4.27272727,0 6.81818182,0 L6.81818182,0 C9.36363636,0 11.3636364,2 11.3636364,4.54545455 L11.3636364,9.18181818 M6.81818182,20 C10.3327211,20 13.1818182,17.150903 13.1818182,13.6363636 C13.1818182,10.1218243 10.3327211,7.27272727 6.81818182,7.27272727 C3.3036425,7.27272727 0.454545455,10.1218243 0.454545455,13.6363636 C0.454545455,17.150903 3.3036425,20 6.81818182,20 Z M6.81818182,14.5454545 C7.82233591,14.5454545 8.63636364,13.7314268 8.63636364,12.7272727 C8.63636364,11.7231186 7.82233591,10.9090909 6.81818182,10.9090909 C5.81402773,10.9090909 5,11.7231186 5,12.7272727 C5,13.7314268 5.81402773,14.5454545 6.81818182,14.5454545 Z M6.36363636,14.5454545 L6.36363636,16.3636364 C6.36363636,16.6146749 6.5671433,16.8181818 6.81818182,16.8181818 C7.06922034,16.8181818 7.27272727,16.6146749 7.27272727,16.3636364 L7.27272727,14.5454545 C7.27272727,14.294416 7.06922034,14.0909091 6.81818182,14.0909091 C6.5671433,14.0909091 6.36363636,14.294416 6.36363636,14.5454545 Z" id="icon-password"></path>
            </g>
        </g>
    </g>
</svg>