<?xml version="1.0" encoding="UTF-8"?>
<svg width="18px" height="18px" viewBox="0 0 18 18" version="1.1" xmlns="http://www.w3.org/2000/svg" xmlns:xlink="http://www.w3.org/1999/xlink">
    <!-- Generator: Sketch 63.1 (92452) - https://sketch.com -->
    <title>ic-radio-active</title>
    <desc>Created with Sketch.</desc>
    <defs>
        <path d="M12,19 C15.8659932,19 19,15.8659932 19,12 C19,8.13400675 15.8659932,5 12,5 C8.13400675,5 5,8.13400675 5,12 C5,15.8659932 8.13400675,19 12,19 Z M12,3 C16.9705627,3 21,7.02943725 21,12 C21,16.9705627 16.9705627,21 12,21 C7.02943725,21 3,16.9705627 3,12 C3,7.02943725 7.02943725,3 12,3 Z M12,8 C9.790861,8 8,9.790861 8,12 C8,14.209139 9.790861,16 12,16 C14.209139,16 16,14.209139 16,12 C16,9.790861 14.209139,8 12,8 Z" id="path-1"></path>
    </defs>
    <g id="04-User-Login" stroke="none" stroke-width="1" fill="none" fill-rule="evenodd">
        <g id="Input-/-Radio-/-Active" transform="translate(-3.000000, -3.000000)">
            <mask id="mask-2" fill="white">
                <use xlink:href="#path-1"></use>
            </mask>
            <use id="Mask" fill-opacity="0" fill="#051033" fill-rule="nonzero" xlink:href="#path-1"></use>
            <g id="Color-/-Blue-/-Blue-Base-700" mask="url(#mask-2)" fill="#96D982" fill-rule="evenodd">
                <polygon id="Blue-/-Blue-Base-700" points="0 0 24 0 24 24 0 24"></polygon>
            </g>
        </g>
    </g>
</svg>