<?xml version="1.0" encoding="UTF-8"?>
<svg width="24px" height="24px" viewBox="0 0 24 24" version="1.1" xmlns="http://www.w3.org/2000/svg" xmlns:xlink="http://www.w3.org/1999/xlink">
    <!-- Generator: Sketch 63.1 (92452) - https://sketch.com -->
    <title>ic-all-white@</title>
    <desc>Created with Sketch.</desc>
    <g id="01_Pages" stroke="none" stroke-width="1" fill="none" fill-rule="evenodd">
        <g id="D_02_Hotels" transform="translate(-176.000000, -337.000000)" fill="#FFFFFF">
            <path d="M197.62218,341.765134 C198.32983,341.813294 198.91885,342.1205 199.379385,342.660639 C199.806161,343.161205 199.993075,343.750028 199.993075,344.403772 C199.992485,349.049657 199.992485,353.695564 199.993075,358.34145 C199.993075,358.787869 199.910784,359.216021 199.698303,359.61039 C199.282497,360.382261 198.63732,360.836525 197.770375,360.968156 C197.617373,360.991384 197.460635,360.998617 197.305622,360.998661 C192.670837,361.000234 188.036031,360.999993 183.401224,360.999993 C182.735572,360.999993 182.139822,360.802721 181.635562,360.361328 C181.155121,359.940758 180.85364,359.411348 180.788589,358.776244 C180.740932,358.311186 180.753387,357.839944 180.738834,357.36444 L181.794967,357.36444 L181.794967,357.455647 L181.794967,357.455647 C181.795272,357.783393 181.787952,358.111357 181.797545,358.43884 C181.814654,359.020912 182.072695,359.467287 182.578877,359.761448 C182.784715,359.881061 183.010634,359.940758 183.248331,359.953213 L183.354697,359.95645 L183.354697,359.95645 L183.461162,359.956884 C188.079558,359.957016 192.697955,359.956338 197.316351,359.958305 C197.675388,359.958458 198.009776,359.886436 198.30433,359.67472 C198.706391,359.385695 198.913912,358.987785 198.947016,358.496178 L198.949546,358.426628 L198.949546,358.426628 L198.949748,358.356964 C198.949835,353.700153 198.949333,349.04332 198.950622,344.386531 C198.950731,343.914327 198.798625,343.508923 198.44822,343.187427 C198.18122,342.942431 197.861472,342.809183 197.500797,342.796203 C197.151834,342.783661 196.80215,342.791374 196.452793,342.790194 L196.356255,342.790194 L196.356255,342.790194 L196.356255,341.75753 C196.369956,341.75399 196.382345,341.747872 196.394713,341.748003 C196.803942,341.751936 197.214503,341.737405 197.62218,341.765134 Z M178.680591,337.013403 C183.091224,337.015108 187.501856,337.014081 191.912467,337.014671 C192.207465,337.014715 192.502593,337.016528 192.797437,337.025487 C192.932762,337.029617 193.06754,337.053085 193.217959,337.069452 C193.194224,337.098798 193.177423,337.121217 193.158916,337.142129 C192.903645,337.430346 192.646712,337.717142 192.394132,338.007741 C192.353137,338.054917 192.309144,338.056316 192.257101,338.056316 L178.615335,338.056054 L178.615335,338.056054 C177.713236,338.056054 177.042475,338.727037 177.042475,339.629447 L177.042475,353.632919 C177.042475,354.553421 177.695035,355.214397 178.614745,355.225432 L192.600816,355.226174 L192.600816,355.226174 C193.024269,355.226284 193.404627,355.111674 193.720188,354.822343 C194.071319,354.500388 194.221104,354.091662 194.220885,353.621163 L194.220644,349.64707 C194.220644,347.205246 194.220972,344.763443 194.2192,342.321641 C194.219135,342.248134 194.238867,342.194315 194.288985,342.140233 C194.597064,341.807658 194.901949,341.47209 195.207141,341.136871 C195.219391,341.123433 195.224292,341.10333 195.232626,341.086329 C195.241486,341.092273 195.25039,341.098217 195.259278,341.104138 L195.259278,353.686257 L195.259278,353.686257 C195.259278,354.966823 194.330658,356.044501 193.063887,356.231219 C192.929284,356.251038 192.7921,356.262204 192.656119,356.262247 C187.974968,356.263799 183.293795,356.263553 178.612645,356.263553 C177.30083,356.263553 176.238577,355.362242 176.032199,354.068543 C176.007829,353.915716 176.001792,353.758585 176.001748,353.60342 C176.000195,348.962888 176.000982,344.322356 175.999998,339.681824 C175.999998,338.909538 176.25295,338.242488 176.820456,337.710215 C177.341607,337.221405 177.971285,337.013141 178.680591,337.013403 Z M193.886267,338.69697 C194.146947,338.925644 194.404914,339.151949 194.666667,339.381566 C191.425997,342.992548 188.190228,346.598092 184.946867,350.212121 C183.260388,348.709219 181.572356,347.204958 179.878788,345.695741 C180.106538,345.434528 180.330723,345.177415 180.561514,344.912737 C181.998341,346.190298 183.431972,347.465031 184.873087,348.746407 C187.878436,345.395542 190.87943,342.049523 193.886267,338.69697 Z" id="ic-all-white"></path>
        </g>
    </g>
</svg>