<svg width="24" height="24" xmlns="http://www.w3.org/2000/svg"><path d="M12 24a.498.498 0 0 1-.306-.105C11.216 23.525 0 14.737 0 6.75A6.758 6.758 0 0 1 6.75 0C8.809 0 10.723.928 12 2.514A6.719 6.719 0 0 1 17.25 0 6.758 6.758 0 0 1 24 6.75c0 7.987-11.216 16.775-11.694 17.145A.498.498 0 0 1 12 24zM6.75 1C3.58 1 1 3.58 1 6.75c0 6.793 9.19 14.632 11 16.109 1.81-1.477 11-9.315 11-16.109C23 3.58 20.42 1 17.25 1a5.73 5.73 0 0 0-4.83 2.638c-.184.285-.656.285-.84 0A5.73 5.73 0 0 0 6.75 1z" fill="#fff" fill-rule="nonzero"/></svg>