<svg width="53" height="54" xmlns="http://www.w3.org/2000/svg"><path d="M50.06 38.054C47.525 44.099 43.234 49.842 41.533 52c-1.722-2.152-6.074-7.899-8.624-13.98A9.965 9.965 0 0 1 32 33.816C32 28.404 36.262 24 41.5 24s9.5 4.404 9.5 9.816c0 1.455-.312 2.87-.94 4.238zM22.483 19.149c.373.448.727.87 1.126 1.161.44.319.52.911.182 1.323-.198.24-.495.367-.795.367a1.04 1.04 0 0 1-.614-.197c-.598-.434-1.047-.971-1.48-1.49-.206-.248-.415-.499-.645-.74a.903.903 0 0 1 .076-1.33 1.048 1.048 0 0 1 1.418.07c.26.272.498.556.732.836zm-4.374-3.092c.551.056.947.5.885.991-.064.492-.568.845-1.112.79-1.49-.15-2.588.124-2.597.127a1.104 1.104 0 0 1-.28.035c-.434 0-.836-.253-.963-.643-.157-.474.143-.97.674-1.11.119-.033 1.487-.381 3.393-.19zM32.948 19a.93.93 0 0 1-.772-.42 1.035 1.035 0 0 1 .222-1.394c1.064-.8 1.662-1.484 1.923-1.821a.914.914 0 0 1 1.333-.138c.404.35.463.98.13 1.407-.32.413-1.045 1.246-2.288 2.18a.903.903 0 0 1-.548.186zm-2.035.596c.23.503-.01 1.09-.535 1.31-.717.299-1.476.577-2.26.828-.286.091-.558.169-.818.234a1.09 1.09 0 0 1-.262.032c-.462 0-.882-.296-1.004-.744-.144-.53.187-1.073.742-1.212.217-.054.445-.12.686-.197.725-.23 1.426-.487 2.085-.764.525-.22 1.137.01 1.366.513zM10 23c1.103 0 2-.897 2-2s-.897-2-2-2-2 .897-2 2 .897 2 2 2zm0-6c2.206 0 4 1.794 4 4s-1.794 4-4 4-4-1.794-4-4 1.794-4 4-4zm30-7c-1.103 0-2 .897-2 2s.897 2 2 2 2-.897 2-2-.897-2-2-2zm0 6c-2.206 0-4-1.794-4-4s1.794-4 4-4 4 1.794 4 4-1.794 4-4 4zM25.003 41l-11.582-5.314a1.009 1.009 0 0 0-.839-.001L2 40.504V7.028L13 2l11.581 5.294c.265.122.572.12.838 0L37 2l11 5.028v16.286a11.802 11.802 0 0 0-6.243-1.784C35.274 21.53 30 26.722 30 33.105c0 1.746.381 3.416 1.116 4.934.025.056.053.112.078.167L25.003 41zm24.486-15.84c.009-.055.032-.104.032-.16V6.538a.999.999 0 0 0-.576-.908L37.06.091a.987.987 0 0 0-.83 0L24.76 5.437 13.29.092a.983.983 0 0 0-.83 0L.575 5.63A1 1 0 0 0 0 6.538v36a1 1 0 0 0 .457.842c.284.184.64.21.947.067l11.47-5.325 11.47 5.365a.982.982 0 0 0 .826.003l6.574-3.024c3.472 6.997 8.672 12.928 8.911 13.2a.99.99 0 0 0 .74.334h.003a.987.987 0 0 0 .741-.34c.258-.297 6.36-7.35 9.725-15.139a11.666 11.666 0 0 0-2.375-13.362zM41.5 37.071a3.577 3.577 0 0 1-3.572-3.572 3.576 3.576 0 0 1 3.572-3.572 3.576 3.576 0 0 1 3.572 3.572 3.577 3.577 0 0 1-3.572 3.572m0-9.072a5.507 5.507 0 0 0-5.5 5.5c0 3.032 2.468 5.5 5.5 5.5s5.5-2.468 5.5-5.5-2.468-5.5-5.5-5.5" fill="#FFF" fill-rule="evenodd"/></svg>