<svg width="53" height="41" xmlns="http://www.w3.org/2000/svg"><path d="M12 8c-2.206 0-4 1.794-4 4s1.794 4 4 4 4-1.794 4-4-1.794-4-4-4zm0 10c-3.309 0-6-2.691-6-6s2.691-6 6-6 6 2.691 6 6-2.691 6-6 6zm39.037 15v-5h-2.512c-.679 1.186-1.927 2-3.377 2h-22.59c-1.816 0-3.332-1.29-3.77-3H1.963v6h49.074zM1.963 21v4h13.645c-.714-3.92-5.572-3.999-5.795-4h-7.85zm18.648-7v12c0 1.09.882 1.991 1.963 2h22.574c1.08-.009 1.964-.91 1.963-2v-8.8c0-1.089-.85-2.378-1.903-2.815-5.304-2.166-10.891-3.489-16.358-3.489-2.142 0-4.266.203-6.346.638-1.049.228-1.892 1.377-1.893 2.466zm31.408-4A.99.99 0 0 1 53 11v29a.99.99 0 0 1-.981 1 .99.99 0 0 1-.982-1v-5H1.963v5a.99.99 0 0 1-.982 1A.99.99 0 0 1 0 40V1c0-.553.439-1 .981-1a.99.99 0 0 1 .982 1v18h7.852c2.544 0 7.213 1.285 7.792 6h1.041V13.998c.002-2.06 1.517-4.001 3.462-4.423a33.034 33.034 0 0 1 6.74-.679c5.436 0 11.186 1.222 17.1 3.637 1.78.74 3.123 2.746 3.124 4.667V26h1.963V11c0-.553.439-1 .982-1z" fill="#FFF" fill-rule="evenodd"/></svg>