<svg width="48" height="36" xmlns="http://www.w3.org/2000/svg"><path d="M28.787 24c2.736 0 4.963-2.244 4.963-5V5c0-2.756-2.227-5-4.963-5H4.963C2.227 0 0 2.244 0 5v14c0 2.756 2.227 5 4.963 5h.993l-1.787 2.4c-.268.358-.264.852.006 1.208a.987.987 0 0 0 1.157.32L15.082 24h13.705zM42.684 8h-5.956a.997.997 0 0 0-.993 1v10c0 3.86-3.117 7-6.948 7H15.654a.987.987 0 0 0-.37.072l-.734.296a1 1 0 0 0-.621 1.002c.19 2.596 2.356 4.63 4.93 4.63h13.706l9.75 3.928a.994.994 0 0 0 .369.072h.022c.561-.054 1.01-.442 1.01-1 0-.316-.147-.598-.373-.782L41.69 32h.993c2.736 0 4.963-2.244 4.963-5V13c0-2.756-2.227-5-4.963-5z" fill="#C9CED6" fill-rule="evenodd"/></svg>