<svg width="49" height="49" xmlns="http://www.w3.org/2000/svg"><path d="M41.972 41H7.028C6.46 41 6 40.552 6 40s.46-1 1.028-1h34.944c.568 0 1.028.448 1.028 1s-.46 1-1.028 1zm-4.008-21c-.571 0-1.035-.448-1.035-1V7c0-2.756-2.322-5-5.179-5h-14.5c-2.857 0-5.179 2.244-5.179 5v12c0 .552-.464 1-1.035 1-.572 0-1.036-.448-1.036-1V7c0-3.86 3.252-7 7.25-7h14.5C35.748 0 39 3.14 39 7v12c0 .552-.464 1-1.036 1zM33 14H15a1 1 0 0 1 0-2h18a1 1 0 0 1 0 2zm14.98 35H1.02c-.3 0-.588-.134-.782-.368a1.015 1.015 0 0 1-.222-.839L6.142 12.85a1.017 1.017 0 0 1 1.182-.832c.553.098.925.63.827 1.19L2.238 46.945h44.527L40.85 13.208a1.027 1.027 0 0 1 .827-1.19c.541-.105 1.082.27 1.182.832l6.125 34.943A1.028 1.028 0 0 1 47.98 49z" fill="#C9CED6" fill-rule="evenodd"/></svg>