<?xml version="1.0" encoding="UTF-8"?>
<svg width="51px" height="30px" viewBox="0 0 51 30" version="1.1" xmlns="http://www.w3.org/2000/svg" xmlns:xlink="http://www.w3.org/1999/xlink">
    <!-- Generator: sketchtool 55.2 (78181) - https://sketchapp.com -->
    <title>28630D23-B20B-4FB4-A29E-2E9ECC672F9E</title>
    <desc>Created with sketchtool.</desc>
    <g id="02-Venue-Profile" stroke="none" stroke-width="1" fill="none" fill-rule="evenodd">
        <g id="D_03B5.1_Venue-Profile---Settings-Edit" transform="translate(-1040.000000, -1384.000000)">
            <g id="Group-3-Copy" transform="translate(924.000000, 1384.000000)">
                <g id="AmericanExpress-dark" transform="translate(116.000000, 0.000000)">
                    <rect id="Rectangle" fill="#0072CE" x="0" y="0" width="50.3703704" height="30" rx="4"></rect>
                    <path d="M42.5163005,17.3327915 L40.7366947,17.3327915 C40.5590175,17.3327915 40.4409768,17.3393764 40.3415416,17.4058348 C40.2385332,17.4713176 40.1988577,17.5685053 40.1988577,17.6967883 C40.1988577,17.8493376 40.2858481,17.9531102 40.4123907,17.9979849 C40.5153991,18.03347 40.6260469,18.0438351 40.7886918,18.0438351 L41.3179036,18.0578584 C41.8519209,18.0709062 42.2083842,18.1617529 42.4257369,18.3833215 C42.4652892,18.4141728 42.4890698,18.4488043 42.5163005,18.4834358 L42.5163005,17.3327915 Z M42.5163005,19.9988084 C42.2791101,20.342075 41.8169276,20.5160862 41.1912378,20.5160862 L39.3055432,20.5160862 L39.3055432,19.648957 L41.1835984,19.648957 C41.3699007,19.648957 41.500263,19.6246905 41.5787515,19.5488426 C41.6467666,19.4862864 41.6942047,19.3954397 41.6942047,19.2850822 C41.6942047,19.1672863 41.6467666,19.0737568 41.5749318,19.0176635 C41.5040827,18.9559609 41.4009511,18.9279142 41.2309133,18.9279142 C40.3140645,18.8970629 39.1702523,18.9559609 39.1702523,17.676302 C39.1702523,17.0897612 39.5465533,16.4723691 40.5712159,16.4723691 L42.5161773,16.4723691 L42.5161773,15.6677961 L40.7090944,15.6677961 C40.1637412,15.6677961 39.7676024,15.7970546 39.4870401,15.9980149 L39.4870401,15.6677961 L36.8141197,15.6677961 C36.3866841,15.6677961 35.8849494,15.7726662 35.6476358,15.9980149 L35.6476358,15.6677961 L30.8745021,15.6677961 L30.8745021,15.9980149 C30.4946278,15.726816 29.8536592,15.6677961 29.5578181,15.6677961 L26.409408,15.6677961 L26.409408,15.9980149 C26.1088847,15.709988 25.4405622,15.6677961 25.0332107,15.6677961 L21.5096085,15.6677961 L20.7032843,16.531389 L19.9480947,15.6677961 L14.6845622,15.6677961 L14.6845622,21.3102941 L19.8490292,21.3102941 L20.6798733,20.4330437 L21.4625401,21.3102941 L24.6459435,21.3130988 L24.6459435,19.9857606 L24.9589116,19.9857606 C25.3812954,19.9922236 25.8794569,19.9753956 26.3189676,19.7873611 L26.3189676,21.3101722 L28.9446963,21.3101722 L28.9446963,19.8395522 L29.0713621,19.8395522 C29.2330213,19.8395522 29.2489161,19.8461371 29.2489161,20.006003 L29.2489161,21.3100502 L37.2254141,21.3100502 C37.731831,21.3100502 38.2611661,21.1817673 38.5542965,20.9489801 L38.5542965,21.3100502 L41.0844097,21.3100502 C41.6109108,21.3100502 42.1250903,21.237007 42.5163005,21.0499481 L42.5163005,19.9988084 L42.5163005,19.9988084 Z M38.6213259,18.3833215 C38.8114478,18.5780627 38.9133473,18.8238977 38.9133473,19.2400856 C38.9133473,20.1100195 38.3641745,20.5160862 37.3794338,20.5160862 L35.477598,20.5160862 L35.477598,19.648957 L37.3717944,19.648957 C37.5569878,19.648957 37.6883358,19.6246905 37.770644,19.5488426 C37.8377966,19.4862864 37.885974,19.3954397 37.885974,19.2850822 C37.885974,19.1672863 37.8338537,19.0737568 37.7668243,19.0176635 C37.6921555,18.9559609 37.5891471,18.9279142 37.4191093,18.9279142 C36.505957,18.8970629 35.3623912,18.9559609 35.3623912,17.676302 C35.3623912,17.0897612 35.7347493,16.4723691 36.7584262,16.4723691 L38.7159556,16.4723691 L38.7159556,17.3330354 L36.9247675,17.3330354 C36.7472136,17.3330354 36.6317604,17.3396203 36.5335574,17.4060787 C36.426606,17.4715615 36.3869306,17.5687492 36.3869306,17.6970321 C36.3869306,17.8495815 36.4777406,17.9533541 36.6005868,17.9982288 C36.7035952,18.0337139 36.814243,18.0440789 36.9805843,18.0440789 L37.5062229,18.0581023 C38.0362973,18.0709062 38.4001535,18.161631 38.6213259,18.3833215 L38.6213259,18.3833215 Z M29.8104105,18.1335843 C29.6798017,18.2102858 29.5182658,18.2168707 29.3282671,18.2168707 L28.1420686,18.2168707 L28.1420686,17.308647 L29.3444083,17.308647 C29.5182658,17.308647 29.6922465,17.3123053 29.8104105,17.3816903 C29.9369531,17.4471731 30.0126076,17.5724075 30.0126076,17.7454431 C30.0126076,17.9184787 29.9369531,18.0578584 29.8104105,18.1335843 L29.8104105,18.1335843 Z M30.4001213,18.6368388 C30.617474,18.716223 30.7951512,18.8585292 30.878445,18.9763252 C31.0163235,19.1737492 31.0362845,19.3580035 31.0402274,19.7144398 L31.0402274,20.5160862 L30.0599225,20.5160862 L30.0599225,20.010149 C30.0599225,19.7668748 30.0835799,19.4066583 29.902083,19.2186238 C29.7593992,19.0737568 29.5419233,19.0391253 29.1857064,19.0391253 L28.1421918,19.0391253 L28.1421918,20.5160862 L27.1610244,20.5160862 L27.1610244,16.4722472 L29.4153806,16.4722472 C29.9097224,16.4722472 30.269759,16.4938309 30.5902433,16.6630863 C30.898406,16.8473406 31.0922245,17.0997605 31.0922245,17.5610669 C31.0921012,18.2065056 30.6571495,18.5358708 30.4001213,18.6368388 L30.4001213,18.6368388 Z M31.6336347,16.4722472 L34.8925693,16.4722472 L34.8925693,17.3085251 L32.6060538,17.3085251 L32.6060538,18.0437131 L34.8367526,18.0437131 L34.8367526,18.8687724 L32.6060538,18.8687724 L32.6060538,19.6733454 L34.8925693,19.6770036 L34.8925693,20.5160862 L31.6336347,20.5160862 L31.6336347,16.4722472 L31.6336347,16.4722472 Z M25.0456555,18.3384468 L23.7838025,18.3384468 L23.7838025,17.308647 L25.0569914,17.308647 C25.4095118,17.308647 25.6542184,17.4508313 25.6542184,17.804463 C25.6542184,18.1541925 25.4208476,18.3384468 25.0456555,18.3384468 L25.0456555,18.3384468 Z M22.8112602,20.1483093 L21.3120936,18.5011174 L22.8112602,16.9062386 L22.8112602,20.1483093 L22.8112602,20.1483093 Z M18.9396966,19.6733454 L16.53896,19.6733454 L16.53896,18.8687724 L18.6826685,18.8687724 L18.6826685,18.0437131 L16.53896,18.0437131 L16.53896,17.3085251 L18.9870115,17.3085251 L20.055046,18.4869721 L18.9396966,19.6733454 L18.9396966,19.6733454 Z M26.7025384,17.804463 C26.7025384,18.9277923 25.8556762,19.1597259 25.0021604,19.1597259 L23.7838025,19.1597259 L23.7838025,20.5160862 L21.8859096,20.5160862 L20.6835698,19.1774074 L19.4340384,20.5160862 L15.5662945,20.5160862 L15.5662945,16.4722472 L19.4935516,16.4722472 L20.6949057,17.7977562 L21.9369209,16.4722472 L25.0569914,16.4722472 C25.8318956,16.4722472 26.7025384,16.6845481 26.7025384,17.804463 L26.7025384,17.804463 Z" id="EXPRESS" fill="#FFFFFF"></path>
                    <path d="M10.9076283,11.8121136 L10.2393058,10.2004068 L9.574803,11.8121136 L10.9076283,11.8121136 Z M25.6306842,11.1703331 C25.4965021,11.2509367 25.3378002,11.2536194 25.1476782,11.2536194 L23.9614797,11.2536194 L23.9614797,10.3556389 L25.1638195,10.3556389 C25.3339805,10.3556389 25.5115345,10.3631993 25.6268645,10.4285602 C25.7535303,10.4874581 25.8318956,10.6128145 25.8318956,10.785972 C25.8318956,10.9626659 25.75735,11.1048502 25.6306842,11.1703331 L25.6306842,11.1703331 Z M34.0928988,11.8121136 L33.4171834,10.2004068 L32.7451644,11.8121136 L34.0928988,11.8121136 L34.0928988,11.8121136 Z M18.3188122,13.5566151 L17.317807,13.5566151 L17.3141106,10.3902704 L15.8982378,13.5566151 L15.0409023,13.5566151 L13.6213331,10.3874657 L13.6213331,13.5566151 L11.6353408,13.5566151 L11.2601487,12.6548544 L9.22708802,12.6548544 L8.84807622,13.5566151 L7.78755783,13.5566151 L9.53611324,9.51375165 L10.9868561,9.51375165 L12.6475586,13.3415095 L12.6475586,9.51375165 L14.2412318,9.51375165 L15.5191028,12.2563481 L16.6929797,9.51375165 L18.318689,9.51375165 L18.318689,13.5566151 L18.3188122,13.5566151 Z M22.3084166,13.5566151 L19.0465247,13.5566151 L19.0465247,9.51375165 L22.3084166,9.51375165 L22.3084166,10.3556389 L20.0230099,10.3556389 L20.0230099,11.084364 L22.2535855,11.084364 L22.2535855,11.9130815 L20.0230099,11.9130815 L20.0230099,12.7204592 L22.3084166,12.7204592 L22.3084166,13.5566151 L22.3084166,13.5566151 Z M26.9075695,10.6025713 C26.9075695,11.2471565 26.4728641,11.58018 26.2195325,11.6801724 C26.4331887,11.7606541 26.6156713,11.9028384 26.7025384,12.0206343 C26.8404169,12.2217166 26.8641975,12.4013371 26.8641975,12.7624072 L26.8641975,13.5566151 L25.8793336,13.5566151 L25.8756372,13.0467758 C25.8756372,12.8035016 25.8991714,12.4536502 25.7214942,12.2591528 C25.5788103,12.1169684 25.3613344,12.0861171 25.0097997,12.0861171 L23.9616029,12.0861171 L23.9616029,13.5566151 L22.9852409,13.5566151 L22.9852409,9.51375165 L25.2310953,9.51375165 C25.7301193,9.51375165 26.0977952,9.52679944 26.4134741,9.70739547 C26.7223761,9.8879915 26.9075695,10.15163 26.9075695,10.6025713 L26.9075695,10.6025713 Z M28.4701922,13.5566151 L27.4738693,13.5566151 L27.4738693,9.51375165 L28.4701922,9.51375165 L28.4701922,13.5566151 L28.4701922,13.5566151 Z M40.0288199,13.5566151 L38.6451065,13.5566151 L36.794282,10.5222116 L36.794282,13.5566151 L34.8057022,13.5566151 L34.4257047,12.6548544 L32.3973262,12.6548544 L32.0286645,13.5566151 L30.8860844,13.5566151 C30.4114572,13.5566151 29.8105337,13.4527206 29.4702117,13.109454 C29.1270557,12.7661874 28.948516,12.3012227 28.948516,11.5660347 C28.948516,10.9664461 29.0552209,10.4183171 29.4748939,9.98517924 C29.7905728,9.66252083 30.2849145,9.51375165 30.957796,9.51375165 L31.9031076,9.51375165 L31.9031076,10.3800273 L30.9776338,10.3800273 C30.6212937,10.3800273 30.4200823,10.4324623 30.2262638,10.6195213 C30.0597993,10.7897522 29.9455782,11.111557 29.9455782,11.5353053 C29.9455782,11.9684431 30.0325686,12.2807365 30.2140655,12.4847454 C30.3643887,12.6447332 30.6375582,12.6932661 30.8945863,12.6932661 L31.3331113,12.6932661 L32.7093086,9.5138736 L34.172373,9.5138736 L35.8255594,13.3378513 L35.8255594,9.5138736 L37.3122812,9.5138736 L39.0286773,12.3295133 L39.0286773,9.5138736 L40.0288199,9.5138736 L40.0288199,13.5566151 L40.0288199,13.5566151 Z M7.77622198,14.3507011 L9.4445639,14.3507011 L9.82074174,13.4527206 L10.6629217,13.4527206 L11.0381138,14.3507011 L14.3207059,14.3507011 L14.3207059,13.6641679 L14.6137131,14.3536277 L16.3177876,14.3536277 L16.6107948,13.6539248 L16.6107948,14.3507011 L24.7686664,14.3507011 L24.7648467,12.8766668 L24.9226862,12.8766668 C25.0332107,12.880447 25.0654933,12.8905682 25.0654933,13.0711642 L25.0654933,14.3507011 L29.2847719,14.3507011 L29.2847719,14.0075565 C29.6250939,14.1880305 30.154429,14.3507011 30.8509679,14.3507011 L32.6260147,14.3507011 L33.005889,13.4527206 L33.848069,13.4527206 L34.2195647,14.3507011 L37.6401585,14.3507011 L37.6401585,13.4977172 L38.1581577,14.3507011 L40.8992163,14.3507011 L40.8992163,8.71210526 L38.1864973,8.71210526 L38.1864973,9.37803026 L37.806623,8.71210526 L35.0230549,8.71210526 L35.0230549,9.37803026 L34.674231,8.71210526 L30.9143008,8.71210526 C30.2849145,8.71210526 29.7316756,8.79904987 29.2847719,9.04134853 L29.2847719,8.71210526 L26.6900936,8.71210526 L26.6900936,9.04134853 C26.4057115,8.79161142 26.0181978,8.71210526 25.5873122,8.71210526 L16.1079511,8.71210526 L15.4719112,10.168458 L14.8187442,8.71210526 L11.832979,8.71210526 L11.832979,9.37803026 L11.5049785,8.71210526 L8.95860079,8.71210526 L7.77609877,11.3929991 L7.77609877,14.3507011 L7.77622198,14.3507011 Z" id="AMERICAN" fill="#FFFFFF"></path>
                </g>
            </g>
        </g>
    </g>
</svg>