<?xml version="1.0" encoding="UTF-8"?>
<svg width="51px" height="30px" viewBox="0 0 51 30" version="1.1" xmlns="http://www.w3.org/2000/svg" xmlns:xlink="http://www.w3.org/1999/xlink">
    <!-- Generator: sketchtool 55.2 (78181) - https://sketchapp.com -->
    <title>CC8699FF-D43E-4848-B644-5D3EF06606FF</title>
    <desc>Created with sketchtool.</desc>
    <defs>
        <rect id="path-1" x="0" y="0" width="50.3703704" height="30" rx="4"></rect>
        <path d="M12.1470248,30 L46.3700262,30 C48.5793553,30 50.3703704,28.2127158 50.3703704,26.0007134 L50.3703704,16.8490343 C50.3703704,16.8490343 36.8708764,25.9339984 12.1470248,30 Z" id="path-3"></path>
    </defs>
    <g id="02-Venue-Profile" stroke="none" stroke-width="1" fill="none" fill-rule="evenodd">
        <g id="D_03B5.1_Venue-Profile---Settings-Edit" transform="translate(-1099.000000, -1384.000000)">
            <g id="Group-3-Copy" transform="translate(924.000000, 1384.000000)">
                <g id="Discover-dark" transform="translate(175.000000, 0.000000)">
                    <g id="Rectangle">
                        <mask id="mask-2" fill="white">
                            <use xlink:href="#path-1"></use>
                        </mask>
                        <rect stroke="#E6772F" x="0.5" y="0.5" width="49.3703704" height="29" rx="4"></rect>
                        <mask id="mask-4" fill="white">
                            <use xlink:href="#path-3"></use>
                        </mask>
                        <use id="Mask" fill="#E6772F" xlink:href="#path-3"></use>
                    </g>
                    <path d="M9.21202719,14.9110075 C8.83389002,15.2319548 8.35251691,15.3722989 7.58274613,15.3722989 L7.26333033,15.3722989 L7.26333033,11.5422985 L7.58274613,11.5422985 C8.35251691,11.5422985 8.81542121,11.6731964 9.21202719,12.0101123 C9.62141928,12.3582737 9.86743338,12.8953599 9.86743338,13.4508888 C9.86743338,14.0091166 9.62141928,14.5653201 9.21202719,14.9110075 L9.21202719,14.9110075 Z M7.82118328,10.5612391 L6.07351238,10.5612391 L6.07351238,16.3538082 L7.8105282,16.3538082 C8.73491611,16.3538082 9.40216128,16.1448664 9.98700712,15.6837999 C10.6817187,15.1377173 11.0939522,14.3131955 11.0939522,13.4589855 C11.0939522,11.7489912 9.74904353,10.5612391 7.82118328,10.5612391 L7.82118328,10.5612391 Z" id="Fill-13" fill="#1A1919"></path>
                    <polygon id="Fill-14" fill="#1A1919" points="11.6425707 10.5612391 12.8276531 10.5612391 12.8276531 16.3538082 11.6425707 16.3538082"></polygon>
                    <path d="M15.7379123,12.7813303 C15.0226008,12.5321295 14.8135244,12.3661456 14.8135244,12.0530702 C14.8135244,11.6891651 15.1871627,11.4131999 15.7009746,11.4131999 C16.0570913,11.4131999 16.3504613,11.548596 16.6630105,11.8794393 L17.2817159,11.1084462 C16.7705085,10.6811163 16.1586698,10.4647525 15.4916614,10.4647525 C14.4124196,10.4647525 13.5898469,11.1779436 13.5898469,12.1209932 C13.5898469,12.9216744 13.9722461,13.3278627 15.0881888,13.7135842 C15.5546448,13.8676479 15.7916613,13.972906 15.9117086,14.0442026 C16.1494354,14.1901695 16.2678252,14.3993362 16.2678252,14.641115 C16.2678252,15.1123024 15.8747709,15.4586645 15.3434373,15.4586645 C14.7777706,15.4586645 14.3200755,15.1896716 14.0461214,14.6845227 L13.2794287,15.3898419 C13.8275737,16.1527382 14.4846374,16.4937025 15.3898461,16.4937025 C16.6244154,16.4937025 17.494344,15.7085401 17.494344,14.5902852 C17.494344,13.668827 17.0908714,13.2511683 15.7379123,12.7813303" id="Fill-15" fill="#1A1919"></path>
                    <path d="M17.8679824,13.4589855 C17.8679824,15.1624574 19.2756376,16.482457 21.0877126,16.482457 C21.5986832,16.482457 22.0367256,16.3866451 22.5761098,16.1448664 L22.5761098,14.8136213 C22.0994722,15.2686152 21.6810825,15.4480937 21.1398042,15.4480937 C19.9424093,15.4480937 19.0942644,14.6251463 19.0942644,13.4508888 C19.0942644,12.3414054 19.9698757,11.4624553 21.0877126,11.4624553 C21.6517218,11.4624553 22.0826609,11.6522797 22.5761098,12.1140209 L22.5761098,10.7843502 C22.0549577,10.5340249 21.6273335,10.4303412 21.1121009,10.4303412 C19.3104443,10.4303412 17.8679824,11.7762054 17.8679824,13.4589855" id="Fill-16" fill="#1A1919"></path>
                    <polyline id="Fill-17" fill="#1A1919" points="32.211149 14.450166 30.5849461 10.5612391 29.2883405 10.5612391 31.8735011 16.5 32.5111488 16.5 35.1465068 10.5612391 33.8600827 10.5612391 32.211149 14.450166"></polyline>
                    <polyline id="Fill-18" fill="#1A1919" points="35.6861277 16.3538082 39.0585809 16.3538082 39.0585809 15.3722989 36.8759457 15.3722989 36.8759457 13.8087213 38.975708 13.8087213 38.975708 12.8274369 36.8759457 12.8274369 36.8759457 11.5422985 39.0585809 11.5422985 39.0585809 10.5612391 35.6861277 10.5612391 35.6861277 16.3538082"></polyline>
                    <path d="M41.3813896,13.2248537 L41.0361649,13.2248537 L41.0361649,11.4728012 L41.4008056,11.4728012 C42.1438203,11.4728012 42.5418469,11.7690083 42.5418469,12.3333086 C42.5418469,12.9131278 42.1438203,13.2248537 41.3813896,13.2248537 L41.3813896,13.2248537 Z M43.7664715,12.2703337 C43.7664715,11.1855905 42.9832043,10.5612391 41.6101188,10.5612391 L39.8437423,10.5612391 L39.8437423,16.3538082 L41.0361649,16.3538082 L41.0361649,14.0248603 L41.190782,14.0248603 L42.8337963,16.3538082 L44.296858,16.3538082 L42.3782321,13.9124051 C43.2749168,13.7383243 43.7664715,13.1567059 43.7664715,12.2703337 L43.7664715,12.2703337 Z" id="Fill-19" fill="#1A1919"></path>
                    <path d="M29.4559805,13.4724802 C29.4559805,15.1401913 28.0334081,16.4919032 26.2769763,16.4919032 C24.5210182,16.4919032 23.098209,15.1401913 23.098209,13.4724802 C23.098209,11.8045441 24.5210182,10.4526073 26.2769763,10.4526073 C28.0334081,10.4526073 29.4559805,11.8045441 29.4559805,13.4724802" id="Fill-20" fill="#E6772F"></path>
                </g>
            </g>
        </g>
    </g>
</svg>