<?xml version="1.0" encoding="UTF-8"?>
<svg width="160px" height="160px" viewBox="0 0 160 160" version="1.1" xmlns="http://www.w3.org/2000/svg" xmlns:xlink="http://www.w3.org/1999/xlink">
    <!-- Generator: Sketch 55.2 (78181) - https://sketchapp.com -->
    <title>ic-image-placeholder</title>
    <desc>Created with Sketch.</desc>
    <g id="02-Venue-Profile" stroke="none" stroke-width="1" fill="none" fill-rule="evenodd">
        <g id="D_03B3_Venue-Profile---Photos" transform="translate(-640.000000, -220.000000)">
            <g id="ic-image-placeholder" transform="translate(640.000000, 220.000000)">
                <g>
                    <rect id="Rectangle" fill="#D8D8D8" x="0" y="0" width="160" height="160" rx="4"></rect>
                    <path d="M96.7741935,94.1935484 L52.9032258,94.1935484 C52.683871,94.1935484 52.4877419,94.1264516 52.3070968,94.0283871 C52.2580645,94.0025806 52.2193548,93.9716129 52.1729032,93.9380645 C52.0412903,93.8451613 51.9329032,93.7316129 51.8425806,93.5974194 C51.8245161,93.5690323 51.7883871,93.5535484 51.7703226,93.5225806 C51.76,93.5045161 51.7651613,93.4864516 51.7574194,93.4709677 C51.6722581,93.2980645 51.6129032,93.1096774 51.6129032,92.9032258 L51.6129032,54.1935484 C51.6129032,53.4812903 52.1909677,52.9032258 52.9032258,52.9032258 L96.7741935,52.9032258 C97.4864516,52.9032258 98.0645161,53.4812903 98.0645161,54.1935484 L98.0645161,92.9032258 C98.0645161,92.9135484 98.0593548,92.923871 98.0593548,92.9341935 C98.0567742,92.9780645 98.0387097,93.0141935 98.0335484,93.0580645 C98.0129032,93.2206452 97.9690323,93.3703226 97.8941935,93.5070968 C97.8812903,93.5303226 97.883871,93.556129 97.8709677,93.5793548 C97.8529032,93.6103226 97.8167742,93.6232258 97.796129,93.6516129 C97.7083871,93.7729032 97.6051613,93.8709677 97.4812903,93.9535484 C97.4348387,93.9845161 97.396129,94.0180645 97.3470968,94.043871 C97.1741935,94.1316129 96.9832258,94.1935484 96.7741935,94.1935484 Z M95.483871,55.483871 L54.1935484,55.483871 L54.1935484,88.5109677 L63.4322581,74.1419355 C63.6412903,73.8141935 63.9922581,73.5974194 64.3793548,73.556129 C64.7612903,73.5148387 65.1535484,73.6516129 65.4270968,73.9251613 L71.9741935,80.4774194 L81.4580645,63.8787097 C81.6954839,63.4658065 82.1264516,63.2051613 82.6141935,63.2283871 C83.0916129,63.2412903 83.52,63.5148387 83.7341935,63.9406452 L95.483871,87.4374194 L95.483871,55.483871 Z M65.8064516,70.9677419 C62.2433242,70.9677419 59.3548387,68.0792565 59.3548387,64.516129 C59.3548387,60.9530016 62.2433242,58.0645161 65.8064516,58.0645161 C69.369579,58.0645161 72.2580645,60.9530016 72.2580645,64.516129 C72.2580645,68.0792565 69.369579,70.9677419 65.8064516,70.9677419 Z M98.4567742,96.3690323 C98.9677419,96.1212903 99.5793548,96.2374194 99.9690323,96.6529032 C100.353548,97.0683871 100.423226,97.6903226 100.136774,98.1806452 L95.3083871,106.459355 C95.0658065,106.869677 94.6348387,107.099355 94.1909677,107.099355 C93.9793548,107.099355 93.7651613,107.047742 93.5664516,106.936774 L79.6309677,99.1948387 C79.1174194,98.9083871 78.8619355,98.3122581 79.0090323,97.7419355 C79.156129,97.1716129 79.6696774,96.7741935 80.2580645,96.7741935 L96.7741935,96.7741935 C97.3393548,96.7741935 97.9045161,96.6374194 98.4567742,96.3690323 Z M112.972903,73.7651613 C113.543226,74.1419355 113.716129,74.8980645 113.372903,75.4864516 L103.050323,93.1819355 C102.815484,93.5845161 102.387097,93.8219355 101.935484,93.8219355 C101.824516,93.8219355 101.710968,93.8090323 101.6,93.7780645 C101.034839,93.6258065 100.645161,93.1148387 100.645161,92.5316129 L100.645161,67.956129 C100.645161,67.4812903 100.908387,67.0425806 101.326452,66.8180645 C101.741935,66.596129 102.252903,66.6193548 102.650323,66.8825806 L112.972903,73.7651613 Z" id="Combined-Shape" fill="#000000" fill-rule="nonzero"></path>
                </g>
            </g>
        </g>
    </g>
</svg>