<?xml version="1.0" encoding="UTF-8"?>
<svg width="20px" height="24px" viewBox="0 0 20 24" version="1.1" xmlns="http://www.w3.org/2000/svg" xmlns:xlink="http://www.w3.org/1999/xlink">
    <!-- Generator: Sketch 55.2 (78181) - https://sketchapp.com -->
    <title>ic-lock</title>
    <desc>Created with Sketch.</desc>
    <g id="01_Pages" stroke="none" stroke-width="1" fill="none" fill-rule="evenodd">
        <g id="D_05B5.1_Guide-Profile---Settings-Edit" transform="translate(-500.000000, -1784.000000)" fill="#C9CED6">
            <path d="M503,1793.00581 L503,1790.68592 C503,1786.99938 505.915969,1784 509.5,1784 C513.084031,1784 516,1786.99938 516,1790.68592 L516,1793 L516.803367,1793 C518.566095,1793 519.999999,1794.3931 519.999999,1796.10567 L519.999999,1804.89433 C520.000529,1805.72052 519.667469,1806.50041 519.062243,1807.08841 C518.457017,1807.67642 517.654814,1808 516.804426,1808 L503.196632,1808 C501.433904,1808 500,1806.6069 500,1804.89433 L500,1796.10567 C500,1794.45725 501.328499,1793.10481 503,1793.00581 Z M504.026208,1793 L514.973792,1793 L514.973792,1790.68592 C514.973792,1787.58152 512.51859,1785.05556 509.5,1785.05556 C506.481923,1785.05556 504.026208,1787.58152 504.026208,1790.68592 L504.026208,1793 Z M509.999239,1797 C508.894356,1797 508,1797.89347 508,1798.99487 C508,1799.83268 508.519467,1800.54756 509.254534,1800.84251 L509.254534,1804 L510.744959,1804 L510.744959,1800.84251 C511.480025,1800.54756 512,1799.83268 512,1798.99487 C512,1797.89245 511.103614,1797 509.999239,1797 Z" id="ic-lock"></path>
        </g>
    </g>
</svg>