<?xml version="1.0" encoding="UTF-8"?>
<svg width="154px" height="147px" viewBox="0 0 154 147" version="1.1" xmlns="http://www.w3.org/2000/svg" xmlns:xlink="http://www.w3.org/1999/xlink">
    <!-- Generator: Sketch 55.2 (78181) - https://sketchapp.com -->
    <title>ic-star-empty</title>
    <desc>Created with Sketch.</desc>
    <g id="02-Venue-Profile" stroke="none" stroke-width="1" fill="none" fill-rule="evenodd">
        <g id="D_03B4.1_Venue-Profile---Reviews---Empty-State" transform="translate(-735.000000, -342.000000)" fill="#000000" fill-rule="nonzero">
            <g id="ic-star-empty" transform="translate(735.000000, 342.000000)">
                <path d="M153.163429,55.5743523 C152.756763,54.371625 151.696763,53.5029886 150.443429,53.3359432 L102.163429,46.9213977 L79.6567628,1.69885227 C78.5367628,-0.566284091 74.8100961,-0.566284091 73.6900961,1.69885227 L51.1767628,46.9213977 L2.8967628,53.3359432 C1.64342946,53.5029886 0.596762798,54.371625 0.176762798,55.5743523 C-0.229903869,56.7770795 0.076762798,58.1067614 0.976762798,59.0088068 L36.3834295,94.4959432 L26.7367628,142.852261 C26.4900961,144.108443 26.9767628,145.391352 27.9834295,146.166443 C28.9967628,146.941534 30.3700961,147.068489 31.4967628,146.500534 L76.6700961,123.862534 L121.843429,146.500534 C122.323429,146.734398 122.830096,146.85467 123.336763,146.85467 C124.050096,146.85467 124.770096,146.620807 125.350096,146.166443 C126.363429,145.38467 126.843429,144.108443 126.596763,142.852261 L116.950096,94.4959432 L152.356763,59.0088068 C153.263429,58.1067614 153.563429,56.7770795 153.163429,55.5743523 Z M110.983429,91.0347614 C110.196763,91.8298977 109.850096,92.959125 110.070096,94.0549432 L118.736763,137.473398 L78.1634295,117.140625 C77.6900961,116.906761 77.1767628,116.786489 76.6700961,116.786489 C76.1634295,116.786489 75.6500961,116.906761 75.1767628,117.140625 L34.6034295,137.473398 L43.2700961,94.0549432 C43.4900961,92.959125 43.1434295,91.8232159 42.3567628,91.0347614 L10.4634295,59.0689432 L53.8100961,53.3092159 C54.9100961,53.1622159 55.8634295,52.4806705 56.3567628,51.4917614 L76.6700961,10.6792159 L96.9834295,51.4917614 C97.4767628,52.4806705 98.4300961,53.1622159 99.5300961,53.3092159 L142.876763,59.0689432 L110.983429,91.0347614 Z"></path>
            </g>
        </g>
    </g>
</svg>