<?xml version="1.0" encoding="UTF-8"?>
<svg width="45px" height="28px" viewBox="0 0 45 28" version="1.1" xmlns="http://www.w3.org/2000/svg" xmlns:xlink="http://www.w3.org/1999/xlink">
    <!-- Generator: Sketch 62 (91390) - https://sketch.com -->
    <title>ic-visa@3x</title>
    <desc>Created with Sketch.</desc>
    <g id="01_Pages" stroke="none" stroke-width="1" fill="none" fill-rule="evenodd">
        <g id="D_05B5_Guide-Profile---Settings" transform="translate(-470.000000, -1024.000000)">
            <g id="ic-visa" transform="translate(470.000000, 1024.000000)">
                <path d="M44.7964286,26.3033418 C44.7964286,27.1217215 44.1275,27.7848608 43.3028571,27.7848608 L1.49285714,27.7848608 C0.668214286,27.7848608 0,27.1217215 0,26.3033418 L0,1.48222785 C0,0.663493671 0.668214286,0 1.49285714,0 L43.3028571,0 C44.1275,0 44.7964286,0.663493671 44.7964286,1.48222785 L44.7964286,26.3033418" id="Fill-342" fill="#3957A7"></path>
                <polyline id="Fill-343" fill="#FFFFFF" points="20.6146429 18.0660253 18.4264286 18.0660253 19.7942857 9.72486076 21.9825 9.72486076 20.6146429 18.0660253"></polyline>
                <path d="M16.5853571,9.72486076 L14.4992857,15.4620253 L14.2521429,14.226481 L14.2521429,14.2268354 L13.5164286,10.4758987 C13.5164286,10.4758987 13.4271429,9.72486076 12.4782143,9.72486076 L9.02892857,9.72486076 L8.98928571,9.86627848 C8.98928571,9.86627848 10.0439286,10.0835443 11.2778571,10.8193418 L13.1785714,18.0660253 L15.4589286,18.0660253 L18.9410714,9.72486076 L16.5853571,9.72486076" id="Fill-344" fill="#FFFFFF"></path>
                <path d="M31.3903571,15.1157468 L32.5396429,11.9935696 L33.1871429,15.1157468 L31.3903571,15.1157468 Z M33.7982143,18.0660253 L35.8071429,18.0660253 L34.0553571,9.72486076 L32.2964286,9.72486076 C31.4835714,9.72486076 31.2857143,10.3461772 31.2857143,10.3461772 L28.0225,18.0660253 L30.3035714,18.0660253 L30.7589286,16.8272911 L33.5414286,16.8272911 L33.7982143,18.0660253 L33.7982143,18.0660253 Z" id="Fill-345" fill="#FFFFFF"></path>
                <path d="M28.1932143,11.7305823 L28.505,9.93929114 C28.505,9.93929114 27.5417857,9.57564557 26.5375,9.57564557 C25.4514286,9.57564557 22.8725,10.0466835 22.8725,12.3370127 C22.8725,14.4923038 25.9,14.5188861 25.9,15.6502278 C25.9,16.7819241 23.1842857,16.5798987 22.2885714,15.8660759 L21.9628571,17.7381772 C21.9628571,17.7381772 22.94,18.2099241 24.4328571,18.2099241 C25.9264286,18.2099241 28.1792857,17.4422278 28.1792857,15.3542785 C28.1792857,13.185519 25.1257143,12.9831392 25.1257143,12.0403544 C25.1257143,11.0972152 27.2571429,11.2184304 28.1932143,11.7305823" id="Fill-346" fill="#FFFFFF"></path>
                <path d="M14.2521429,14.2268354 L13.5164286,10.4758987 C13.5164286,10.4758987 13.4271429,9.72486076 12.4782143,9.72486076 L9.02892857,9.72486076 L8.98928571,9.86627848 C8.98928571,9.86627848 10.6467857,10.2068861 12.2364286,11.4838987 C13.7564286,12.7052658 14.2521429,14.2268354 14.2521429,14.2268354" id="Fill-347" fill="#F9A533"></path>
            </g>
        </g>
    </g>
</svg>