<?xml version="1.0"?>
<svg xmlns="http://www.w3.org/2000/svg" width="200" height="1434" viewBox="0 0 200 1434">


<svg width="53" height="50" id="ic-airlines-grey" y="24"><path d="M3.225 22.267c-.564-.178-.983-.588-1.149-1.122-.166-.536-.056-1.123.3-1.611l1.349-1.842c.505-.692 1.478-1.236 2.31-1.294l19.908-1.395c.55-.04 1.018.392 1.055.96.036.57-.377 1.06-.923 1.1L6.168 18.458c-.259.019-.712.272-.867.485l-1.084 1.48 14.489 4.556c.524.165.821.741.662 1.287a.998.998 0 0 1-.948.734.963.963 0 0 1-.287-.044l-14.908-4.69zm47.707 19.467c.094-.122.117-.45.044-.586L39.829 20.674l8.866-12.05c2.107-2.778 2.414-5.55 1.704-6.245a1.394 1.394 0 0 0-.218-.182l-.118-.068c-.002-.001-.221-.135-.976-.135-2.815 0-7.902 1.733-9.245 3.505l-17.99 24.064c-.538.708-4.01 5.46-6.561 9.587l-.247.399-10.813 1.463c-.28.038-.756.316-.927.541l-1.116 1.472 9.473 3.263-.745 1.084c-.12.173-.204.309-.262.411.26.14.66.223 1.132.223.212 0 .362-.017.386-.02 5.597-.757 13.203-8.273 14.157-9.531l3.282-4.326c2.035-2.353 4.46-1.567 4.782-1.461l.272.138L49.541 43.52l1.391-1.785zm1.783-1.542c.448.825.359 2.006-.206 2.751l-1.348 1.778c-.631.833-1.927 1.028-2.774.419L33.66 34.534a2.648 2.648 0 0 0-.565-.059c-.767 0-1.422.308-1.948.915l-3.24 4.274c-1.175 1.55-9.255 9.458-15.473 10.3 0 0-.262.036-.647.036-1.378 0-2.45-.464-3.02-1.304-.285-.422-.252-.897-.102-1.332l-7.482-2.577c-.55-.19-.956-.596-1.113-1.115-.157-.518-.044-1.084.31-1.55l1.349-1.777c.491-.65 1.433-1.201 2.238-1.31l9.89-1.338c2.563-4.093 5.89-8.645 6.414-9.338l17.99-24.064C40.221 1.71 46.074 0 49.087 0c.892 0 1.554.143 2.022.435.327.174.607.446.688.53 1.696 1.657 1.05 5.472-1.518 8.857l-8.102 11.012 10.538 19.358zM43.426 8.774c-.428-.318-.555-.985-.282-1.485.205-.376.576-.554.93-.484.453-.36 1.441-1.815 2.225-3.296.268-.505.834-.66 1.266-.347.431.313.564.977.297 1.481-.781 1.477-2.27 4-3.449 4.316a1.192 1.192 0 0 1-.311.041 1.12 1.12 0 0 1-.676-.226z" fill="#C9CED6" fill-rule="evenodd"/></svg>
<svg width="53" height="50" id="ic-airlines" y="74"><path d="M3.225 22.267c-.564-.178-.983-.588-1.149-1.122-.166-.536-.056-1.123.3-1.611l1.349-1.842c.505-.692 1.478-1.236 2.31-1.294l19.908-1.395c.55-.04 1.018.392 1.055.96.036.57-.377 1.06-.923 1.1L6.168 18.458c-.259.019-.712.272-.867.485l-1.084 1.48 14.489 4.556c.524.165.821.741.662 1.287a.998.998 0 0 1-.948.734.963.963 0 0 1-.287-.044l-14.908-4.69zm47.707 19.467c.094-.122.117-.45.044-.586L39.829 20.674l8.866-12.05c2.107-2.778 2.414-5.55 1.704-6.245a1.394 1.394 0 0 0-.218-.182l-.118-.068c-.002-.001-.221-.135-.976-.135-2.815 0-7.902 1.733-9.245 3.505l-17.99 24.064c-.538.708-4.01 5.46-6.561 9.587l-.247.399-10.813 1.463c-.28.038-.756.316-.927.541l-1.116 1.472 9.473 3.263-.745 1.084c-.12.173-.204.309-.262.411.26.14.66.223 1.132.223.212 0 .362-.017.386-.02 5.597-.757 13.203-8.273 14.157-9.531l3.282-4.326c2.035-2.353 4.46-1.567 4.782-1.461l.272.138L49.541 43.52l1.391-1.785zm1.783-1.542c.448.825.359 2.006-.206 2.751l-1.348 1.778c-.631.833-1.927 1.028-2.774.419L33.66 34.534a2.648 2.648 0 0 0-.565-.059c-.767 0-1.422.308-1.948.915l-3.24 4.274c-1.175 1.55-9.255 9.458-15.473 10.3 0 0-.262.036-.647.036-1.378 0-2.45-.464-3.02-1.304-.285-.422-.252-.897-.102-1.332l-7.482-2.577c-.55-.19-.956-.596-1.113-1.115-.157-.518-.044-1.084.31-1.55l1.349-1.777c.491-.65 1.433-1.201 2.238-1.31l9.89-1.338c2.563-4.093 5.89-8.645 6.414-9.338l17.99-24.064C40.221 1.71 46.074 0 49.087 0c.892 0 1.554.143 2.022.435.327.174.607.446.688.53 1.696 1.657 1.05 5.472-1.518 8.857l-8.102 11.012 10.538 19.358zM43.426 8.774c-.428-.318-.555-.985-.282-1.485.205-.376.576-.554.93-.484.453-.36 1.441-1.815 2.225-3.296.268-.505.834-.66 1.266-.347.431.313.564.977.297 1.481-.781 1.477-2.27 4-3.449 4.316a1.192 1.192 0 0 1-.311.041 1.12 1.12 0 0 1-.676-.226z" fill="#FFF" fill-rule="evenodd"/></svg>
<svg width="54" height="47" id="ic-events-grey" y="239"><path d="M7 28a1 1 0 0 1 0-2h3a1 1 0 0 1 0 2H7zm7 0a1 1 0 0 1 0-2h5a1 1 0 0 1 0 2h-5zm-7 6a1 1 0 0 1 0-2h9a1 1 0 0 1 0 2H7zm19 4a1 1 0 0 1 0 2H7a1 1 0 0 1 0-2h19zm25.713-15.026a2.931 2.931 0 0 0 .097-2.275L45.577 3.933a2.967 2.967 0 0 0-1.564-1.67 3.01 3.01 0 0 0-2.297-.094l-2.94 1.07a3.897 3.897 0 0 1-.35 2.062 3.965 3.965 0 0 1-2.256 2.061 4.017 4.017 0 0 1-3.064-.12 3.976 3.976 0 0 1-1.618-1.344L4.095 15.885a2.972 2.972 0 0 0-1.687 1.547 2.931 2.931 0 0 0-.096 2.275c.034.092.036.184.043.275a4.993 4.993 0 0 1 2.656-.772H35.08a.998.998 0 0 1 1.002.992c0 1.096.9 1.985 2.005 1.985s2.004-.889 2.004-1.985a.998.998 0 0 1 1.002-.992h4.01c2.763 0 5.01 2.227 5.01 4.962v.308a2.973 2.973 0 0 0 1.601-1.506zm-3.605 19.063V24.172c0-1.641-1.349-2.977-3.006-2.977h-3.135a4.008 4.008 0 0 1-3.881 2.977 4.01 4.01 0 0 1-3.883-2.977H5.011c-1.657 0-3.006 1.336-3.006 2.977v17.865c0 1.643 1.349 2.978 3.006 2.978h29.192a4.01 4.01 0 0 1 3.883-2.978 4.01 4.01 0 0 1 3.881 2.978h3.135c1.657 0 3.006-1.335 3.006-2.978zm5.583-22.025a4.88 4.88 0 0 1-.159 3.793 4.955 4.955 0 0 1-2.813 2.579 1.01 1.01 0 0 1-.346.061.997.997 0 0 1-.26-.04v15.632c0 2.737-2.248 4.963-5.011 4.963h-4.01a.997.997 0 0 1-1.002-.993 1.997 1.997 0 0 0-2.004-1.985c-1.106 0-2.005.89-2.005 1.985A.997.997 0 0 1 35.08 47H5.011C2.248 47 0 44.774 0 42.037V24.172c0-1.207.455-2.301 1.183-3.163a.984.984 0 0 1-.752-.615 4.885 4.885 0 0 1 .157-3.793 4.954 4.954 0 0 1 2.815-2.579L31.618 3.735c.25-.091.526-.08.767.03s.428.311.52.558c.184.498.554.894 1.04 1.116a2.002 2.002 0 0 0 1.533.06 1.98 1.98 0 0 0 1.189-2.547.988.988 0 0 1 .595-1.276l3.761-1.37a5.027 5.027 0 0 1 3.831.156 4.947 4.947 0 0 1 2.604 2.786l6.233 16.764z" fill="#C9CED6" fill-rule="evenodd"/></svg>
<svg width="54" height="47" id="ic-events" y="286"><path d="M7 28a1 1 0 0 1 0-2h3a1 1 0 0 1 0 2H7zm7 0a1 1 0 0 1 0-2h5a1 1 0 0 1 0 2h-5zm-7 6a1 1 0 0 1 0-2h9a1 1 0 0 1 0 2H7zm19 4a1 1 0 0 1 0 2H7a1 1 0 0 1 0-2h19zm25.713-15.026a2.931 2.931 0 0 0 .097-2.275L45.577 3.933a2.967 2.967 0 0 0-1.564-1.67 3.01 3.01 0 0 0-2.297-.094l-2.94 1.07a3.897 3.897 0 0 1-.35 2.062 3.965 3.965 0 0 1-2.256 2.061 4.017 4.017 0 0 1-3.064-.12 3.976 3.976 0 0 1-1.618-1.344L4.095 15.885a2.972 2.972 0 0 0-1.687 1.547 2.931 2.931 0 0 0-.096 2.275c.034.092.036.184.043.275a4.993 4.993 0 0 1 2.656-.772H35.08a.998.998 0 0 1 1.002.992c0 1.096.9 1.985 2.005 1.985s2.004-.889 2.004-1.985a.998.998 0 0 1 1.002-.992h4.01c2.763 0 5.01 2.227 5.01 4.962v.308a2.973 2.973 0 0 0 1.601-1.506zm-3.605 19.063V24.172c0-1.641-1.349-2.977-3.006-2.977h-3.135a4.008 4.008 0 0 1-3.881 2.977 4.01 4.01 0 0 1-3.883-2.977H5.011c-1.657 0-3.006 1.336-3.006 2.977v17.865c0 1.643 1.349 2.978 3.006 2.978h29.192a4.01 4.01 0 0 1 3.883-2.978 4.01 4.01 0 0 1 3.881 2.978h3.135c1.657 0 3.006-1.335 3.006-2.978zm5.583-22.025a4.88 4.88 0 0 1-.159 3.793 4.955 4.955 0 0 1-2.813 2.579 1.01 1.01 0 0 1-.346.061.997.997 0 0 1-.26-.04v15.632c0 2.737-2.248 4.963-5.011 4.963h-4.01a.997.997 0 0 1-1.002-.993 1.997 1.997 0 0 0-2.004-1.985c-1.106 0-2.005.89-2.005 1.985A.997.997 0 0 1 35.08 47H5.011C2.248 47 0 44.774 0 42.037V24.172c0-1.207.455-2.301 1.183-3.163a.984.984 0 0 1-.752-.615 4.885 4.885 0 0 1 .157-3.793 4.954 4.954 0 0 1 2.815-2.579L31.618 3.735c.25-.091.526-.08.767.03s.428.311.52.558c.184.498.554.894 1.04 1.116a2.002 2.002 0 0 0 1.533.06 1.98 1.98 0 0 0 1.189-2.547.988.988 0 0 1 .595-1.276l3.761-1.37a5.027 5.027 0 0 1 3.831.156 4.947 4.947 0 0 1 2.604 2.786l6.233 16.764z" fill="#FFF" fill-rule="evenodd"/></svg>
<svg width="24" height="24" id="ic-favorite-white" y="357"><path d="M12 24a.498.498 0 0 1-.306-.105C11.216 23.525 0 14.737 0 6.75A6.758 6.758 0 0 1 6.75 0C8.809 0 10.723.928 12 2.514A6.719 6.719 0 0 1 17.25 0 6.758 6.758 0 0 1 24 6.75c0 7.987-11.216 16.775-11.694 17.145A.498.498 0 0 1 12 24zM6.75 1C3.58 1 1 3.58 1 6.75c0 6.793 9.19 14.632 11 16.109 1.81-1.477 11-9.315 11-16.109C23 3.58 20.42 1 17.25 1a5.73 5.73 0 0 0-4.83 2.638c-.184.285-.656.285-.84 0A5.73 5.73 0 0 0 6.75 1z" fill="#fff"/></svg>
<svg width="36" height="36" id="ic-favorites-selected" y="381"><path d="M25.875 0C22.786 0 19.915 1.392 18 3.771A10.078 10.078 0 0 0 10.125 0C4.542 0 0 4.542 0 10.125c0 11.98 16.824 25.163 17.541 25.718a.746.746 0 0 0 .918 0C19.176 35.287 36 22.105 36 10.125 36 4.542 31.458 0 25.875 0z" fill="#59C3B6" fill-rule="evenodd"/></svg>
<svg width="36" height="36" id="ic-favorites" y="417"><path d="M25.875 0C22.786 0 19.915 1.392 18 3.771A10.078 10.078 0 0 0 10.125 0C4.542 0 0 4.542 0 10.125c0 11.98 16.824 25.163 17.541 25.718a.746.746 0 0 0 .918 0C19.176 35.287 36 22.105 36 10.125 36 4.542 31.458 0 25.875 0z" fill="#C9CED6" fill-rule="evenodd"/></svg>
<svg width="53" height="54" id="ic-guides-grey" y="453"><path d="M50.06 38.054C47.525 44.099 43.234 49.842 41.533 52c-1.722-2.152-6.074-7.899-8.624-13.98A9.965 9.965 0 0 1 32 33.816C32 28.404 36.262 24 41.5 24s9.5 4.404 9.5 9.816c0 1.455-.312 2.87-.94 4.238zM22.483 19.149c.373.448.727.87 1.126 1.161.44.319.52.911.182 1.323a1.03 1.03 0 0 1-.795.367 1.04 1.04 0 0 1-.614-.197c-.598-.434-1.047-.971-1.48-1.49a14.159 14.159 0 0 0-.645-.74.903.903 0 0 1 .076-1.33 1.048 1.048 0 0 1 1.418.07c.26.272.498.556.732.836zm-4.374-3.092c.551.056.947.5.885.991-.064.492-.568.845-1.112.79-1.49-.15-2.588.124-2.597.127a1.104 1.104 0 0 1-.28.035c-.434 0-.836-.253-.963-.643-.157-.474.143-.97.674-1.11.119-.033 1.487-.381 3.393-.19zM32.948 19a.93.93 0 0 1-.772-.42 1.035 1.035 0 0 1 .222-1.394c1.064-.8 1.662-1.484 1.923-1.821a.914.914 0 0 1 1.333-.138c.404.35.463.98.13 1.407-.32.413-1.045 1.246-2.288 2.18a.903.903 0 0 1-.548.186zm-2.035.596c.23.503-.01 1.09-.535 1.31-.717.299-1.476.577-2.26.828-.286.091-.558.169-.818.234a1.09 1.09 0 0 1-.262.032c-.462 0-.882-.296-1.004-.744-.144-.53.187-1.073.742-1.212.217-.054.445-.12.686-.197.725-.23 1.426-.487 2.085-.764.525-.22 1.137.01 1.366.513zM10 23c1.103 0 2-.897 2-2s-.897-2-2-2-2 .897-2 2 .897 2 2 2zm0-6c2.206 0 4 1.794 4 4s-1.794 4-4 4-4-1.794-4-4 1.794-4 4-4zm30-7c-1.103 0-2 .897-2 2s.897 2 2 2 2-.897 2-2-.897-2-2-2zm0 6c-2.206 0-4-1.794-4-4s1.794-4 4-4 4 1.794 4 4-1.794 4-4 4zM25.003 41l-11.582-5.314a1.009 1.009 0 0 0-.839-.001L2 40.504V7.028L13 2l11.581 5.294c.265.122.572.12.838 0L37 2l11 5.028v16.286a11.802 11.802 0 0 0-6.243-1.784C35.274 21.53 30 26.722 30 33.105c0 1.746.381 3.416 1.116 4.934.025.056.053.112.078.167L25.003 41zm24.486-15.84c.009-.055.032-.104.032-.16V6.538a.999.999 0 0 0-.576-.908L37.06.091a.987.987 0 0 0-.83 0L24.76 5.437 13.29.092a.983.983 0 0 0-.83 0L.575 5.63A1 1 0 0 0 0 6.538v36a1 1 0 0 0 .457.842c.284.184.64.21.947.067l11.47-5.325 11.47 5.365a.982.982 0 0 0 .826.003l6.574-3.024c3.472 6.997 8.672 12.928 8.911 13.2a.99.99 0 0 0 .74.334h.003a.987.987 0 0 0 .741-.34c.258-.297 6.36-7.35 9.725-15.139a11.666 11.666 0 0 0-2.375-13.362zM41.5 37.071a3.577 3.577 0 0 1-3.572-3.572 3.576 3.576 0 0 1 3.572-3.572 3.576 3.576 0 0 1 3.572 3.572 3.577 3.577 0 0 1-3.572 3.572m0-9.072a5.507 5.507 0 0 0-5.5 5.5c0 3.032 2.468 5.5 5.5 5.5s5.5-2.468 5.5-5.5-2.468-5.5-5.5-5.5" fill="#C9CED6" fill-rule="evenodd"/></svg>
<svg width="53" height="54" id="ic-guides" y="507"><path d="M50.06 38.054C47.525 44.099 43.234 49.842 41.533 52c-1.722-2.152-6.074-7.899-8.624-13.98A9.965 9.965 0 0 1 32 33.816C32 28.404 36.262 24 41.5 24s9.5 4.404 9.5 9.816c0 1.455-.312 2.87-.94 4.238zM22.483 19.149c.373.448.727.87 1.126 1.161.44.319.52.911.182 1.323a1.03 1.03 0 0 1-.795.367 1.04 1.04 0 0 1-.614-.197c-.598-.434-1.047-.971-1.48-1.49a14.159 14.159 0 0 0-.645-.74.903.903 0 0 1 .076-1.33 1.048 1.048 0 0 1 1.418.07c.26.272.498.556.732.836zm-4.374-3.092c.551.056.947.5.885.991-.064.492-.568.845-1.112.79-1.49-.15-2.588.124-2.597.127a1.104 1.104 0 0 1-.28.035c-.434 0-.836-.253-.963-.643-.157-.474.143-.97.674-1.11.119-.033 1.487-.381 3.393-.19zM32.948 19a.93.93 0 0 1-.772-.42 1.035 1.035 0 0 1 .222-1.394c1.064-.8 1.662-1.484 1.923-1.821a.914.914 0 0 1 1.333-.138c.404.35.463.98.13 1.407-.32.413-1.045 1.246-2.288 2.18a.903.903 0 0 1-.548.186zm-2.035.596c.23.503-.01 1.09-.535 1.31-.717.299-1.476.577-2.26.828-.286.091-.558.169-.818.234a1.09 1.09 0 0 1-.262.032c-.462 0-.882-.296-1.004-.744-.144-.53.187-1.073.742-1.212.217-.054.445-.12.686-.197.725-.23 1.426-.487 2.085-.764.525-.22 1.137.01 1.366.513zM10 23c1.103 0 2-.897 2-2s-.897-2-2-2-2 .897-2 2 .897 2 2 2zm0-6c2.206 0 4 1.794 4 4s-1.794 4-4 4-4-1.794-4-4 1.794-4 4-4zm30-7c-1.103 0-2 .897-2 2s.897 2 2 2 2-.897 2-2-.897-2-2-2zm0 6c-2.206 0-4-1.794-4-4s1.794-4 4-4 4 1.794 4 4-1.794 4-4 4zM25.003 41l-11.582-5.314a1.009 1.009 0 0 0-.839-.001L2 40.504V7.028L13 2l11.581 5.294c.265.122.572.12.838 0L37 2l11 5.028v16.286a11.802 11.802 0 0 0-6.243-1.784C35.274 21.53 30 26.722 30 33.105c0 1.746.381 3.416 1.116 4.934.025.056.053.112.078.167L25.003 41zm24.486-15.84c.009-.055.032-.104.032-.16V6.538a.999.999 0 0 0-.576-.908L37.06.091a.987.987 0 0 0-.83 0L24.76 5.437 13.29.092a.983.983 0 0 0-.83 0L.575 5.63A1 1 0 0 0 0 6.538v36a1 1 0 0 0 .457.842c.284.184.64.21.947.067l11.47-5.325 11.47 5.365a.982.982 0 0 0 .826.003l6.574-3.024c3.472 6.997 8.672 12.928 8.911 13.2a.99.99 0 0 0 .74.334h.003a.987.987 0 0 0 .741-.34c.258-.297 6.36-7.35 9.725-15.139a11.666 11.666 0 0 0-2.375-13.362zM41.5 37.071a3.577 3.577 0 0 1-3.572-3.572 3.576 3.576 0 0 1 3.572-3.572 3.576 3.576 0 0 1 3.572 3.572 3.577 3.577 0 0 1-3.572 3.572m0-9.072a5.507 5.507 0 0 0-5.5 5.5c0 3.032 2.468 5.5 5.5 5.5s5.5-2.468 5.5-5.5-2.468-5.5-5.5-5.5" fill="#FFF" fill-rule="evenodd"/></svg>
<svg width="53" height="41" id="ic-hotels-grey" y="561"><path d="M12 8c-2.206 0-4 1.794-4 4s1.794 4 4 4 4-1.794 4-4-1.794-4-4-4zm0 10c-3.309 0-6-2.691-6-6s2.691-6 6-6 6 2.691 6 6-2.691 6-6 6zm39.037 15v-5h-2.512c-.679 1.186-1.927 2-3.377 2h-22.59c-1.816 0-3.332-1.29-3.77-3H1.963v6h49.074zM1.963 21v4h13.645c-.714-3.92-5.572-3.999-5.795-4h-7.85zm18.648-7v12c0 1.09.882 1.991 1.963 2h22.574c1.08-.009 1.964-.91 1.963-2v-8.8c0-1.089-.85-2.378-1.903-2.815-5.304-2.166-10.891-3.489-16.358-3.489-2.142 0-4.266.203-6.346.638-1.049.228-1.892 1.377-1.893 2.466zm31.408-4A.99.99 0 0 1 53 11v29a.99.99 0 0 1-.981 1 .99.99 0 0 1-.982-1v-5H1.963v5a.99.99 0 0 1-.982 1A.99.99 0 0 1 0 40V1c0-.553.439-1 .981-1a.99.99 0 0 1 .982 1v18h7.852c2.544 0 7.213 1.285 7.792 6h1.041V13.998c.002-2.06 1.517-4.001 3.462-4.423a33.034 33.034 0 0 1 6.74-.679c5.436 0 11.186 1.222 17.1 3.637 1.78.74 3.123 2.746 3.124 4.667V26h1.963V11c0-.553.439-1 .982-1z" fill="#C9CED6" fill-rule="evenodd"/></svg>
<svg width="53" height="41" id="ic-hotels" y="602"><path d="M12 8c-2.206 0-4 1.794-4 4s1.794 4 4 4 4-1.794 4-4-1.794-4-4-4zm0 10c-3.309 0-6-2.691-6-6s2.691-6 6-6 6 2.691 6 6-2.691 6-6 6zm39.037 15v-5h-2.512c-.679 1.186-1.927 2-3.377 2h-22.59c-1.816 0-3.332-1.29-3.77-3H1.963v6h49.074zM1.963 21v4h13.645c-.714-3.92-5.572-3.999-5.795-4h-7.85zm18.648-7v12c0 1.09.882 1.991 1.963 2h22.574c1.08-.009 1.964-.91 1.963-2v-8.8c0-1.089-.85-2.378-1.903-2.815-5.304-2.166-10.891-3.489-16.358-3.489-2.142 0-4.266.203-6.346.638-1.049.228-1.892 1.377-1.893 2.466zm31.408-4A.99.99 0 0 1 53 11v29a.99.99 0 0 1-.981 1 .99.99 0 0 1-.982-1v-5H1.963v5a.99.99 0 0 1-.982 1A.99.99 0 0 1 0 40V1c0-.553.439-1 .981-1a.99.99 0 0 1 .982 1v18h7.852c2.544 0 7.213 1.285 7.792 6h1.041V13.998c.002-2.06 1.517-4.001 3.462-4.423a33.034 33.034 0 0 1 6.74-.679c5.436 0 11.186 1.222 17.1 3.637 1.78.74 3.123 2.746 3.124 4.667V26h1.963V11c0-.553.439-1 .982-1z" fill="#FFF" fill-rule="evenodd"/></svg>
<svg width="48" height="36" id="ic-messages" y="867"><path d="M28.787 24c2.736 0 4.963-2.244 4.963-5V5c0-2.756-2.227-5-4.963-5H4.963C2.227 0 0 2.244 0 5v14c0 2.756 2.227 5 4.963 5h.993l-1.787 2.4c-.268.358-.264.852.006 1.208a.987.987 0 0 0 1.157.32L15.082 24h13.705zM42.684 8h-5.956a.997.997 0 0 0-.993 1v10c0 3.86-3.117 7-6.948 7H15.654a.987.987 0 0 0-.37.072l-.734.296a1 1 0 0 0-.621 1.002c.19 2.596 2.356 4.63 4.93 4.63h13.706l9.75 3.928a.994.994 0 0 0 .369.072h.022c.561-.054 1.01-.442 1.01-1 0-.316-.147-.598-.373-.782L41.69 32h.993c2.736 0 4.963-2.244 4.963-5V13c0-2.756-2.227-5-4.963-5z" fill="#C9CED6" fill-rule="evenodd"/></svg>
<svg width="54" height="54" id="ic-museums-grey" y="903"><path d="M44.128 51.994C43.492 51.001 43 49.265 43 48V25c0-.077.027-.145.043-.217-2.042-.454-3.737-1.623-4.794-3.368A7.316 7.316 0 0 1 37.328 19H16.671a7.292 7.292 0 0 1-.92 2.415c-1.059 1.745-2.753 2.914-4.795 3.368.016.072.044.14.044.217v23c0 1.265-.493 3.001-1.129 3.994.038.004.08.006.129.006h34c.048 0 .09-.002.128-.006zM2 16c0 3.859 3.14 7 7 7 2.226 0 4.016-.932 5.041-2.622.532-.877.98-2.296.645-3.648-.243-.975-.869-1.771-1.86-2.364-1.334-.798-3.09-.74-4.267.137-.489.364-1.255 1.183-.899 2.579.19.747.87 1.057 1.439 1.031.356-.017.8-.164.892-.766a1 1 0 1 1 1.977.304c-.219 1.423-1.307 2.389-2.772 2.46-1.394.054-3.028-.782-3.475-2.535-.462-1.816.152-3.564 1.642-4.676 1.81-1.349 4.478-1.454 6.489-.251 1.445.865 2.404 2.109 2.775 3.6.06.244.1.496.128.751h20.489a5.8 5.8 0 0 1 .129-.751c.371-1.491 1.33-2.735 2.775-3.6 2.01-1.203 4.678-1.099 6.489.251 1.49 1.112 2.104 2.86 1.641 4.676-.446 1.753-2.083 2.583-3.474 2.535-1.465-.071-2.553-1.037-2.772-2.46a1 1 0 1 1 1.976-.304c.093.602.537.749.892.766.575.027 1.25-.284 1.44-1.031.355-1.396-.411-2.215-.899-2.579-1.178-.877-2.933-.935-4.267-.137-.991.593-1.617 1.389-1.86 2.364-.335 1.352.113 2.771.645 3.648C40.983 22.069 42.774 23 45 23c3.86 0 7-3.141 7-7 0-3.86-3.14-7-7-7H9c-3.86 0-7 3.14-7 7zm52 0c0 4.963-4.038 9-9 9v23c0 .903.388 2.28.832 2.945.454.682.527 1.421.202 2.029C45.685 53.626 44.943 54 44 54H10c-.944 0-1.686-.374-2.035-1.026-.325-.608-.252-1.347.203-2.029C8.611 50.28 9 48.903 9 48V25c-4.963 0-9-4.037-9-9s4.037-9 9-9h36c4.962 0 9 4.037 9 9zM7.553 4.895A1.001 1.001 0 0 1 7 4V1a1 1 0 0 1 1-1h38a1 1 0 0 1 1 1v3c0 .379-.214.725-.552.895l-2 1a1 1 0 0 1-.895-1.789L45 3.382V2H9v1.382l1.448.724a1 1 0 0 1-.895 1.789l-2-1zM27 27a1 1 0 0 1 1 1v18a1 1 0 1 1-2 0V28a1 1 0 0 1 1-1zm8 0a1 1 0 0 1 1 1v18a1 1 0 1 1-2 0V28a1 1 0 0 1 1-1zm-16 0a1 1 0 0 1 1 1v18a1 1 0 1 1-2 0V28a1 1 0 0 1 1-1z" fill="#C9CED6" fill-rule="evenodd"/></svg>
<svg width="54" height="54" id="ic-museums" y="957"><path d="M44.128 51.994C43.492 51.001 43 49.265 43 48V25c0-.077.027-.145.043-.217-2.042-.454-3.737-1.623-4.794-3.368A7.316 7.316 0 0 1 37.328 19H16.671a7.292 7.292 0 0 1-.92 2.415c-1.059 1.745-2.753 2.914-4.795 3.368.016.072.044.14.044.217v23c0 1.265-.493 3.001-1.129 3.994.038.004.08.006.129.006h34c.048 0 .09-.002.128-.006zM2 16c0 3.859 3.14 7 7 7 2.226 0 4.016-.932 5.041-2.622.532-.877.98-2.296.645-3.648-.243-.975-.869-1.771-1.86-2.364-1.334-.798-3.09-.74-4.267.137-.489.364-1.255 1.183-.899 2.579.19.747.87 1.057 1.439 1.031.356-.017.8-.164.892-.766a1 1 0 1 1 1.977.304c-.219 1.423-1.307 2.389-2.772 2.46-1.394.054-3.028-.782-3.475-2.535-.462-1.816.152-3.564 1.642-4.676 1.81-1.349 4.478-1.454 6.489-.251 1.445.865 2.404 2.109 2.775 3.6.06.244.1.496.128.751h20.489a5.8 5.8 0 0 1 .129-.751c.371-1.491 1.33-2.735 2.775-3.6 2.01-1.203 4.678-1.099 6.489.251 1.49 1.112 2.104 2.86 1.641 4.676-.446 1.753-2.083 2.583-3.474 2.535-1.465-.071-2.553-1.037-2.772-2.46a1 1 0 1 1 1.976-.304c.093.602.537.749.892.766.575.027 1.25-.284 1.44-1.031.355-1.396-.411-2.215-.899-2.579-1.178-.877-2.933-.935-4.267-.137-.991.593-1.617 1.389-1.86 2.364-.335 1.352.113 2.771.645 3.648C40.983 22.069 42.774 23 45 23c3.86 0 7-3.141 7-7 0-3.86-3.14-7-7-7H9c-3.86 0-7 3.14-7 7zm52 0c0 4.963-4.038 9-9 9v23c0 .903.388 2.28.832 2.945.454.682.527 1.421.202 2.029C45.685 53.626 44.943 54 44 54H10c-.944 0-1.686-.374-2.035-1.026-.325-.608-.252-1.347.203-2.029C8.611 50.28 9 48.903 9 48V25c-4.963 0-9-4.037-9-9s4.037-9 9-9h36c4.962 0 9 4.037 9 9zM7.553 4.895A1.001 1.001 0 0 1 7 4V1a1 1 0 0 1 1-1h38a1 1 0 0 1 1 1v3c0 .379-.214.725-.552.895l-2 1a1 1 0 0 1-.895-1.789L45 3.382V2H9v1.382l1.448.724a1 1 0 0 1-.895 1.789l-2-1zM27 27a1 1 0 0 1 1 1v18a1 1 0 1 1-2 0V28a1 1 0 0 1 1-1zm8 0a1 1 0 0 1 1 1v18a1 1 0 1 1-2 0V28a1 1 0 0 1 1-1zm-16 0a1 1 0 0 1 1 1v18a1 1 0 1 1-2 0V28a1 1 0 0 1 1-1z" fill="#FFF" fill-rule="evenodd"/></svg>
<svg width="32" height="39" id="ic-notifications" y="1011"><path d="M16 39c2.21 0 4-1.79 4-4h-8c0 2.21 1.79 4 4 4zm12-12V17c0-6.15-3.27-11.28-9-12.64V3c0-1.66-1.34-3-3-3s-3 1.34-3 3v1.36C7.27 5.72 4 10.85 4 17v10l-4 4v2h32v-2l-4-4z" fill="#C9CED6" fill-rule="evenodd"/></svg>
<svg width="36" height="36" id="ic-profile" y="1070"><path d="M18 0c9.926 0 18 8.077 18 18 0 4.955-2.016 9.452-5.27 12.711-.006.007-.006.017-.012.023-.036.036-.082.06-.118.095a18.374 18.374 0 0 1-2.546 2.091c-.105.072-.216.128-.32.197a18.039 18.039 0 0 1-2.753 1.472c-.112.05-.23.082-.344.128-.978.39-1.996.707-3.05.923-.062.013-.128.016-.19.03A18.17 18.17 0 0 1 18 36c-1.162 0-2.297-.118-3.397-.33-.062-.014-.128-.017-.19-.03a17.763 17.763 0 0 1-3.05-.923c-.115-.046-.232-.078-.344-.128a18.1 18.1 0 0 1-2.752-1.472c-.105-.069-.216-.125-.32-.197A18.374 18.374 0 0 1 5.4 30.83c-.04-.037-.082-.06-.118-.096-.006-.006-.006-.016-.013-.023A17.94 17.94 0 0 1 0 18C0 8.077 8.074 0 18 0zm11.809 26.571c1.72-2.403 2.762-5.327 2.762-8.507 0-8.07-6.539-14.635-14.574-14.635-8.036 0-14.575 6.566-14.568 14.635 0 3.18 1.04 6.104 2.762 8.507a13.711 13.711 0 0 1 6.433-5.727c-1.659-1.49-2.721-3.63-2.721-6.033 0-4.484 3.634-8.13 8.097-8.13 4.463 0 8.097 3.646 8.097 8.13 0 2.404-1.066 4.544-2.72 6.033a13.776 13.776 0 0 1 6.432 5.727z" fill="#C9CED6" fill-rule="evenodd"/></svg>
<svg width="53" height="54" id="ic-restaurants-grey" y="1106"><path d="M5.011 17.849A11.942 11.942 0 0 1 2.764 17l-.422-.211C1.029 16.132 0 14.468 0 13V3a1 1 0 1 1 2 0v10c0 .723.589 1.677 1.236 2l.422.211c.448.225.928.413 1.342.55V3a1 1 0 1 1 2 0v12.76c.414-.136.894-.324 1.342-.549L8.764 15C9.411 14.677 10 13.723 10 13V3a1 1 0 1 1 2 0v10c0 1.468-1.029 3.132-2.342 3.789L9.236 17c-.66.33-1.511.662-2.247.849.007.05.011.1.011.151v9c0 .682.478 3.26.985 5.99C8.883 37.826 10 43.844 10 47c0 4.507-2.365 7-4 7-1.635 0-4-2.493-4-7 0-2.736.835-7.045 1.644-11.212C4.341 32.19 5 28.793 5 27v-9c0-.051.004-.102.011-.151zM27.5 16c-8.028 0-14.559 6.729-14.559 15S19.472 46 27.5 46c8.028 0 14.559-6.729 14.559-15S35.528 16 27.5 16zm0 32C18.402 48 11 40.374 11 31c0-9.374 7.402-17 16.5-17C36.598 14 44 21.626 44 31c0 9.374-7.402 17-16.5 17zm-.05-5c-3.085 0-5.986-1.227-8.168-3.455a.996.996 0 0 1 0-1.39.95.95 0 0 1 1.361 0c1.819 1.857 4.236 2.88 6.806 2.88 5.308 0 9.626-4.41 9.626-9.83a9.909 9.909 0 0 0-3.376-7.475.997.997 0 0 1-.107-1.386.95.95 0 0 1 1.358-.108 11.892 11.892 0 0 1 4.05 8.97C39 37.708 33.819 43 27.45 43zM17 32a1 1 0 0 1-1-1c0-6.617 5.383-12 12-12a1 1 0 1 1 0 2c-5.514 0-10 4.486-10 10a1 1 0 0 1-1 1zM6.082 33.696c-.151.803-.312 1.633-.475 2.473C4.817 40.243 4 44.457 4 47c0 3.438 1.611 4.93 2.023 5.001C6.389 51.93 8 50.438 8 47c0-2.897-1.089-8.834-1.918-13.304zM51 2.762c-1.537 1.41-4 5.23-4 15.238 0 7.805 1.935 11.2 2.547 12.076.442-.05.926-.076 1.453-.076V2.762zM51 32c-2.139 0-2.773.49-2.917.64-.096.1-.101.17-.1.187.059.13.017.032.017.173v6c0 2.221-.3 4.162-.565 5.876C47.211 46.321 47 47.685 47 49c0 2.48 1.631 3 3 3 .944 0 1-1.983 1-2.003V32zm-1 22c-2.417 0-5-1.313-5-5 0-1.468.223-2.907.458-4.429.267-1.723.542-3.504.542-5.57v-5.92c-.042-.312-.045-.97.47-1.63a3.007 3.007 0 0 1 1.054-.835C46.554 28.942 45 25.144 45 18 45 1.625 51.519.08 51.796.022A.998.998 0 0 1 53 1v49c0 1.384-.627 4-3 4z" fill="#C9CED6" fill-rule="evenodd"/></svg>
<svg width="53" height="54" id="ic-restaurants" y="1160"><path d="M5.011 17.849A11.942 11.942 0 0 1 2.764 17l-.422-.211C1.029 16.132 0 14.468 0 13V3a1 1 0 1 1 2 0v10c0 .723.589 1.677 1.236 2l.422.211c.448.225.928.413 1.342.55V3a1 1 0 1 1 2 0v12.76c.414-.136.894-.324 1.342-.549L8.764 15C9.411 14.677 10 13.723 10 13V3a1 1 0 1 1 2 0v10c0 1.468-1.029 3.132-2.342 3.789L9.236 17c-.66.33-1.511.662-2.247.849.007.05.011.1.011.151v9c0 .682.478 3.26.985 5.99C8.883 37.826 10 43.844 10 47c0 4.507-2.365 7-4 7-1.635 0-4-2.493-4-7 0-2.736.835-7.045 1.644-11.212C4.341 32.19 5 28.793 5 27v-9c0-.051.004-.102.011-.151zM27.5 16c-8.028 0-14.559 6.729-14.559 15S19.472 46 27.5 46c8.028 0 14.559-6.729 14.559-15S35.528 16 27.5 16zm0 32C18.402 48 11 40.374 11 31c0-9.374 7.402-17 16.5-17C36.598 14 44 21.626 44 31c0 9.374-7.402 17-16.5 17zm-.05-5c-3.085 0-5.986-1.227-8.168-3.455a.996.996 0 0 1 0-1.39.95.95 0 0 1 1.361 0c1.819 1.857 4.236 2.88 6.806 2.88 5.308 0 9.626-4.41 9.626-9.83a9.909 9.909 0 0 0-3.376-7.475.997.997 0 0 1-.107-1.386.95.95 0 0 1 1.358-.108 11.892 11.892 0 0 1 4.05 8.97C39 37.708 33.819 43 27.45 43zM17 32a1 1 0 0 1-1-1c0-6.617 5.383-12 12-12a1 1 0 1 1 0 2c-5.514 0-10 4.486-10 10a1 1 0 0 1-1 1zM6.082 33.696c-.151.803-.312 1.633-.475 2.473C4.817 40.243 4 44.457 4 47c0 3.438 1.611 4.93 2.023 5.001C6.389 51.93 8 50.438 8 47c0-2.897-1.089-8.834-1.918-13.304zM51 2.762c-1.537 1.41-4 5.23-4 15.238 0 7.805 1.935 11.2 2.547 12.076.442-.05.926-.076 1.453-.076V2.762zM51 32c-2.139 0-2.773.49-2.917.64-.096.1-.101.17-.1.187.059.13.017.032.017.173v6c0 2.221-.3 4.162-.565 5.876C47.211 46.321 47 47.685 47 49c0 2.48 1.631 3 3 3 .944 0 1-1.983 1-2.003V32zm-1 22c-2.417 0-5-1.313-5-5 0-1.468.223-2.907.458-4.429.267-1.723.542-3.504.542-5.57v-5.92c-.042-.312-.045-.97.47-1.63a3.007 3.007 0 0 1 1.054-.835C46.554 28.942 45 25.144 45 18 45 1.625 51.519.08 51.796.022A.998.998 0 0 1 53 1v49c0 1.384-.627 4-3 4z" fill="#FFF" fill-rule="evenodd"/></svg>
<svg width="17" height="24" id="ic-search-location" y="1214"><path d="M13.714 15.431a.4.4 0 0 0-.546.149c-1.804 3.162-3.964 6.225-4.768 7.34C6.916 20.86.8 12.142.8 8.4.8 4.21 4.21.8 8.4.8 12.59.8 16 4.21 16 8.4c0 .978-.434 2.404-1.292 4.238a.4.4 0 0 0 .725.34C16.34 11.035 16.8 9.496 16.8 8.4c0-4.632-3.768-8.4-8.4-8.4C3.768 0 0 3.768 0 8.4c0 4.5 7.75 14.994 8.08 15.438a.398.398 0 0 0 .642 0c.028-.038 2.864-3.87 5.142-7.861a.401.401 0 0 0-.15-.546zm-1.936-4.217A4.38 4.38 0 0 0 12.8 8.4c0-2.426-1.974-4.4-4.4-4.4A4.405 4.405 0 0 0 4 8.4c0 2.426 1.974 4.4 4.4 4.4a4.38 4.38 0 0 0 2.813-1.02l4.104 4.103a.402.402 0 0 0 .565 0 .4.4 0 0 0 0-.565l-4.104-4.104zM8.4 12a3.604 3.604 0 0 1-3.6-3.6c0-1.985 1.615-3.6 3.6-3.6S12 6.415 12 8.4 10.385 12 8.4 12z" fill="#FFF"/></svg>
<svg width="24" height="24" id="ic-search" y="1238"><path d="M23.834 21.949l-7.036-7.037a9.272 9.272 0 0 0 1.869-5.579C18.667 4.187 14.48 0 9.333 0 4.187 0 0 4.187 0 9.333c0 5.147 4.187 9.334 9.333 9.334 2.093 0 4.02-.701 5.58-1.87l7.036 7.037 1.885-1.885zM.89 9.333C.889 4.677 4.677.89 9.333.89c4.657 0 8.445 3.788 8.445 8.444 0 4.657-3.788 8.445-8.445 8.445C4.677 17.778.89 13.99.89 9.333zm14.919 6.708c.079-.076.156-.154.233-.233.065-.067.135-.129.198-.198l6.338 6.339-.629.629-6.338-6.34c.07-.062.13-.132.198-.197z" fill="#9F9F9F" fill-rule="evenodd"/></svg>
<svg width="49" height="49" id="ic-shopping-grey" y="1282"><path d="M41.972 41H7.028C6.46 41 6 40.552 6 40s.46-1 1.028-1h34.944c.568 0 1.028.448 1.028 1s-.46 1-1.028 1zm-4.008-21c-.571 0-1.035-.448-1.035-1V7c0-2.756-2.322-5-5.179-5h-14.5c-2.857 0-5.179 2.244-5.179 5v12c0 .552-.464 1-1.035 1-.572 0-1.036-.448-1.036-1V7c0-3.86 3.252-7 7.25-7h14.5C35.748 0 39 3.14 39 7v12c0 .552-.464 1-1.036 1zM33 14H15a1 1 0 0 1 0-2h18a1 1 0 0 1 0 2zm14.98 35H1.02c-.3 0-.588-.134-.782-.368a1.015 1.015 0 0 1-.222-.839L6.142 12.85a1.017 1.017 0 0 1 1.182-.832c.553.098.925.63.827 1.19L2.238 46.945h44.527L40.85 13.208a1.027 1.027 0 0 1 .827-1.19c.541-.105 1.082.27 1.182.832l6.125 34.943A1.028 1.028 0 0 1 47.98 49z" fill="#C9CED6" fill-rule="evenodd"/></svg>
<svg width="49" height="49" id="ic-shopping" y="1331"><path d="M41.972 41H7.028C6.46 41 6 40.552 6 40s.46-1 1.028-1h34.944c.568 0 1.028.448 1.028 1s-.46 1-1.028 1zm-4.008-21c-.571 0-1.035-.448-1.035-1V7c0-2.756-2.322-5-5.179-5h-14.5c-2.857 0-5.179 2.244-5.179 5v12c0 .552-.464 1-1.035 1-.572 0-1.036-.448-1.036-1V7c0-3.86 3.252-7 7.25-7h14.5C35.748 0 39 3.14 39 7v12c0 .552-.464 1-1.036 1zM33 14H15a1 1 0 0 1 0-2h18a1 1 0 0 1 0 2zm14.98 35H1.02c-.3 0-.588-.134-.782-.368a1.015 1.015 0 0 1-.222-.839L6.142 12.85a1.017 1.017 0 0 1 1.182-.832c.553.098.925.63.827 1.19L2.238 46.945h44.527L40.85 13.208a1.027 1.027 0 0 1 .827-1.19c.541-.105 1.082.27 1.182.832l6.125 34.943A1.028 1.028 0 0 1 47.98 49z" fill="#FFF" fill-rule="evenodd"/></svg>
<svg width="17" height="16" id="ic-star-complete" y="1380"><path d="M17.196 6.049a.37.37 0 0 0-.301-.244l-5.353-.698L9.047.185c-.125-.247-.538-.247-.662 0L5.89 5.107l-5.353.698a.37.37 0 0 0-.302.244.36.36 0 0 0 .09.374l3.925 3.862-1.07 5.264a.362.362 0 0 0 .138.36.375.375 0 0 0 .39.037l5.008-2.464 5.009 2.464a.378.378 0 0 0 .39-.037.363.363 0 0 0 .138-.36l-1.07-5.264 3.926-3.862a.364.364 0 0 0 .087-.374z"/></svg>
<svg width="17" height="16" id="ic-star-empty" y="1396"><path d="M16.561 6.049a.357.357 0 0 0-.289-.244l-5.13-.698L8.753.185c-.12-.247-.516-.247-.635 0L5.725 5.107l-5.13.698a.36.36 0 0 0-.288.244.37.37 0 0 0 .085.374l3.762 3.862-1.025 5.264a.37.37 0 0 0 .132.36.347.347 0 0 0 .373.037l4.8-2.464 4.8 2.464a.343.343 0 0 0 .373-.036.37.37 0 0 0 .132-.361l-1.025-5.264 3.762-3.862a.37.37 0 0 0 .085-.374zm-4.481 3.86a.371.371 0 0 0-.097.328l.92 4.726-4.31-2.213a.352.352 0 0 0-.318 0l-4.31 2.213.92-4.726a.37.37 0 0 0-.097-.328L1.4 6.429l4.605-.627a.355.355 0 0 0 .27-.197l2.159-4.443 2.158 4.443a.355.355 0 0 0 .27.197l4.606.627-3.388 3.48z"/></svg>


</svg>