<?xml version="1.0" encoding="UTF-8"?>
<svg width="51px" height="30px" viewBox="0 0 51 30" version="1.1" xmlns="http://www.w3.org/2000/svg" xmlns:xlink="http://www.w3.org/1999/xlink">
    <!-- Generator: sketchtool 55.2 (78181) - https://sketchapp.com -->
    <title>987ECDE2-A1D5-4765-BE39-F9EBA75911E8</title>
    <desc>Created with sketchtool.</desc>
    <g id="02-Venue-Profile" stroke="none" stroke-width="1" fill="none" fill-rule="evenodd">
        <g id="D_03B5.1_Venue-Profile---Settings-Edit" transform="translate(-983.000000, -1384.000000)">
            <g id="Group-3-Copy" transform="translate(924.000000, 1384.000000)">
                <g id="MasterCard-light-Copy" transform="translate(59.000000, 0.000000)">
                    <rect id="Rectangle" stroke="#E0E0E0" stroke-width="0.5" fill="#FFFFFF" x="0.25" y="0.25" width="49.8703704" height="29.5" rx="4"></rect>
                    <path d="M28.2721942,15.2427011 C28.2721942,20.6318289 23.8715109,25 18.442619,25 C13.0135717,25 8.61257778,20.6318289 8.61257778,15.2427011 C8.61257778,9.85372747 13.0135717,5.48509375 18.442619,5.48509375 C23.8715109,5.48509375 28.2721942,9.85372747 28.2721942,15.2427011" id="Fill-333" fill="#CC0000"></path>
                    <path d="M31.6396979,5.48509375 C29.099235,5.48509375 26.7852607,6.44159493 25.0404594,8.0107318 C24.685503,8.33054213 24.3541585,8.67594962 24.0482901,9.04371607 L26.0343375,9.04371607 C26.3055646,9.37154478 26.5555099,9.71618127 26.7837073,10.0771629 L23.298765,10.0771629 C23.0902961,10.4088466 22.9007788,10.7534831 22.7323881,11.1106098 L27.3497735,11.1106098 C27.5076009,11.4450691 27.6464767,11.7895514 27.76609,12.1435941 L22.3160716,12.1435941 C22.2026719,12.480058 22.1069813,12.8248487 22.030553,13.1764241 L28.0512979,13.1764241 C28.1954553,13.8425672 28.2721942,14.5336905 28.2721942,15.2427011 C28.2721942,16.3259545 28.0943277,17.3686533 27.76609,18.3424249 L22.3160716,18.3424249 C22.4356849,18.6961592 22.5745607,19.041104 22.7320774,19.3760259 L27.3497735,19.3760259 C27.1810721,19.7322274 26.9924869,20.0771723 26.7827752,20.4093186 L23.298765,20.4093186 C23.5260304,20.7692209 23.7764416,21.11432 24.0482901,21.4416861 L26.0337161,21.4416861 C25.7284691,21.8097609 25.396814,22.1551684 25.0407701,22.4749787 C26.785416,24.0441156 29.099235,25 31.6396979,25 C37.0684345,25 41.4692731,20.6318289 41.4692731,15.2427011 C41.4692731,9.85419007 37.0684345,5.48509375 31.6396979,5.48509375" id="Fill-334" fill="#FF9900"></path>
                    <path d="M16.1471304,16.3109971 C16.0351288,16.2983527 15.9857301,16.2943435 15.9088358,16.2943435 C15.3039341,16.2943435 14.9980657,16.5003544 14.9980657,16.9072876 C14.9980657,17.1578622 15.1473493,17.3171506 15.3803623,17.3171506 C15.8151646,17.3171506 16.1284894,16.9063624 16.1471304,16.3109971 L16.1471304,16.3109971 Z M16.9233743,18.1044946 L16.038857,18.1044946 L16.0592068,17.6873842 C15.7895331,18.016755 15.4296057,18.1740387 14.9407445,18.1740387 C14.3625616,18.1740387 13.9659735,17.7259342 13.9659735,17.0747486 C13.9659735,16.0945006 14.6555366,15.5228821 15.8393979,15.5228821 C15.96072,15.5228821 16.1157513,15.5339844 16.2745108,15.5538762 C16.3074433,15.420956 16.3161425,15.3645189 16.3161425,15.292816 C16.3161425,15.0263588 16.1303535,14.9264373 15.631861,14.9264373 C15.1097566,14.9211946 14.6791486,15.0502598 14.5022141,15.1079305 C14.5133987,15.0410078 14.650255,14.2026236 14.650255,14.2026236 C15.1818353,14.0474986 15.5325975,13.9895195 15.9273215,13.9895195 C16.8438392,13.9895195 17.329283,14.3978405 17.3281956,15.1697646 C17.3300597,15.3768549 17.2954184,15.6314387 17.2418254,15.9672858 C17.1492416,16.5501609 16.9504038,17.8002585 16.9233743,18.1044946 L16.9233743,18.1044946 Z" id="Fill-336" fill="#000066"></path>
                    <polyline id="Fill-337" fill="#000066" points="13.5193653 18.1044946 12.4520104 18.1044946 13.0637472 14.3000779 11.6984464 18.1044946 10.9712906 18.1044946 10.8813476 14.3213574 10.2388531 18.1044946 9.24000408 18.1044946 10.0743459 13.1551446 11.6089695 13.1551446 11.7017086 15.9254977 12.6379548 13.1551446 14.3446973 13.1551446 13.5193653 18.1044946"></polyline>
                    <path d="M32.9582408,16.3109971 C32.8462392,16.2983527 32.7974618,16.2943435 32.7207229,16.2943435 C32.1153551,16.2943435 31.8097974,16.5003544 31.8097974,16.9072876 C31.8097974,17.1578622 31.9584597,17.3171506 32.1920941,17.3171506 C32.6265856,17.3171506 32.9400657,16.9063624 32.9582408,16.3109971 L32.9582408,16.3109971 Z M33.7349507,18.1044946 L32.8507441,18.1044946 L32.8707832,17.6873842 C32.6011095,18.016755 32.2413375,18.1740387 31.7527869,18.1740387 C31.1738273,18.1740387 30.7777052,17.7259342 30.7777052,17.0747486 C30.7777052,16.0945006 31.467579,15.5228821 32.6511296,15.5228821 C32.7722964,15.5228821 32.927017,15.5339844 33.0859319,15.5538762 C33.1190197,15.420956 33.1275635,15.3645189 33.1275635,15.292816 C33.1275635,15.0263588 32.9417745,14.9264373 32.4432821,14.9264373 C31.9211776,14.9211946 31.490725,15.0502598 31.3131691,15.1079305 C31.3249751,15.0410078 31.462142,14.2026236 31.462142,14.2026236 C31.9934116,14.0474986 32.3444845,13.9895195 32.7385872,13.9895195 C33.6557263,13.9895195 34.1405487,14.3978405 34.1396166,15.1697646 C34.1414807,15.3768549 34.1071501,15.6314387 34.0532465,15.9672858 C33.9609733,16.5501609 33.7616695,17.8002585 33.7349507,18.1044946 L33.7349507,18.1044946 Z" id="Fill-338" fill="#000066"></path>
                    <path d="M21.6659653,18.0432773 C21.3737671,18.1345636 21.146191,18.1740387 20.8991973,18.1740387 C20.3537915,18.1740387 20.0560009,17.8628636 20.0560009,17.289703 C20.0483892,17.1117565 20.1344487,16.6437602 20.2021778,16.2169352 C20.2640039,15.840842 20.6650969,13.4701747 20.6650969,13.4701747 L21.7256167,13.4701747 L21.6018091,14.079418 L22.2425948,14.079418 L22.0979714,15.0468674 L21.4550109,15.0468674 C21.3318247,15.8121608 21.1561329,16.7657322 21.1541135,16.892176 C21.1541135,17.0997289 21.265649,17.1903984 21.5196332,17.1903984 C21.641266,17.1903984 21.7354032,17.1780624 21.8073266,17.1524652 L21.6659653,18.0432773" id="Fill-339" fill="#000066"></path>
                    <path d="M24.9182053,18.0107412 C24.553773,18.1213024 24.2025447,18.1752723 23.8298793,18.1740387 C22.6422898,18.1724967 22.0232519,17.5572396 22.0232519,16.3783824 C22.0232519,15.002612 22.8106805,13.9895195 23.8798994,13.9895195 C24.7543195,13.9895195 25.3130846,14.5566663 25.3130846,15.4457822 C25.3130846,15.7413831 25.2748705,16.0294283 25.1821313,16.4358989 L23.0697909,16.4358989 C22.998489,17.0198534 23.3747273,17.2630265 23.9922117,17.2630265 C24.3714015,17.2630265 24.7140859,17.1853098 25.0948291,17.0099847 L24.9182053,18.0107412 L24.9182053,18.0107412 Z M24.3220027,15.6246539 C24.3280611,15.540615 24.434315,14.906083 23.8280152,14.906083 C23.4906124,14.906083 23.2487449,15.1617462 23.1507241,15.6246539 L24.3220027,15.6246539 L24.3220027,15.6246539 Z" id="Fill-340" fill="#000066"></path>
                    <path d="M17.5633833,15.3520287 C17.5633833,15.8607338 17.8119305,16.2118466 18.375822,16.4756824 C18.807828,16.6775299 18.8750911,16.7372053 18.8750911,16.919932 C18.8750911,17.1705066 18.6843312,17.284306 18.262267,17.284306 C17.9436605,17.284306 17.6475787,17.2346537 17.3059817,17.1250177 C17.3059817,17.1250177 17.1660185,18.0125916 17.1593388,18.0549965 C17.4018277,18.107116 17.6180637,18.155689 18.2698787,18.1740387 C19.3957975,18.1740387 19.9158825,17.7484474 19.9158825,16.8286457 C19.9158825,16.2756853 19.6984037,15.9510948 19.1637165,15.7068424 C18.7164869,15.5031445 18.6647581,15.4575014 18.6647581,15.269686 C18.6647581,15.0521102 18.842314,14.9409321 19.1870178,14.9409321 C19.3965742,14.9409321 19.6825588,14.9631369 19.9539413,15.0012242 L20.1057104,14.0676988 C19.8295123,14.0240603 19.4103996,13.9895195 19.1665127,13.9895195 C17.9728648,13.9895195 17.5594998,14.6083232 17.5633833,15.3520287" id="Fill-341" fill="#000066"></path>
                    <path d="M30.1083366,14.0957632 C30.4047291,14.0957632 30.6815485,14.1722463 31.0619811,14.3629914 L31.2367408,13.2888358 C31.0798454,13.2277727 30.5297794,12.869875 30.0637534,12.869875 C29.3498016,12.869875 28.7455213,13.2220673 28.3212823,13.8020126 C27.7017784,13.5984689 27.4468622,14.0098739 27.1349355,14.4200453 L26.8576501,14.4841924 C26.8786212,14.3492676 26.8977283,14.215268 26.89167,14.079418 L25.9111513,14.079418 C25.7775572,15.3255064 25.54035,16.5871689 25.3547163,17.8337198 L25.3060942,18.1044946 L26.3737598,18.1044946 C26.551937,16.9550895 26.6493364,16.2194024 26.7086771,15.7210288 L27.1107022,15.4999063 C27.1711302,15.2777044 27.358628,15.2030717 27.7357983,15.2121695 C27.6865549,15.4746175 27.6598361,15.7510977 27.6598361,16.0371383 C27.6598361,17.3541585 28.3765841,18.1740387 29.5248721,18.1740387 C29.8207985,18.1740387 30.074938,18.1354888 30.4684193,18.0290909 L30.6554511,16.9012738 C30.301582,17.0738234 30.0118692,17.1550866 29.7491859,17.1550866 C29.12875,17.1550866 28.7532884,16.7003515 28.7532884,15.9492444 C28.7532884,14.8592062 29.3112768,14.0957632 30.1083366,14.0957632" id="Fill-342" fill="#000066"></path>
                    <path d="M39.1433375,13.1551446 L38.9061303,14.585039 C38.614864,14.2040114 38.3013839,13.9279938 37.8875528,13.9279938 C37.3491375,13.9279938 36.8590335,14.3332308 36.538097,14.9299839 C36.091178,14.8379267 35.6293463,14.6814139 35.6293463,14.6814139 L35.6290356,14.6852689 C35.6646089,14.3517348 35.6796771,14.1488079 35.6761042,14.079418 L34.6957409,14.079418 C34.5626128,15.3255064 34.3250949,16.5871689 34.1396166,17.8337198 L34.0905285,18.1044946 L35.1585047,18.1044946 C35.3026621,17.1755952 35.4127996,16.4033628 35.4940434,15.7918065 C35.8590971,15.4642861 36.0417793,15.1794792 36.4097845,15.1979831 C36.24652,15.589959 36.1512954,16.0411475 36.1512954,16.5040552 C36.1512954,17.5099003 36.6636133,18.1740387 37.4397019,18.1740387 C37.830853,18.1740387 38.1309737,18.0400391 38.4236381,17.7297892 L38.3733072,18.1041862 L39.3830302,18.1041862 L40.1959348,13.1551446 L39.1433375,13.1551446 L39.1433375,13.1551446 Z M37.8087944,17.17467 C37.4456049,17.17467 37.26168,16.9072876 37.26168,16.381158 C37.26168,15.589959 37.6054518,15.0291344 38.0893421,15.0291344 C38.4561045,15.0291344 38.6549423,15.3060772 38.6549423,15.8174036 C38.6549423,16.6153874 38.3054228,17.17467 37.8087944,17.17467 L37.8087944,17.17467 Z" id="Fill-343" fill="#000066"></path>
                    <polyline id="Fill-344" fill="#FFFFFF" points="13.826321 17.8107441 12.7592769 17.8107441 13.3708583 14.0063273 12.0058682 17.8107441 11.2784017 17.8107441 11.188614 14.0283779 10.5459642 17.8107441 9.5471152 17.8107441 10.381457 12.8618566 11.9160806 12.8618566 11.958955 15.9254977 12.9944647 12.8618566 14.6518084 12.8618566 13.826321 17.8107441"></polyline>
                    <path d="M16.4542415,16.0178633 C16.3423953,16.0049105 16.2929965,16.0013639 16.2161022,16.0013639 C15.6112005,16.0013639 15.3051768,16.2070664 15.3051768,16.6136912 C15.3051768,16.8639575 15.4546158,17.024171 15.6877841,17.024171 C16.122431,17.024171 16.4357558,16.6133828 16.4542415,16.0178633 L16.4542415,16.0178633 Z M17.2303301,17.8107441 L16.3462788,17.8107441 L16.3664733,17.3939421 C16.0967996,17.7231586 15.7368722,17.8805966 15.248011,17.8805966 C14.6696727,17.8805966 14.27324,17.4318752 14.27324,16.7808438 C14.27324,15.8004416 14.9629584,15.2295941 16.1468197,15.2295941 C16.2678311,15.2295941 16.4228624,15.2405423 16.5817773,15.2608966 C16.6147098,15.127668 16.623409,15.0710767 16.623409,14.9990654 C16.623409,14.7327624 16.4376199,14.633612 15.9391275,14.633612 C15.4168677,14.627444 14.986415,14.7565092 14.8093252,14.8140257 C14.8206651,14.7474114 14.9573661,13.9090273 14.9573661,13.9090273 C15.4891017,13.7542107 15.8398639,13.695769 16.2345879,13.695769 C17.1509504,13.695769 17.6362387,14.1045526 17.635462,14.8761682 C17.6371708,15.0829501 17.6028402,15.3387675 17.5490919,15.6736894 C17.4563527,16.256102 17.257515,17.5069705 17.2303301,17.8107441 L17.2303301,17.8107441 Z" id="Fill-345" fill="#FFFFFF"></path>
                    <path d="M31.5436966,12.9950852 L31.3689368,14.0690866 C30.9878829,13.8789583 30.7118402,13.8020126 30.4157584,13.8020126 C29.6190093,13.8020126 29.0600888,14.5663809 29.0600888,15.6565733 C29.0600888,16.4076803 29.4357058,16.8614903 30.0561417,16.8614903 C30.3189803,16.8614903 30.6093145,16.7808438 30.9624068,16.6076774 L30.7749091,17.7354946 C30.3820492,17.8417382 30.1277543,17.8805966 29.8319832,17.8805966 C28.6829185,17.8805966 27.9672579,17.0605622 27.9672579,15.7438503 C27.9672579,13.9745622 28.956631,12.7380342 30.3708645,12.7380342 C30.8368905,12.7380342 31.3872672,12.9340221 31.5436966,12.9950852" id="Fill-346" fill="#FFFFFF"></path>
                    <path d="M33.2651965,16.0178633 C33.1539717,16.0049105 33.1044176,16.0013639 33.0276786,16.0013639 C32.4230876,16.0013639 32.1169085,16.2070664 32.1169085,16.6136912 C32.1169085,16.8639575 32.2661922,17.024171 32.4992052,17.024171 C32.9336967,17.024171 33.2473322,16.6133828 33.2651965,16.0178633 L33.2651965,16.0178633 Z M34.0419065,17.8107441 L33.1578552,17.8107441 L33.1778943,17.3939421 C32.9082206,17.7231586 32.5482932,17.8805966 32.059898,17.8805966 C31.4809384,17.8805966 31.0849717,17.4318752 31.0849717,16.7808438 C31.0849717,15.8004416 31.7740688,15.2295941 32.9582408,15.2295941 C33.0792522,15.2295941 33.2339728,15.2405423 33.3927323,15.2608966 C33.4258202,15.127668 33.4345193,15.0710767 33.4345193,14.9990654 C33.4345193,14.7327624 33.2491963,14.633612 32.7503932,14.633612 C32.2285994,14.627444 31.7983021,14.7565092 31.6209015,14.8140257 C31.6320862,14.7474114 31.7689425,13.9090273 31.7689425,13.9090273 C32.3006781,13.7542107 32.6511296,13.695769 33.0458536,13.695769 C33.962216,13.695769 34.4479705,14.1045526 34.4467277,14.8761682 C34.4489025,15.0829501 34.4142612,15.3387675 34.3605129,15.6736894 C34.2680844,16.256102 34.0692467,17.5069705 34.0419065,17.8107441 L34.0419065,17.8107441 Z" id="Fill-347" fill="#FFFFFF"></path>
                    <path d="M21.9729211,17.749681 C21.6810335,17.8409672 21.4531468,17.8805966 21.2064637,17.8805966 C20.6609027,17.8805966 20.3629567,17.5692672 20.3629567,16.9967235 C20.3555003,16.8181601 20.4417151,16.3509348 20.5095996,15.9236473 C20.5709596,15.5472456 20.972208,13.1768867 20.972208,13.1768867 L22.0330385,13.1768867 L21.9089202,13.7859758 L22.4535492,13.7859758 L22.3084598,14.7531168 L21.762122,14.7531168 C21.6389358,15.5191813 21.463244,16.4721359 21.4610693,16.5985797 C21.4610693,16.8067494 21.5730708,16.896802 21.8267443,16.896802 C21.9483771,16.896802 22.042359,16.8849286 22.114593,16.8587147 L21.9729211,17.749681" id="Fill-348" fill="#FFFFFF"></path>
                    <path d="M25.2257824,17.7177616 C24.8611948,17.8286312 24.5091898,17.880905 24.1369904,17.8805966 C22.9492455,17.8798256 22.3306737,17.2637975 22.3306737,16.0850944 C22.3306737,14.7088615 23.1179469,13.695769 24.1863892,13.695769 C25.0617413,13.695769 25.6201957,14.2629157 25.6201957,15.153111 C25.6201957,15.4480952 25.5813603,15.7359861 25.4897085,16.1426109 L23.3770574,16.1426109 C23.3054447,16.7265655 23.6821491,16.9702011 24.2990121,16.9702011 C24.6785126,16.9702011 25.0210417,16.892176 25.4022509,16.7163883 L25.2257824,17.7177616 L25.2257824,17.7177616 Z M24.6294245,15.3309033 C24.6351722,15.2467103 24.7418921,14.6124866 24.1357477,14.6124866 C23.7980342,14.6124866 23.5561667,14.8686124 23.4578352,15.3309033 L24.6294245,15.3309033 L24.6294245,15.3309033 Z" id="Fill-349" fill="#FFFFFF"></path>
                    <path d="M17.8703391,15.0582781 C17.8703391,15.5679084 18.119197,15.9182503 18.6832438,16.1823945 C19.1152498,16.3840878 19.1822022,16.4437631 19.1822022,16.626644 C19.1822022,16.877527 18.9915976,16.9907097 18.5692227,16.9907097 C18.250927,16.9907097 17.9546898,16.9416742 17.6129374,16.8323465 C17.6129374,16.8323465 17.4731296,17.7193036 17.4666053,17.7610917 C17.7089388,17.8138281 17.9253302,17.8619384 18.5768345,17.8805966 C19.7030639,17.8805966 20.2231489,17.4551594 20.2231489,16.5353578 C20.2231489,15.982089 20.0053595,15.6576527 19.4708277,15.414017 C19.0234427,15.2097023 18.9720245,15.1645218 18.9720245,14.9763981 C18.9720245,14.7588222 19.1494251,14.6468732 19.4944396,14.6468732 C19.70353,14.6468732 19.9898253,14.6700031 20.2610524,14.7079363 L20.4129768,13.7745651 C20.1366234,13.7312349 19.7178214,13.695769 19.4737792,13.695769 C18.2798206,13.695769 17.8667663,14.3147269 17.8703391,15.0582781" id="Fill-350" fill="#FFFFFF"></path>
                    <path d="M39.6901413,17.8107441 L38.680729,17.8107441 L38.7307492,17.4361928 C38.4379295,17.746597 38.1379641,17.8805966 37.746813,17.8805966 C36.9713458,17.8805966 36.4582512,17.2172291 36.4582512,16.2103046 C36.4582512,14.8715422 37.2537575,13.7431083 38.194664,13.7431083 C38.608495,13.7431083 38.9218198,13.9108776 39.2137074,14.2920595 L39.4504486,12.8618566 L40.5028906,12.8618566 L39.6901413,17.8107441 L39.6901413,17.8107441 Z M38.1157502,16.8807652 C38.6129999,16.8807652 38.9618981,16.3217911 38.9618981,15.5245783 C38.9618981,15.0130976 38.7632156,14.7352296 38.3964532,14.7352296 C37.9124076,14.7352296 37.5687911,15.2962084 37.5687911,16.0877158 C37.5687911,16.6144622 37.7528713,16.8807652 38.1157502,16.8807652 L38.1157502,16.8807652 Z" id="Fill-351" fill="#FFFFFF"></path>
                    <path d="M35.0031627,13.7859758 C34.869724,15.0317558 34.6323614,16.2934183 34.4467277,17.5401235 L34.3981057,17.8107441 L35.4654605,17.8107441 C35.8472911,15.3494073 35.9390982,14.869075 36.538097,14.9290587 C36.6333216,14.4252881 36.8108775,13.9841225 36.9430735,13.7617665 C36.4961546,13.6692466 36.24652,13.9199754 35.9193698,14.3964527 C35.9454673,14.1902876 35.9925359,13.9902905 35.9836814,13.7859758 L35.0031627,13.7859758" id="Fill-352" fill="#FFFFFF"></path>
                    <path d="M26.2187284,13.7859758 C26.0846683,15.0317558 25.8469951,16.2934183 25.6616721,17.5401235 L25.6132054,17.8107441 L26.6808709,17.8107441 C27.0628568,15.3494073 27.1543533,14.869075 27.7524199,14.9290587 C27.8482659,14.4252881 28.0261325,13.9841225 28.1580179,13.7617665 C27.711565,13.6692466 27.4614644,13.9199754 27.1349355,14.3964527 C27.1607223,14.1902876 27.2081016,13.9902905 27.1987811,13.7859758 L26.2187284,13.7859758" id="Fill-353" fill="#FFFFFF"></path>
                </g>
            </g>
        </g>
    </g>
</svg>