<?xml version="1.0" encoding="UTF-8"?>
<svg width="51px" height="30px" viewBox="0 0 51 30" version="1.1" xmlns="http://www.w3.org/2000/svg" xmlns:xlink="http://www.w3.org/1999/xlink">
    <!-- Generator: sketchtool 55.2 (78181) - https://sketchapp.com -->
    <title>56F7B428-0C29-45E4-8465-8D968875D8E0</title>
    <desc>Created with sketchtool.</desc>
    <g id="02-Venue-Profile" stroke="none" stroke-width="1" fill="none" fill-rule="evenodd">
        <g id="D_03B5.1_Venue-Profile---Settings-Edit" transform="translate(-924.000000, -1384.000000)">
            <g id="Group-3-Copy" transform="translate(924.000000, 1384.000000)">
                <g id="Visa-light-Copy">
                    <rect id="Rectangle" stroke="#E0E0E0" stroke-width="0.5" fill="#FFFFFF" x="0.25" y="0.25" width="49.8703704" height="29.5" rx="4"></rect>
                    <polyline id="Fill-1" fill="#26337A" points="20.898662 19.7733803 22.4474186 10.236338 24.9230503 10.236338 23.3744354 19.7733803 20.898662 19.7733803"></polyline>
                    <path d="M32.354335,10.4704225 C31.8648441,10.2790141 31.0949968,10.0702817 30.1359798,10.0702817 C27.6883837,10.0702817 25.9654663,11.364507 25.9511653,13.2177465 C25.93559,14.5885915 27.1806271,15.3530986 28.1192546,15.8087324 C29.0839354,16.2757746 29.4080444,16.5746479 29.4042213,16.9922535 C29.3975664,17.6309859 28.6342325,17.923662 27.9224388,17.923662 C26.9312799,17.923662 26.4046913,17.7795775 25.5905251,17.4235211 L25.2720799,17.2716901 L24.9258822,19.4064789 C25.5031615,19.6721127 26.5733299,19.9026761 27.6839943,19.9147887 C30.28522,19.9147887 31.9754291,18.6361972 31.9952523,16.6571831 C32.0041727,15.5701408 31.3444857,14.7461972 29.9158009,14.0659155 C29.0506608,13.623662 28.5196828,13.3307042 28.5257714,12.8830986 C28.5263377,12.4867606 28.9743416,12.0623944 29.9439782,12.0623944 C30.753755,12.0494366 31.3399547,12.2350704 31.7967373,12.4288732 L32.0190401,12.5378873 L32.354335,10.4704225" id="Fill-2" fill="#26337A"></path>
                    <path d="M35.6507879,16.3921127 C35.8559578,15.8439437 36.636991,13.726338 36.636991,13.726338 C36.6225484,13.7515493 36.8410282,13.1739437 36.9660558,12.8164789 L37.1331368,13.6390141 C37.1331368,13.6390141 37.6081852,15.9153521 37.7060267,16.3921127 L35.6507879,16.3921127 L35.6507879,16.3921127 Z M38.7049733,10.2460563 L36.7917534,10.2460563 C36.1983324,10.2460563 35.7541516,10.4147887 35.4941848,11.0366197 L31.8176933,19.7767606 L34.4179278,19.7767606 C34.4179278,19.7767606 34.8421438,18.6009859 34.9384279,18.3429577 C35.2220409,18.3429577 37.7486465,18.3478873 38.1092868,18.3478873 C38.1834821,18.6807042 38.4107407,19.7767606 38.4107407,19.7767606 L40.7085302,19.7767606 L38.7049733,10.2460563 L38.7049733,10.2460563 Z" id="Fill-3" fill="#26337A"></path>
                    <path d="M18.8217593,10.2443662 L16.398659,16.746338 L16.139117,15.4246479 C15.6875733,13.901831 14.2819684,12.2512676 12.7097072,11.4242254 L14.9265049,19.7650704 L17.5465626,19.7635211 L21.4452154,10.2443662 L18.8217593,10.2443662" id="Fill-4" fill="#26337A"></path>
                    <path d="M14.1492947,10.2378873 L10.1570482,10.2378873 L10.1241984,10.435493 C13.230632,11.225493 15.2860124,13.1323944 16.139117,15.4246479 L15.2715698,11.0425352 C15.1219048,10.438169 14.6869276,10.2590141 14.1492947,10.2378873" id="Fill-5" fill="#EC982D"></path>
                </g>
            </g>
        </g>
    </g>
</svg>