<svg xmlns="http://www.w3.org/2000/svg" width="38" height="38"><path fill="#FFF" d="M19 38C8.523 38 0 29.477 0 19S8.523 0 19 0s19 8.523 19 19-8.523 19-19 19zm0-36.349C9.435 1.651 1.651 9.435 1.651 19c0 9.565 7.784 17.349 17.349 17.349 9.565 0 17.349-7.784 17.349-17.349 0-9.565-7.784-17.349-17.349-17.349zM22.144 30a.867.867 0 0 1-.607-.247L11.251 19.598a.84.84 0 0 1 0-1.196L21.537 8.248a.866.866 0 0 1 1.212 0 .84.84 0 0 1 0 1.196l-9.68 9.555 9.68 9.556a.84.84 0 0 1 0 1.196.857.857 0 0 1-.605.249z"/></svg>