<svg xmlns="http://www.w3.org/2000/svg" width="19" height="19"><path d="M9.5 16.38a.328.328 0 1 0 0 .655.328.328 0 0 0 0-.656zm0-13.76a.328.328 0 1 0 0-.655.328.328 0 0 0 0 .656zM2.293 9.173a.328.328 0 1 0 0 .656.328.328 0 0 0 0-.656zm14.414 0a.328.328 0 1 0 0 .656.328.328 0 0 0 0-.656zM9.5 7.862c-.253 0-.49.062-.704.165-.006-.011-.008-.023-.016-.034l-.983-1.31a.328.328 0 0 0-.525.393l.983 1.31c.009.011.021.015.03.025a1.64 1.64 0 0 0-.39.761H4.259a.328.328 0 0 0 0 .656h3.636a1.64 1.64 0 0 0 1.605 1.31A1.64 1.64 0 0 0 11.138 9.5 1.64 1.64 0 0 0 9.5 7.862zm0 2.62a.984.984 0 0 1 0-1.965.984.984 0 0 1 0 1.966zM9.5 0C4.262 0 0 4.262 0 9.5S4.262 19 9.5 19 19 14.738 19 9.5 14.738 0 9.5 0zm0 18.345C4.623 18.345.655 14.377.655 9.5.655 4.623 4.623.655 9.5.655c4.877 0 8.845 3.968 8.845 8.845 0 4.877-3.968 8.845-8.845 8.845z"/></svg>