<?xml version="1.0" encoding="UTF-8"?>
<svg width="23px" height="24px" viewBox="0 0 23 24" version="1.1" xmlns="http://www.w3.org/2000/svg" xmlns:xlink="http://www.w3.org/1999/xlink">
    <!-- Generator: sketchtool 63.1 (101010) - https://sketch.com -->
    <title>017755C5-D739-49E8-ABEA-F0D4D713E56A</title>
    <desc>Created with sketchtool.</desc>
    <g id="01_Pages" stroke="none" stroke-width="1" fill="none" fill-rule="evenodd">
        <g id="D_05A_Guide-Public-Profile" transform="translate(-480.000000, -2429.000000)" fill="#3ED3A3">
            <path d="M498.5,2429 C500.910114,2429 502.884251,2430.90528 502.995092,2433.28851 L503,2433.5 L503,2442.5 C503,2444.91011 501.094723,2446.88425 498.711489,2446.99509 L498.5,2447 L485.734,2447 L480.883,2452.82 C480.787,2452.937 480.646,2453 480.5,2453 C480.443,2453 480.386,2452.99 480.33,2452.97 C480.160286,2452.90829 480.039061,2452.76135 480.007889,2452.58838 L480,2452.5 L480,2433.5 C480,2431.08989 481.905277,2429.11575 484.288511,2429.00491 L484.5,2429 L498.5,2429 Z M486.5,2437 C485.673,2437 485,2437.673 485,2438.5 C485,2439.327 485.673,2440 486.5,2440 C487.327,2440 488,2439.327 488,2438.5 C488,2437.673 487.327,2437 486.5,2437 Z M491.5,2437 C490.673,2437 490,2437.673 490,2438.5 C490,2439.327 490.673,2440 491.5,2440 C492.327,2440 493,2439.327 493,2438.5 C493,2437.673 492.327,2437 491.5,2437 Z M496.5,2437 C495.673,2437 495,2437.673 495,2438.5 C495,2439.327 495.673,2440 496.5,2440 C497.327,2440 498,2439.327 498,2438.5 C498,2437.673 497.327,2437 496.5,2437 Z M486.5,2438 C486.775,2438 487,2438.224 487,2438.5 C487,2438.776 486.775,2439 486.5,2439 C486.225,2439 486,2438.776 486,2438.5 C486,2438.224 486.225,2438 486.5,2438 Z M491.5,2438 C491.775,2438 492,2438.224 492,2438.5 C492,2438.776 491.775,2439 491.5,2439 C491.225,2439 491,2438.776 491,2438.5 C491,2438.224 491.225,2438 491.5,2438 Z M496.5,2438 C496.775,2438 497,2438.224 497,2438.5 C497,2438.776 496.775,2439 496.5,2439 C496.225,2439 496,2438.776 496,2438.5 C496,2438.224 496.225,2438 496.5,2438 Z" id="ic-comment-copy-3"></path>
        </g>
    </g>
</svg>