<?xml version="1.0"?>
<svg xmlns="http://www.w3.org/2000/svg" width="500" height="500" viewBox="0 0 500 500">
	<svg width="12" height="12" id="ic-add-white" x="4" y="4"><path d="M5.167 5.167V1a.833.833 0 1 1 1.666 0v4.167H11a.833.833 0 1 1 0 1.666H6.833V11a.833.833 0 1 1-1.666 0V6.833H1a.833.833 0 1 1 0-1.666h4.167z" fill="#fff" fill-rule="evenodd" aria-hidden="true"></path></svg>
    <svg width="12" height="12" id="ic-add-green" x="24" y="4"><path d="M5.167 5.167V1a.833.833 0 1 1 1.666 0v4.167H11a.833.833 0 1 1 0 1.666H6.833V11a.833.833 0 1 1-1.666 0V6.833H1a.833.833 0 1 1 0-1.666h4.167z" fill="#22C993" fill-rule="evenodd" aria-hidden="true"/></svg>
	<svg width="12" height="16" id="ic-location-green" x="44" y="2"><path fill="#59C3B6" fill-rule="evenodd" d="M6.167 0A5.673 5.673 0 0 0 .5 5.667c0 5.478 5.226 10.06 5.449 10.252a.334.334 0 0 0 .436 0c.222-.193 5.448-4.774 5.448-10.252A5.673 5.673 0 0 0 6.167 0zm0 8.667a3 3 0 1 1 0-6 3 3 0 0 1 0 6z"/></svg>
	
	<svg width="7" height="10" id="ic-angle-right-white" x="6" y="35" xmlns:xlink="http://www.w3.org/1999/xlink"><defs><path d="M11.321 10L7.744 6.423a.833.833 0 1 1 1.179-1.179l4.166 4.167a.833.833 0 0 1 0 1.178l-4.166 4.167a.833.833 0 0 1-1.179-1.179L11.321 10z" id="ic-angle-white-a"/></defs><g transform="translate(-7 -5)" fill="none" fill-rule="evenodd"><mask id="ic-angle-white-b" fill="#fff"><use xlink:href="#ic-angle-white-a"/></mask><use fill-opacity="0" fill="#051033" fill-rule="nonzero" xlink:href="#ic-angle-white-a"/><g mask="url(#ic-angle-white-b)" fill="#FFF"><path d="M0 0h20v20H0z"/></g></g></svg>
	<svg width="24" height="24" id="ic-angle-right-green" x="20" y="28" xmlns:xlink="http://www.w3.org/1999/xlink"><defs><path id="ic-angle-right-green-a" d="M12 13.586l4.293-4.293a1 1 0 0 1 1.414 1.414l-5 5a1 1 0 0 1-1.414 0l-5-5a1 1 0 0 1 1.414-1.414L12 13.586z"/></defs><g fill="none" fill-rule="evenodd"><mask id="ic-angle-right-green-b" fill="#fff"><use xlink:href="#ic-angle-right-green-a"/></mask><use fill="#051033" fill-opacity="0" fill-rule="nonzero" xlink:href="#ic-angle-right-green-a"/><g fill="#c9ced6" mask="url(#ic-angle-right-green-b)"><path d="M0 0h24v24H0z"/></g></g></svg>
	<svg width="24" height="24" id="ic-angle-right-grey" x="44" y="28" xmlns:xlink="http://www.w3.org/1999/xlink"><defs><path id="ic-angle-right-grey-a" d="M12 13.586l4.293-4.293a1 1 0 0 1 1.414 1.414l-5 5a1 1 0 0 1-1.414 0l-5-5a1 1 0 0 1 1.414-1.414L12 13.586z"/></defs><g fill="none" fill-rule="evenodd"><mask id="ic-angle-right-grey-b" fill="#fff"><use xlink:href="#ic-angle-right-grey-a"/></mask><use fill="#051033" fill-opacity="0" fill-rule="nonzero" xlink:href="#ic-angle-right-grey-a"/><g fill="#59c3b6" mask="url(#ic-angle-right-grey-b)"><path d="M0 0h24v24H0z"/></g></g></svg>
	
	<svg width="38" height="38" id="ic-arrow-white" x="0" y="60"><path fill="#FFF" d="M19 38C8.523 38 0 29.477 0 19S8.523 0 19 0s19 8.523 19 19-8.523 19-19 19zm0-36.349C9.435 1.651 1.651 9.435 1.651 19c0 9.565 7.784 17.349 17.349 17.349 9.565 0 17.349-7.784 17.349-17.349 0-9.565-7.784-17.349-17.349-17.349zM22.144 30a.867.867 0 0 1-.607-.247L11.251 19.598a.84.84 0 0 1 0-1.196L21.537 8.248a.866.866 0 0 1 1.212 0 .84.84 0 0 1 0 1.196l-9.68 9.555 9.68 9.556a.84.84 0 0 1 0 1.196.857.857 0 0 1-.605.249z"/></svg> 
	<svg width="38" height="38" id="ic-arrow-green" x="40" y="60"><path fill="#59C3B6" d="M19 38C8.523 38 0 29.477 0 19S8.523 0 19 0s19 8.523 19 19-8.523 19-19 19zm0-36.349C9.435 1.651 1.651 9.435 1.651 19c0 9.565 7.784 17.349 17.349 17.349 9.565 0 17.349-7.784 17.349-17.349 0-9.565-7.784-17.349-17.349-17.349zM22.144 30a.867.867 0 0 1-.607-.247L11.251 19.598a.84.84 0 0 1 0-1.196L21.537 8.248a.866.866 0 0 1 1.212 0 .84.84 0 0 1 0 1.196l-9.68 9.555 9.68 9.556a.84.84 0 0 1 0 1.196.857.857 0 0 1-.605.249z"/></svg>
	<svg width="23" height="23" id="ic-arrow-grey" x="80" y="60"><path d="M11.505 23.01C5.161 23.01 0 17.849 0 11.505 0 5.161 5.161 0 11.505 0 17.849 0 23.01 5.161 23.01 11.505c0 6.344-5.161 11.505-11.505 11.505zm0-22.01C5.713 1 1 5.713 1 11.505 1 17.297 5.713 22.01 11.505 22.01c5.792 0 10.505-4.713 10.505-10.505C22.01 5.713 17.297 1 11.505 1zM9.51 18.01a.5.5 0 0 1-.354-.853l5.646-5.646-5.645-5.647a.5.5 0 0 1 .707-.707l6 6a.5.5 0 0 1 0 .707l-6 6a.498.498 0 0 1-.354.146z" fill="#8A94A6"/></svg>
	<svg width="20" height="16" id="ic-back-black" x="110" y="60"><path d="M19.584 8.42H.417A.419.419 0 0 1 0 8a.42.42 0 0 1 .417-.422h19.167c.23 0 .416.189.416.421a.419.419 0 0 1-.416.421zM7.917 16a.416.416 0 0 1-.295-.124l-7.5-7.579a.424.424 0 0 1 0-.595l7.5-7.579a.414.414 0 0 1 .589 0 .424.424 0 0 1 0 .596l-7.205 7.28 7.205 7.281a.424.424 0 0 1 0 .596.41.41 0 0 1-.294.123z"/></svg>
    
	<svg width="18" height="24" id="ic-location" x="4" y="100"><path d="M9 24c-2.94 0-8.5-.522-8.5-2.5 0-1.842 4.844-2.322 6.328-2.425a.505.505 0 0 1 .533.464.501.501 0 0 1-.465.534C3.105 20.336 1.5 21.2 1.5 21.5c0 .436 2.628 1.5 7.5 1.5s7.5-1.064 7.5-1.5c0-.3-1.605-1.164-5.396-1.427a.502.502 0 0 1-.465-.534.508.508 0 0 1 .533-.464c1.484.103 6.328.583 6.328 2.425 0 1.978-5.56 2.5-8.5 2.5zm0-14c-1.93 0-3.5-1.57-3.5-3.5S7.07 3 9 3s3.5 1.57 3.5 3.5S10.93 10 9 10zm0-6a2.503 2.503 0 0 0-2.5 2.5C6.5 7.878 7.621 9 9 9s2.5-1.122 2.5-2.5S10.379 4 9 4z"/><path d="M9 21a.5.5 0 0 1-.436-.255C8.316 20.304 2.5 9.905 2.5 6.5 2.5 2.916 5.416 0 9 0s6.5 2.916 6.5 6.5c0 3.405-5.816 13.804-6.064 14.245A.5.5 0 0 1 9 21zM9 1a5.506 5.506 0 0 0-5.5 5.5c0 2.637 4.129 10.444 5.5 12.963 1.371-2.519 5.5-10.326 5.5-12.963C14.5 3.467 12.032 1 9 1z"/></svg>
	<svg width="20" height="20" id="ic-phone" x="29" y="102"><path d="M18 19.5C8.351 19.5.5 11.649.5 2 .5 1.173 1.173.5 2 .5h3.5C6.327.5 7 1.173 7 2c0 1.17.184 2.319.545 3.413.171.547.028 1.13-.371 1.53L5.589 9.049c1.304 2.458 2.888 4.041 5.362 5.361l2.157-1.629c.35-.356.952-.497 1.483-.314 1.089.36 2.237.543 3.409.543.827 0 1.5.673 1.5 1.5V18c0 .827-.673 1.5-1.5 1.5zM2 1.5a.5.5 0 0 0-.5.5c0 9.098 7.402 16.5 16.5 16.5a.5.5 0 0 0 .5-.5v-3.49a.5.5 0 0 0-.5-.5c-1.278 0-2.532-.2-3.728-.595a.501.501 0 0 0-.509.119L11.301 15.4a.498.498 0 0 1-.529.046c-2.934-1.503-4.735-3.305-6.218-6.218A.5.5 0 0 1 4.6 8.7l1.82-2.41c.183-.19.23-.383.172-.57A11.87 11.87 0 0 1 6 2a.5.5 0 0 0-.5-.5H2z"/></svg>
	<svg width="22" height="22" id="ic-url" x="54" y="101"><path d="M15.766 0H6.233c-.05 0-.098.01-.142.029-.014.005-.024.016-.037.025-.028.016-.057.03-.08.053L.106 5.974c-.017.017-.026.04-.04.06-.013.019-.03.036-.038.058A.372.372 0 0 0 0 6.233v15.4c0 .203.164.367.367.367h15.399a.367.367 0 0 0 .366-.367V18.7a.367.367 0 0 0-.733 0v2.567H.733V6.6h5.5a.367.367 0 0 0 .367-.367v-5.5h8.8v10.634a.367.367 0 0 0 .732 0v-11A.367.367 0 0 0 15.766 0zm-9.9 5.867H1.252l4.614-4.615v4.615zm8.808 6.895l-.524 2.619-.989-1.978c-.125-.248-.532-.248-.656 0l-.99 1.978-.523-2.619a.37.37 0 0 0-.431-.287.366.366 0 0 0-.288.43l.733 3.668a.366.366 0 0 0 .688.091l1.139-2.277 1.138 2.277a.366.366 0 0 0 .378.2.366.366 0 0 0 .311-.291l.733-3.667a.367.367 0 0 0-.72-.144zm7.03-.287a.37.37 0 0 0-.43.287l-.524 2.619-.99-1.978c-.124-.248-.53-.248-.656 0l-.989 1.978-.523-2.619a.369.369 0 0 0-.432-.287.366.366 0 0 0-.288.43l.734 3.668a.366.366 0 0 0 .687.091l1.14-2.277 1.138 2.277a.366.366 0 0 0 .378.2.366.366 0 0 0 .31-.291l.734-3.667a.367.367 0 0 0-.288-.431zm-13.63.287l-.523 2.619-.99-1.978c-.124-.248-.531-.248-.656 0l-.989 1.978-.524-2.619a.369.369 0 0 0-.43-.287.366.366 0 0 0-.289.43l.733 3.668a.366.366 0 0 0 .688.091l1.139-2.277 1.139 2.277a.366.366 0 0 0 .377.2.366.366 0 0 0 .311-.291l.734-3.667a.367.367 0 0 0-.72-.144z"/></svg>
	<svg width="19" height="19" id="ic-time" x="79" y="103"><path d="M9.5 16.38a.328.328 0 1 0 0 .655.328.328 0 0 0 0-.656zm0-13.76a.328.328 0 1 0 0-.655.328.328 0 0 0 0 .656zM2.293 9.173a.328.328 0 1 0 0 .656.328.328 0 0 0 0-.656zm14.414 0a.328.328 0 1 0 0 .656.328.328 0 0 0 0-.656zM9.5 7.862c-.253 0-.49.062-.704.165-.006-.011-.008-.023-.016-.034l-.983-1.31a.328.328 0 0 0-.525.393l.983 1.31c.009.011.021.015.03.025a1.64 1.64 0 0 0-.39.761H4.259a.328.328 0 0 0 0 .656h3.636a1.64 1.64 0 0 0 1.605 1.31A1.64 1.64 0 0 0 11.138 9.5 1.64 1.64 0 0 0 9.5 7.862zm0 2.62a.984.984 0 0 1 0-1.965.984.984 0 0 1 0 1.966zM9.5 0C4.262 0 0 4.262 0 9.5S4.262 19 9.5 19 19 14.738 19 9.5 14.738 0 9.5 0zm0 18.345C4.623 18.345.655 14.377.655 9.5.655 4.623 4.623.655 9.5.655c4.877 0 8.845 3.968 8.845 8.845 0 4.877-3.968 8.845-8.845 8.845z"/></svg>
	<svg width="23" height="21" id="ic-add-photo" x="100" y="101"><path d="M3 3V0h2v3h3v2H5v3H3V5H0V3h3zm3 6V6h3V3h7l1.83 2H21c1.1 0 2 .9 2 2v12c0 1.1-.9 2-2 2H5c-1.1 0-2-.9-2-2V9h3zm7 9c2.76 0 5-2.24 5-5s-2.24-5-5-5-5 2.24-5 5 2.24 5 5 5zm-3.2-5c0 1.77 1.43 3.2 3.2 3.2 1.77 0 3.2-1.43 3.2-3.2 0-1.77-1.43-3.2-3.2-3.2-1.77 0-3.2 1.43-3.2 3.2z"/></svg>
	
	<svg width="24" height="24" id="ic-favorite-unselected" x="0" y="130"><path d="M12 24a.498.498 0 0 1-.306-.105C11.216 23.525 0 14.737 0 6.75A6.758 6.758 0 0 1 6.75 0C8.809 0 10.723.928 12 2.514A6.719 6.719 0 0 1 17.25 0 6.758 6.758 0 0 1 24 6.75c0 7.987-11.216 16.775-11.694 17.145A.498.498 0 0 1 12 24zM6.75 1C3.58 1 1 3.58 1 6.75c0 6.793 9.19 14.632 11 16.109 1.81-1.477 11-9.315 11-16.109C23 3.58 20.42 1 17.25 1a5.73 5.73 0 0 0-4.83 2.638c-.184.285-.656.285-.84 0A5.73 5.73 0 0 0 6.75 1z"/></svg>	
	<svg width="24" height="20" id="ic-share-unselected" x="28" y="132"><path d="M21.5 7.999a.5.5 0 0 0-.5.5v9c0 .827-.673 1.5-1.5 1.5h-17c-.827 0-1.5-.673-1.5-1.5v-13c0-.827.673-1.5 1.5-1.5h13a.5.5 0 0 0 0-1h-13a2.503 2.503 0 0 0-2.5 2.5v13c0 1.378 1.122 2.5 2.5 2.5h17c1.378 0 2.5-1.122 2.5-2.5v-9a.5.5 0 0 0-.5-.5zm2.473-4.632c-.005-.018-.004-.038-.011-.056a.483.483 0 0 0-.115-.17L20.853.147a.5.5 0 0 0-.707.707l2.145 2.145H21.5c-6.341 0-11.5 5.159-11.5 11.5a.5.5 0 0 0 1 0c0-5.79 4.71-10.5 10.5-10.5h.793l-2.147 2.147a.5.5 0 0 0 .707.708l3-3c.014-.014.019-.032.031-.046.029-.036.059-.073.077-.117.018-.043.022-.089.027-.134.003-.02.012-.037.012-.058 0-.047-.015-.089-.027-.132z"/></svg>
	<svg width="24" height="24" id="ic-add-review" x="56" y="130"><path d="M18.5 12.989a5.506 5.506 0 0 0-5.5 5.5c0 3.033 2.468 5.5 5.5 5.5s5.5-2.467 5.5-5.5-2.468-5.5-5.5-5.5zm2 6H19v1.5a.5.5 0 0 1-1 0v-1.5h-1.5a.5.5 0 0 1 0-1H18v-1.5a.5.5 0 0 1 1 0v1.5h1.5a.5.5 0 0 1 0 1zm-2-7c.294 0 .582.027.864.064a.486.486 0 0 0 .42-.142l3.069-3.069a.499.499 0 0 0-.288-.849l-7.242-.96L11.947.265c-.168-.339-.727-.339-.895 0L7.676 7.033l-7.242.96a.501.501 0 0 0-.288.849l5.311 5.311L4.01 21.39a.502.502 0 0 0 .714.546l6.884-3.442a.5.5 0 0 0 .416-.458c.234-3.391 3.08-6.047 6.476-6.047z"/></svg>
	<svg width="25" height="24" id="ic-star-empty" x="80" y="130"><path d="M24.863 9.074a.548.548 0 0 0-.441-.367L16.586 7.66 12.93.277c-.18-.37-.785-.37-.97 0L8.31 7.66.469 8.707a.553.553 0 0 0-.442.367.54.54 0 0 0 .133.559l5.746 5.797-1.566 7.894a.55.55 0 0 0 .203.54.531.531 0 0 0 .57.054l7.332-3.695 7.336 3.695a.528.528 0 0 0 .566-.055.552.552 0 0 0 .204-.539l-1.567-7.894 5.75-5.797a.546.546 0 0 0 .13-.559zm-6.847 5.79a.556.556 0 0 0-.149.491l1.41 7.09-6.59-3.32a.527.527 0 0 0-.484 0l-6.586 3.32 1.406-7.09a.545.545 0 0 0-.148-.492L1.699 9.645l7.035-.942a.54.54 0 0 0 .414-.297l3.297-6.664 3.297 6.664c.082.16.238.274.414.297l7.04.942zm0 0" /></svg>
	<svg width="25" height="24" id="ic-star-complete" x="105" y="130"><path d="M25.29 9.074a.547.547 0 0 0-.446-.367L16.973 7.66 13.305.277c-.184-.37-.793-.37-.973 0L8.66 7.66.79 8.707a.552.552 0 0 0-.446.367.555.555 0 0 0 .133.559l5.773 5.793-1.574 7.898a.55.55 0 0 0 .203.54.538.538 0 0 0 .574.054l7.363-3.695 7.368 3.695a.546.546 0 0 0 .777-.594l-1.574-7.898 5.773-5.793a.546.546 0 0 0 .13-.559zm0 0"/></svg>
	
	<svg width="20" height="20" id="ic-rev-favorite" x="2" y="162"><path fill="#C9CED6" fill-rule="evenodd" d="M10 20c-.09 0-.18-.03-.255-.087C9.347 19.604 0 12.28 0 5.625A5.631 5.631 0 0 1 5.625 0 5.6 5.6 0 0 1 10 2.095 5.6 5.6 0 0 1 14.375 0 5.631 5.631 0 0 1 20 5.625c0 6.656-9.347 13.98-9.745 14.288A.415.415 0 0 1 10 20zM5.625.833A4.798 4.798 0 0 0 .833 5.625c0 5.66 7.659 12.193 9.167 13.424 1.508-1.23 9.167-7.762 9.167-13.424A4.798 4.798 0 0 0 14.375.833a4.776 4.776 0 0 0-4.025 2.199c-.153.237-.547.237-.7 0A4.776 4.776 0 0 0 5.625.833z"/></svg>
	<svg width="20" height="20" id="ic-rev-favorite-active" x="30" y="162"><path fill="#59c3b6" fill-rule="evenodd" d="M10 20c-.09 0-.18-.03-.255-.087C9.347 19.604 0 12.28 0 5.625A5.631 5.631 0 0 1 5.625 0 5.6 5.6 0 0 1 10 2.095 5.6 5.6 0 0 1 14.375 0 5.631 5.631 0 0 1 20 5.625c0 6.656-9.347 13.98-9.745 14.288A.415.415 0 0 1 10 20zM5.625.833A4.798 4.798 0 0 0 .833 5.625c0 5.66 7.659 12.193 9.167 13.424 1.508-1.23 9.167-7.762 9.167-13.424A4.798 4.798 0 0 0 14.375.833a4.776 4.776 0 0 0-4.025 2.199c-.153.237-.547.237-.7 0A4.776 4.776 0 0 0 5.625.833z"/></svg>
	<svg width="24" height="20" id="ic-rev-share" x="56" y="162"><path fill="#C9CED6" fill-rule="evenodd" d="M21.5 7.998a.5.5 0 0 0-.5.5v9c0 .827-.673 1.5-1.5 1.5h-17c-.827 0-1.5-.673-1.5-1.5v-13c0-.827.673-1.5 1.5-1.5h13a.5.5 0 0 0 0-1h-13a2.503 2.503 0 0 0-2.5 2.5v13c0 1.378 1.122 2.5 2.5 2.5h17c1.378 0 2.5-1.122 2.5-2.5v-9a.5.5 0 0 0-.5-.5zm2.473-4.632c-.005-.018-.004-.038-.011-.056a.483.483 0 0 0-.115-.17L20.853.146a.5.5 0 0 0-.707.707l2.145 2.145H21.5c-6.341 0-11.5 5.16-11.5 11.5a.5.5 0 0 0 1 0c0-5.79 4.71-10.5 10.5-10.5h.793l-2.147 2.147a.5.5 0 0 0 .707.708l3-3c.014-.014.019-.032.031-.046.029-.036.059-.073.077-.117.018-.043.022-.089.027-.134.003-.02.012-.037.012-.058 0-.047-.015-.089-.027-.132z"/></svg>
	<svg width="24" height="20" id="ic-rev-share-active" x="84" y="162"><path fill="#59c3b6" fill-rule="evenodd" d="M21.5 7.998a.5.5 0 0 0-.5.5v9c0 .827-.673 1.5-1.5 1.5h-17c-.827 0-1.5-.673-1.5-1.5v-13c0-.827.673-1.5 1.5-1.5h13a.5.5 0 0 0 0-1h-13a2.503 2.503 0 0 0-2.5 2.5v13c0 1.378 1.122 2.5 2.5 2.5h17c1.378 0 2.5-1.122 2.5-2.5v-9a.5.5 0 0 0-.5-.5zm2.473-4.632c-.005-.018-.004-.038-.011-.056a.483.483 0 0 0-.115-.17L20.853.146a.5.5 0 0 0-.707.707l2.145 2.145H21.5c-6.341 0-11.5 5.16-11.5 11.5a.5.5 0 0 0 1 0c0-5.79 4.71-10.5 10.5-10.5h.793l-2.147 2.147a.5.5 0 0 0 .707.708l3-3c.014-.014.019-.032.031-.046.029-.036.059-.073.077-.117.018-.043.022-.089.027-.134.003-.02.012-.037.012-.058 0-.047-.015-.089-.027-.132z"/></svg>
	<svg width="16" height="4" id="ic-rev-more" x="116" y="170"><path fill="#C9CED6" fill-rule="evenodd" d="M14 4a2 2 0 1 0 .001-3.999A2 2 0 0 0 14 4zM8 4A2 2 0 1 0 8.001.001 2 2 0 0 0 8 4zM2 4A2 2 0 1 0 2.001.001 2 2 0 0 0 2 4z"/></svg>
	<svg width="16" height="4" id="ic-rev-more-active" x="144" y="170"><path fill="#59c3b6" fill-rule="evenodd" d="M14 4a2 2 0 1 0 .001-3.999A2 2 0 0 0 14 4zM8 4A2 2 0 1 0 8.001.001 2 2 0 0 0 8 4zM2 4A2 2 0 1 0 2.001.001 2 2 0 0 0 2 4z"/></svg>
	
</svg>