<?xml version="1.0" encoding="UTF-8"?>
<svg width="26px" height="28px" viewBox="0 0 26 28" version="1.1" xmlns="http://www.w3.org/2000/svg" xmlns:xlink="http://www.w3.org/1999/xlink">
    <!-- Generator: Sketch 55.2 (78181) - https://sketchapp.com -->
    <title>Combined Shape</title>
    <desc>Created with Sketch.</desc>
    <g id="01_Pages" stroke="none" stroke-width="1" fill="none" fill-rule="evenodd">
        <g id="D_06_Personal-Profile" transform="translate(-135.000000, -1209.000000)" fill="#FFFFFF">
            <path d="M148.004181,1227.68366 C145.45732,1227.68366 143.392681,1225.59242 143.392681,1223.01274 C143.392681,1220.43307 145.45732,1218.34183 148.004181,1218.34183 C150.551042,1218.34183 152.615681,1220.43307 152.615681,1223.01274 C152.615681,1225.59242 150.551042,1227.68366 148.004181,1227.68366 Z M148.004181,1226.8344 C150.087977,1226.8344 151.777227,1225.12339 151.777227,1223.01274 C151.777227,1220.9021 150.087977,1219.19109 148.004181,1219.19109 C145.920386,1219.19109 144.231136,1220.9021 144.231136,1223.01274 C144.231136,1225.12339 145.920386,1226.8344 148.004181,1226.8344 Z M160.605747,1218.63708 L158.794436,1219.94005 C159.066998,1220.94043 159.20553,1221.97387 159.205934,1223.01291 C159.20553,1224.05162 159.066998,1225.08506 158.794434,1226.08544 L160.600774,1227.38489 C160.803715,1227.52644 160.942295,1227.74436 160.985612,1227.99006 C161.028928,1228.23576 160.973378,1228.48879 160.833343,1228.68985 L157.599356,1233.4166 C157.461417,1233.62272 157.247309,1233.76386 157.005383,1233.80814 C156.763457,1233.85243 156.514119,1233.79612 156.314059,1233.65221 L154.491786,1232.3445 C153.645999,1232.96529 152.71804,1233.46227 151.735304,1233.82077 L151.735304,1236.06576 C151.735374,1236.57567 151.331735,1236.99144 150.821389,1237 L145.171602,1237 C144.668243,1236.99144 144.264604,1236.57567 144.264674,1236.06582 L144.264674,1233.82077 C143.281939,1233.46227 142.353979,1232.96529 141.508192,1232.3445 L139.6863,1233.65194 C139.485859,1233.79612 139.236521,1233.85243 138.994595,1233.80814 C138.752669,1233.76386 138.538561,1233.62272 138.403069,1233.42021 L135.168629,1228.69274 C135.0266,1228.48879 134.97105,1228.23576 135.014367,1227.99006 C135.057683,1227.74436 135.196263,1227.52644 135.395818,1227.38727 L137.213865,1226.09226 C136.668931,1224.08168 136.669061,1221.9593 137.214256,1219.94878 L135.407589,1218.6491 C135.204647,1218.50754 135.066067,1218.28962 135.022751,1218.04392 C134.979435,1217.79823 135.034985,1217.54519 135.17473,1217.34455 L138.400623,1212.61739 C138.538561,1212.41126 138.752669,1212.27012 138.994595,1212.22584 C139.236521,1212.18155 139.485859,1212.23786 139.681537,1212.37867 L141.513267,1213.65794 C142.359943,1213.03602 143.289041,1212.5382 144.273059,1212.17924 L144.273059,1209.93425 C144.272989,1209.42434 144.676627,1209.00857 145.186974,1209 L150.82046,1209 C151.076103,1208.99944 151.320514,1209.10636 151.49536,1209.29527 C151.670206,1209.48417 151.759799,1209.73811 151.743689,1209.96816 L151.743689,1212.21321 C152.726231,1212.57164 153.654018,1213.0685 154.499671,1213.68912 L156.313678,1212.38204 C156.514119,1212.23786 156.763457,1212.18155 157.005383,1212.22584 C157.247309,1212.27012 157.461417,1212.41126 157.596708,1212.61348 L160.831349,1217.33275 C160.973378,1217.5367 161.028928,1217.78973 160.985612,1218.03543 C160.942295,1218.28112 160.803715,1218.49905 160.605747,1218.63708 Z M157.907774,1226.1331 C158.212139,1225.12165 158.367052,1224.07014 158.367479,1223.01274 C158.367052,1221.95535 158.212138,1220.90384 157.907774,1219.89239 L157.819672,1219.59961 L158.066041,1219.42238 L160.125229,1217.94115 C160.143678,1217.92829 160.156276,1217.90847 160.160214,1217.88614 C160.164152,1217.8638 160.159102,1217.8408 160.144396,1217.81966 L156.905314,1213.09389 C156.893925,1213.07687 156.876246,1213.06521 156.85627,1213.06156 C156.836295,1213.0579 156.815707,1213.06255 156.799431,1213.07426 L154.484253,1214.74245 L154.238435,1214.55119 C153.321247,1213.83756 152.291735,1213.28583 151.193268,1212.91923 L150.905234,1212.82311 L150.905234,1212.51593 L150.906167,1209.93985 C150.907716,1209.91637 150.899571,1209.89328 150.883676,1209.87611 C150.867781,1209.85893 150.84556,1209.84921 150.821389,1209.84921 L145.193963,1209.84921 C145.148202,1209.84998 145.111507,1209.88778 145.111513,1209.93419 L145.111513,1212.78914 L144.823479,1212.88526 C143.725012,1213.25186 142.695501,1213.80359 141.778312,1214.51722 L141.536246,1214.70556 L141.284951,1214.53006 L139.200821,1213.07445 C139.184271,1213.06255 139.163683,1213.0579 139.143708,1213.06156 C139.123732,1213.06521 139.106053,1213.07687 139.092507,1213.09708 L135.862173,1217.83075 C135.849261,1217.84929 135.844211,1217.87229 135.848149,1217.89463 C135.852087,1217.91697 135.864685,1217.93678 135.888108,1217.95317 L138.188343,1219.60785 L138.100752,1219.90034 C137.491371,1221.93516 137.491371,1224.10731 138.100752,1226.14214 L138.188772,1226.43605 L137.940734,1226.61273 L135.87475,1228.08434 C135.8563,1228.0972 135.843702,1228.11702 135.839764,1228.13935 C135.835826,1228.16169 135.840876,1228.18469 135.855783,1228.20612 L139.094664,1232.9401 C139.106053,1232.95712 139.123732,1232.96877 139.143708,1232.97243 C139.163683,1232.97608 139.184271,1232.97143 139.201201,1232.95925 L141.524602,1231.29191 L141.769928,1231.48279 C142.687116,1232.19642 143.716627,1232.74815 144.815095,1233.11475 L145.103129,1233.21087 L145.103129,1233.51805 L145.103129,1236.06588 C145.103122,1236.11223 145.139817,1236.15003 145.17859,1236.1508 L150.814401,1236.1508 C150.860161,1236.15003 150.896856,1236.11223 150.896849,1236.06582 L150.896849,1233.21087 L151.184883,1233.11475 C152.283351,1232.74815 153.312862,1232.19642 154.23005,1231.48279 L154.475376,1231.29191 L154.727794,1231.47306 L156.799157,1232.95953 C156.815707,1232.97143 156.836295,1232.97608 156.85627,1232.97243 C156.876246,1232.96877 156.893925,1232.95712 156.907761,1232.93648 L160.14619,1228.20323 C160.159102,1228.18469 160.164152,1228.16169 160.160214,1228.13935 C160.156276,1228.11702 160.143678,1228.0972 160.120255,1228.08081 L157.819672,1226.42588 L157.907774,1226.1331 Z" id="Combined-Shape"></path>
        </g>
    </g>
</svg>