<?xml version="1.0" encoding="UTF-8"?>
<svg width="23px" height="24px" viewBox="0 0 23 24" version="1.1" xmlns="http://www.w3.org/2000/svg" xmlns:xlink="http://www.w3.org/1999/xlink">
    <!-- Generator: Sketch 55.2 (78181) - https://sketchapp.com -->
    <title>ic-comment</title>
    <desc>Created with Sketch.</desc>
    <g id="Symbols" stroke="none" stroke-width="1" fill="none" fill-rule="evenodd">
        <g id="Card/Post/Image" transform="translate(0.000000, -400.000000)" fill="#C9CED6">
            <path d="M18.5,400 C20.981,400 23,402.019 23,404.5 L23,413.5 C23,415.981 20.981,418 18.5,418 L5.734,418 L0.883,423.82 C0.787,423.937 0.646,424 0.5,424 C0.443,424 0.386,423.99 0.33,423.97 C0.132,423.898 0,423.71 0,423.5 L0,404.5 C0,402.019 2.019,400 4.5,400 L18.5,400 Z M22,413.5 L22,404.5 C22,402.57 20.43,401 18.5,401 L4.5,401 C2.57,401 1,402.57 1,404.5 L1,422.119 L5.116,417.18 C5.211,417.066 5.351,417 5.5,417 L18.5,417 C20.43,417 22,415.43 22,413.5 Z M6.5,408 C7.327,408 8,408.673 8,409.5 C8,410.327 7.327,411 6.5,411 C5.673,411 5,410.327 5,409.5 C5,408.673 5.673,408 6.5,408 Z M6.5,410 C6.775,410 7,409.776 7,409.5 C7,409.224 6.775,409 6.5,409 C6.225,409 6,409.224 6,409.5 C6,409.776 6.225,410 6.5,410 Z M11.5,408 C12.327,408 13,408.673 13,409.5 C13,410.327 12.327,411 11.5,411 C10.673,411 10,410.327 10,409.5 C10,408.673 10.673,408 11.5,408 Z M11.5,410 C11.775,410 12,409.776 12,409.5 C12,409.224 11.775,409 11.5,409 C11.225,409 11,409.224 11,409.5 C11,409.776 11.225,410 11.5,410 Z M16.5,408 C17.327,408 18,408.673 18,409.5 C18,410.327 17.327,411 16.5,411 C15.673,411 15,410.327 15,409.5 C15,408.673 15.673,408 16.5,408 Z M16.5,410 C16.775,410 17,409.776 17,409.5 C17,409.224 16.775,409 16.5,409 C16.225,409 16,409.224 16,409.5 C16,409.776 16.225,410 16.5,410 Z" id="ic-comment"></path>
        </g>
    </g>
</svg>