<?xml version="1.0" encoding="UTF-8"?>
<svg width="301px" height="322px" viewBox="0 0 301 322" version="1.1" xmlns="http://www.w3.org/2000/svg" xmlns:xlink="http://www.w3.org/1999/xlink">
    <!-- Generator: Sketch 55.2 (78181) - https://sketchapp.com -->
    <title>ic-completed-signup</title>
    <desc>Created with Sketch.</desc>
    <g id="01_Pages" stroke="none" stroke-width="1" fill="none" fill-rule="evenodd">
        <g id="D_05A2_Guide-Confirmation" transform="translate(-624.000000, -717.000000)" fill-rule="nonzero">
            <g id="ic-completed-signup" transform="translate(610.000000, 717.000000)">
                <ellipse id="Oval" fill="#F2F2F2" cx="177.5" cy="183.5" rx="137.5" ry="138.5"></ellipse>
                <path d="M95.6429277,159.733862 C96.5491756,158.033651 97.0174389,156.104543 96.9995035,154.145167 C96.9995035,149.094431 94.0895674,145 90.5,145 C86.9104322,145 84.0004962,149.094431 84.0004962,154.145167 C83.9825673,156.104542 84.4508302,158.033648 85.3570719,159.733862 C83.5483012,163.206063 83.5483012,167.439099 85.3570719,170.9113 C83.5483076,174.383496 83.5483076,178.616523 85.3570719,182.088719 C83.5483076,185.560915 83.5483076,189.793942 85.3570719,193.266138 C84.4508297,194.966352 83.9825668,196.895458 84.0004962,198.854833 C84.0004962,203.905569 86.9104152,208 90.5,208 C94.0895844,208 96.9995035,203.905569 96.9995035,198.854833 C97.0174394,196.895457 96.549176,194.966349 95.6429277,193.266138 C97.4516921,189.793942 97.4516921,185.560915 95.6429277,182.088719 C97.4516921,178.616523 97.4516921,174.383496 95.6429277,170.9113 C97.4516984,167.439099 97.4516984,163.206063 95.6429277,159.733862 L95.6429277,159.733862 Z" id="Path" fill="#3F3D56"></path>
                <ellipse id="Oval" fill="#3F3D56" cx="90.5" cy="143.5" rx="6.5" ry="9.5"></ellipse>
                <ellipse id="Oval" fill="#3F3D56" cx="90.5" cy="131.5" rx="6.5" ry="9.5"></ellipse>
                <path d="M116.937441,54.9922355 C117.878626,53.7583351 118.735878,52.4589347 119.503073,51.1033204 L101.401069,48.041939 L120.978877,48.1918684 C124.774592,39.6877746 125.002519,29.9495455 121.609062,21.2670315 L95.3430802,35.2976203 L119.566421,16.9622696 C113.380798,5.95539438 101.744794,-0.574098046 89.4093841,0.0397801097 C77.0739741,0.653658266 66.1036689,8.3081655 60.9776376,19.8779711 C55.8516063,31.4477768 57.4277652,44.9965045 65.0625697,54.9922169 C63.5954805,56.9126256 62.3336994,58.9902872 61.2990922,61.1891972 L84.7967865,73.7599465 L59.7416939,65.1009939 C56.1676277,75.9804738 58.1689224,87.9826355 65.0625697,97.0113421 C54.4217106,110.941924 55.9655484,130.954553 68.6087783,142.980523 C81.2520082,155.006492 100.747992,155.006492 113.391222,142.980523 C126.034452,130.954553 127.578289,110.941924 116.93743,97.0113421 C126.353505,84.6830132 126.353505,67.3205457 116.93743,54.9922169 L116.937441,54.9922355 Z" id="Path" fill="#6C63FF"></path>
                <path d="M58,75.4908829 C57.9891191,82.9639217 60.4775435,90.2219105 65.0625697,96.0887857 C54.4217106,109.746413 55.9655484,129.366916 68.6087783,141.15725 C81.2520082,152.947583 100.747992,152.947583 113.391222,141.15725 C126.034452,129.366916 127.578289,109.746413 116.93743,96.0887857 C121.360351,90.4202057 58,71.7517175 58,75.4908829 Z" id="Path" fill="#000000" opacity="0.1"></path>
                <path d="M275.058982,275.386606 C266.307379,306.552075 198.779391,335.457273 126.969439,315.317955 C55.159486,295.178636 6.26053866,233.621162 15.0121341,202.455686 C23.7637295,171.29021 86.851845,182.318472 158.661798,202.45779 C230.47175,222.597108 283.810607,244.221134 275.058982,275.386606 Z" id="Path" fill="#3F3D56"></path>
                <path d="M275.058982,275.386606 C266.307379,306.552075 198.779391,335.457273 126.969439,315.317955 C55.159486,295.178636 6.26053866,233.621162 15.0121341,202.455686 C23.7637295,171.29021 86.851845,182.318472 158.661798,202.45779 C230.47175,222.597108 283.810607,244.221134 275.058982,275.386606 Z" id="Path" fill="#000000" opacity="0.1"></path>
                <ellipse id="Oval" fill="#3F3D56" transform="translate(146.269456, 238.656705) rotate(-74.324190) translate(-146.269456, -238.656705) " cx="146.269456" cy="238.656705" rx="58.6943896" ry="135.109598"></ellipse>
                <ellipse id="Oval" fill="#000000" opacity="0.1" cx="124.5" cy="240" rx="40.5" ry="11"></ellipse>
                <path d="M174.233582,173.442614 L124.508581,223.84032 L103.608965,202.657758 C100.818952,199.829978 96.2954266,199.829957 93.5053871,202.65771 L92.7545794,201.519533 C89.9645297,204.347298 90.715319,210.070221 93.5053614,212.897997 L120.622405,240.381788 C122.750448,242.53861 126.200403,242.53952 128.329554,240.383821 L184.332016,183.682991 C187.123855,180.856336 188.136602,175.673046 185.346185,172.844954 L185.346185,172.844954 C182.55684,170.017945 177.022886,170.615575 174.233582,173.442614 Z" id="Path" fill="#57B894"></path>
                <path d="M174.233582,173.442614 L124.508581,223.84032 L103.608965,202.657758 C100.818952,199.829978 96.2954266,199.829957 93.5053871,202.65771 L92.7545794,201.519533 C89.9645297,204.347298 90.715319,210.070221 93.5053614,212.897997 L120.622405,240.381788 C122.750448,242.53861 126.200403,242.53952 128.329554,240.383821 L184.332016,183.682991 C187.123855,180.856336 188.136602,175.673046 185.346185,172.844954 L185.346185,172.844954 C182.55684,170.017945 177.022886,170.615575 174.233582,173.442614 Z" id="Path" fill="#000000" opacity="0.1"></path>
                <path d="M174.680352,172.099984 L124.43924,222.014454 L103.3227,201.035 C100.503729,198.234334 95.9332522,198.234313 93.114254,201.034952 L93.114254,201.034952 C91.7605204,202.379873 91,204.203983 91,206.105996 C91,208.008008 91.7605204,209.832118 93.114254,211.17704 L120.512754,238.397304 C122.662885,240.533445 126.148648,240.534347 128.299898,238.399318 L184.883627,182.24216 C186.238191,180.897807 187,179.07377 187,177.171575 C187,175.269381 186.240101,173.444959 184.886226,172.099921 L184.886226,172.099921 C182.06793,169.300002 177.498614,169.30003 174.680352,172.099984 Z" id="Path" fill="#57B894"></path>
                <path d="M197.707464,258 C197.707464,258 193.029039,259.273625 190.689827,261.820871 C190.689827,261.820871 186.479241,263.519033 183.906109,263.094492 C181.332977,262.66995 176.654548,266.915359 180.39729,268.188983 C184.140033,269.462608 207.064313,272.858934 207.532157,271.797581 C208,270.736229 208,259.910435 208,259.910435 L197.707464,258 Z" id="Path" fill="#575A89"></path>
                <path d="M231.752815,257 C231.752815,257 227.401817,258.96373 225.584367,261.812446 C225.584367,261.812446 221.771899,264.119116 219.168011,264.099801 C216.564123,264.080486 212.770064,268.948204 216.680503,269.617441 C220.590942,270.286678 243.716918,270.08163 243.976977,268.972574 C244.237035,267.863518 242.208175,257.284693 242.208175,257.284693 L231.752815,257 Z" id="Path" fill="#575A89"></path>
                <circle id="Oval" fill="#FFB9B9" cx="206" cy="94" r="10"></circle>
                <path d="M212.812703,95 C212.812703,95 213.971945,102.129035 216.058575,102.967746 C217.510351,103.614041 218.840468,104.463161 220,105.483877 L214.203792,108 L202.843239,107.370965 C202.843239,107.370965 203.77063,102.75806 202.14769,100.451609 C200.52475,98.1451585 212.812703,95 212.812703,95 Z" id="Path" fill="#FFB9B9"></path>
                <path d="M232.761062,132 C232.761062,132 237.798672,145.291209 232.761062,158.131868 C227.723452,170.972526 225.533183,173 225.533183,173 L224,156.104397 L225.762951,154.45939 C225.762951,154.45939 226.830503,149.333514 225.962818,146.298625 C225.095133,143.263735 226.409291,133.802197 226.409291,133.802197 L232.761062,132 Z" id="Path" fill="#FFB9B9"></path>
                <path d="M195.804144,159.394157 C195.804144,159.394157 189.384044,174.367519 190.048191,181.627331 C190.712339,188.887143 195.804144,219.514474 195.804144,219.514474 C195.804144,219.514474 195.139997,258.989712 197.13245,258.989712 C199.124903,258.989712 208.644352,262.619616 208.644352,260.124058 C208.644352,257.628499 210.636798,197.73505 210.636798,197.73505 C210.636798,197.73505 221.927319,224.051867 223.034233,226.093687 C224.141146,228.135506 231.225394,260.124054 233.660602,260.124054 C236.095811,260.124054 243.622828,257.855363 242.958681,256.267279 C242.294534,254.679194 234.767509,219.287606 230.561235,210.212843 C226.354962,201.138079 227.240495,166.880844 227.240495,166.880844 L220.156262,151 L195.804144,159.394157 Z" id="Path" fill="#2F2E41"></path>
                <path d="M200.191031,90.2932909 C200.191031,90.2932909 193.551929,89.853909 193.07769,88.3160741 C192.603451,86.7782392 191.655024,85.4600971 192.129248,85.4600971 C192.603471,85.4600971 192.840581,84.3616442 192.840581,84.3616442 C192.840581,84.3616442 193.314804,84.141955 193.551914,84.3616442 C193.789023,84.5813333 194.026137,82.8238129 194.026137,82.8238129 C194.026137,82.8238129 194.263247,82.1647418 194.50036,82.6041238 C194.737474,83.0435057 194.73747,82.8238129 194.974583,82.1647418 C195.211697,81.5056708 196.397257,81.0662852 196.397257,81.0662852 C196.397257,81.0662852 200.902372,81.2859744 201.613705,80.4072142 C202.325038,79.528454 210.386822,80.1875214 212.046601,81.2859744 C213.70638,82.3844274 221.056827,86.338861 219.871271,89.6342199 C218.685715,92.9295788 214.417713,100.179368 214.417713,101.277821 C214.417713,102.376274 212.757938,102.156584 212.283711,101.058132 C211.809483,99.9596786 208.015709,98.6415328 208.015709,97.982469 C208.015709,97.3234052 205.881706,91.172062 204.696158,91.6114403 C203.51061,92.0508186 202.087936,95.5658739 201.613713,94.9068029 C201.13949,94.2477318 200.191031,90.2932909 200.191031,90.2932909 Z" id="Path" fill="#3F3D56"></path>
                <path d="M233,120.225914 C233,120.225914 223.614565,107.069765 220.867608,106.411958 C218.120652,105.754152 211.94,104 211.94,104 C211.94,104 205.759349,104.877074 203.92806,105.754152 C202.096772,106.63123 195.229368,108.16611 195.000452,110.79734 C194.771537,113.42857 196.831759,138.644518 195.68719,141.056477 C194.542622,143.468435 190.651108,166.491696 192.482415,166.053157 C194.313722,165.614618 192.940241,159.913634 200.952196,159.694352 C208.964151,159.47507 213.313499,154.870432 216.289367,160.352159 C219.265236,165.833886 227.735017,170 227.735017,170 C227.9479,168.232247 228.253504,166.475873 228.650671,164.737541 C229.337409,161.667779 226.819367,154.212625 226.819367,154.212625 C226.819367,154.212625 227.048279,136.890366 227.963932,134.916943 C228.879586,132.94352 233,120.225914 233,120.225914 Z" id="Path" fill="#575A89"></path>
                <path d="M227.935703,118 L231.408378,118.465754 C231.408378,118.465754 231.176864,123.123289 232.102912,124.520547 C233.02896,125.917806 234.649542,133.136987 233.72349,133.369866 C232.797438,133.602745 224.463024,135 224.463024,135 L224,124.287668 L227.935703,118 Z" id="Path" fill="#575A89"></path>
                <path d="M193.799069,127 C193.799069,127 191.452737,141.346894 190.27957,143.112665 C189.106404,144.878436 183.240568,169.599243 183.240568,169.599243 C183.240568,169.599243 173.594733,182.217858 178.287398,181.997138 C182.980063,181.776418 187.933238,170.48213 187.933238,170.48213 C187.933238,170.48213 202.480501,145.540603 202.480501,142.891949 C202.480501,140.243294 206,127 206,127 L193.799069,127 Z" id="Path" fill="#FFB9B9"></path>
                <path d="M198.697516,107 L194.923324,108.493331 C194.923324,108.493331 190.10075,125.986665 191.149136,127.48 C192.197522,128.973334 204.778151,126.84 204.98783,126.199997 C205.19751,125.559995 202.68138,107 198.697516,107 Z" id="Path" fill="#575A89"></path>
                <path d="M20,155 C20,171.029296 29.3925787,184 41,184" id="Path" fill="#3F3D56"></path>
                <path d="M42,185 C42,168.417969 52.2871086,155 65,155" id="Path" fill="#6C63FF"></path>
                <path d="M29,156 C29,170.923829 34.8144523,183 42,183" id="Path" fill="#6C63FF"></path>
                <path d="M42,184 C42,162.996094 54.9707019,146 71,146" id="Path" fill="#3F3D56"></path>
                <path d="M38,182.001841 C38,182.001841 40.9561983,181.887736 41.8471216,181.092693 C42.7380448,180.29765 46.3945012,179.348316 46.6155166,180.623397 C46.836532,181.898477 51.0581364,186.965066 47.7206007,186.998803 C44.383065,187.032541 39.965643,186.3473 39.0764502,185.668503 C38.1872573,184.989707 38,182.001841 38,182.001841 Z" id="Path" fill="#A8A8A8"></path>
                <path d="M47.7808337,186.733126 C44.4430678,186.753362 40.0253329,186.342462 39.1360778,185.935424 C38.4588486,185.625444 38.1889798,184.513162 38.0986839,184 C38.03615,184.002018 38,184.002889 38,184.002889 C38,184.002889 38.1872493,185.794542 39.076522,186.201577 C39.9657948,186.608613 44.383512,187.019518 47.7212815,186.999282 C48.6847611,186.993442 49.0175656,186.735862 48.9992915,186.354364 C48.8654302,186.584855 48.4979664,186.728783 47.7808337,186.733126 Z" id="Path" fill="#000000" opacity="0.2"></path>
            </g>
        </g>
    </g>
</svg>