<?xml version="1.0" encoding="UTF-8"?>
<svg width="10px" height="10px" viewBox="0 0 10 10" version="1.1" xmlns="http://www.w3.org/2000/svg" xmlns:xlink="http://www.w3.org/1999/xlink">
    <!-- Generator: Sketch 55.2 (78181) - https://sketchapp.com -->
    <title>ic-cancel</title>
    <desc>Created with Sketch.</desc>
    <defs>
        <path d="M13.4142136,12 L16.7071068,15.2928932 C17.0976311,15.6834175 17.0976311,16.3165825 16.7071068,16.7071068 C16.3165825,17.0976311 15.6834175,17.0976311 15.2928932,16.7071068 L12,13.4142136 L8.70710678,16.7071068 C8.31658249,17.0976311 7.68341751,17.0976311 7.29289322,16.7071068 C6.90236893,16.3165825 6.90236893,15.6834175 7.29289322,15.2928932 L10.5857864,12 L7.29289322,8.70710678 C6.90236893,8.31658249 6.90236893,7.68341751 7.29289322,7.29289322 C7.68341751,6.90236893 8.31658249,6.90236893 8.70710678,7.29289322 L12,10.5857864 L15.2928932,7.29289322 C15.6834175,6.90236893 16.3165825,6.90236893 16.7071068,7.29289322 C17.0976311,7.68341751 17.0976311,8.31658249 16.7071068,8.70710678 L13.4142136,12 Z" id="path-1"></path>
    </defs>
    <g id="01_Pages" stroke="none" stroke-width="1" fill="none" fill-rule="evenodd">
        <g id="D_05B5.1_Guide-Profile---Settings-Edit" transform="translate(-1004.000000, -704.000000)">
            <g id="Icon-/-Line-/-Cross" transform="translate(997.000000, 697.000000)">
                <mask id="mask-2" fill="white">
                    <use xlink:href="#path-1"></use>
                </mask>
                <use id="Mask" fill-opacity="0" fill="#051033" fill-rule="nonzero" xlink:href="#path-1"></use>
                <g id="Color-/-Black-/-Black-800" mask="url(#mask-2)" fill="#F03D3D" fill-rule="evenodd">
                    <polygon id="Black-/-Black-800" points="0 0 24 0 24 24 0 24"></polygon>
                </g>
            </g>
        </g>
    </g>
</svg>