<?xml version="1.0" encoding="UTF-8"?>
<svg width="18px" height="18px" viewBox="0 0 18 18" version="1.1" xmlns="http://www.w3.org/2000/svg" xmlns:xlink="http://www.w3.org/1999/xlink">
    <!-- Generator: Sketch 55.2 (78181) - https://sketchapp.com -->
    <title>ic-check-mark</title>
    <desc>Created with Sketch.</desc>
    <g id="01_Pages" stroke="none" stroke-width="1" fill="none" fill-rule="evenodd">
        <g id="D_05A_Guide-Public-Profile" transform="translate(-119.000000, -1443.000000)" fill="#3CCF8E">
            <g id="ic-check-mark" transform="translate(119.000000, 1443.000000)">
                <g id="Group-3">
                    <path d="M8.71865217,0.1752 C3.91147826,0.1752 0,4.1736 0,9.088 C0,14.002 3.91147826,18.0004 8.71865217,18.0004 C13.5258261,18.0004 17.4373043,14.002 17.4373043,9.088 C17.4373043,4.1736 13.5258261,0.1752 8.71865217,0.1752 Z M8.71865217,16.5628 C4.68665217,16.5628 1.40478261,13.2096 1.40478261,9.088 C1.40478261,4.9644 4.68665217,1.6112 8.71865217,1.6112 C12.7510435,1.6112 16.0313478,4.966 16.0313478,9.088 C16.0313478,13.2096 12.7510435,16.5628 8.71865217,16.5628 Z" id="Fill-1"></path>
                </g>
                <path d="M11.4976957,6.2456 L7.42852174,10.4068 L5.93843478,8.8832 C5.66491304,8.6036 5.22,8.6036 4.94647826,8.8832 C4.6713913,9.1644 4.6713913,9.6192 4.94647826,9.8988 L6.93195652,11.93 C7.06930435,12.0692 7.24813043,12.1396 7.42852174,12.1396 C7.60734783,12.1396 7.78773913,12.0692 7.92547826,11.93 L12.4912174,7.2612 C12.7663043,6.98 12.7663043,6.5268 12.4912174,6.2456 C12.2176957,5.966 11.7727826,5.966 11.4976957,6.2456 Z" id="Fill-4"></path>
            </g>
        </g>
    </g>
</svg>