<?xml version="1.0" encoding="UTF-8"?>
<svg width="32px" height="28px" viewBox="0 0 32 28" version="1.1" xmlns="http://www.w3.org/2000/svg" xmlns:xlink="http://www.w3.org/1999/xlink">
    <!-- Generator: Sketch 55.2 (78181) - https://sketchapp.com -->
    <title>ic-events</title>
    <desc>Created with Sketch.</desc>
    <g id="01_Pages" stroke="none" stroke-width="1" fill="none" fill-rule="evenodd">
        <g id="D_06_Personal-Profile" transform="translate(-132.000000, -1160.000000)" fill="#FFFFFF">
            <path d="M136.042105,1176.9697 C135.670232,1176.9697 135.368421,1176.77964 135.368421,1176.54545 C135.368421,1176.31127 135.670232,1176.12121 136.042105,1176.12121 L138.063158,1176.12121 C138.435032,1176.12121 138.736842,1176.31127 138.736842,1176.54545 C138.736842,1176.77964 138.435032,1176.9697 138.063158,1176.9697 L136.042105,1176.9697 Z M140.180451,1176.9697 C139.848421,1176.9697 139.578947,1176.77964 139.578947,1176.54545 C139.578947,1176.31127 139.848421,1176.12121 140.180451,1176.12121 L143.18797,1176.12121 C143.52,1176.12121 143.789474,1176.31127 143.789474,1176.54545 C143.789474,1176.77964 143.52,1176.9697 143.18797,1176.9697 L140.180451,1176.9697 Z M135.980861,1180.36364 C135.642794,1180.36364 135.368421,1180.17358 135.368421,1179.93939 C135.368421,1179.70521 135.642794,1179.51515 135.980861,1179.51515 L141.492823,1179.51515 C141.83089,1179.51515 142.105263,1179.70521 142.105263,1179.93939 C142.105263,1180.17358 141.83089,1180.36364 141.492823,1180.36364 L135.980861,1180.36364 Z M147.398496,1182.90909 C147.730526,1182.90909 148,1183.09915 148,1183.33333 C148,1183.56752 147.730526,1183.75758 147.398496,1183.75758 L135.969925,1183.75758 C135.637895,1183.75758 135.368421,1183.56752 135.368421,1183.33333 C135.368421,1183.09915 135.637895,1182.90909 135.969925,1182.90909 L147.398496,1182.90909 Z M162.64498,1173.68637 C162.845134,1173.25473 162.865328,1172.77343 162.701997,1172.33116 L159.00835,1162.34331 C158.845019,1161.90103 158.515982,1161.54804 158.08182,1161.34819 C157.648251,1161.14893 157.164199,1161.12882 156.720533,1161.29202 L154.978538,1161.93 C155.021895,1162.34626 154.951811,1162.76844 154.770663,1163.15809 C154.504582,1163.73222 154.030033,1164.16799 153.434321,1164.38617 C152.839204,1164.60435 152.194197,1164.57893 151.618085,1164.31403 C151.226091,1164.13429 150.898242,1163.85757 150.659483,1163.51344 L134.426796,1169.46347 C133.982537,1169.62607 133.627367,1169.95363 133.427213,1170.38527 C133.227058,1170.8169 133.206865,1171.2982 133.370195,1171.74047 C133.390389,1171.79487 133.391577,1171.84986 133.395734,1171.90426 C133.85306,1171.6169 134.389972,1171.44424 134.969647,1171.44424 L152.787532,1171.44424 C153.115381,1171.44424 153.381462,1171.70914 153.381462,1172.03552 C153.381462,1172.68829 153.914216,1173.21807 154.569321,1173.21807 C155.224425,1173.21807 155.75718,1172.68829 155.75718,1172.03552 C155.75718,1171.70914 156.02326,1171.44424 156.351109,1171.44424 L158.726827,1171.44424 C160.364291,1171.44424 161.696474,1172.77107 161.696474,1174.40063 L161.696474,1174.58392 C162.115195,1174.41482 162.452547,1174.10085 162.64498,1173.68637 Z M160.508615,1185.04361 L160.508615,1174.40063 C160.508615,1173.42266 159.709186,1172.6268 158.726827,1172.6268 L156.869609,1172.6268 C156.605311,1173.64616 155.674029,1174.40063 154.569321,1174.40063 C153.464018,1174.40063 152.53333,1173.64616 152.268438,1172.6268 L134.969647,1172.6268 C133.987288,1172.6268 133.187859,1173.42266 133.187859,1174.40063 L133.187859,1185.04361 C133.187859,1186.02218 133.987288,1186.81745 134.969647,1186.81745 L152.268438,1186.81745 C152.53333,1185.79868 153.464018,1185.04361 154.569321,1185.04361 C155.674029,1185.04361 156.605311,1185.79868 156.869609,1186.81745 L158.726827,1186.81745 C159.709186,1186.81745 160.508615,1186.02218 160.508615,1185.04361 Z M163.816803,1171.922 C164.09001,1172.66109 164.05675,1173.46345 163.722962,1174.18186 C163.389767,1174.90085 162.79762,1175.44601 162.055802,1175.71799 C161.988094,1175.74283 161.918604,1175.75465 161.850896,1175.75465 C161.798036,1175.75465 161.746365,1175.7446 161.696474,1175.731 L161.696474,1185.04361 C161.696474,1186.67377 160.364291,1188 158.726827,1188 L156.351109,1188 C156.02326,1188 155.75718,1187.7357 155.75718,1187.40872 C155.75718,1186.75654 155.224425,1186.22617 154.569321,1186.22617 C153.914216,1186.22617 153.381462,1186.75654 153.381462,1187.40872 C153.381462,1187.7357 153.115381,1188 152.787532,1188 L134.969647,1188 C133.332184,1188 132,1186.67377 132,1185.04361 L132,1174.40063 C132,1173.68104 132.269644,1173.02946 132.700837,1172.51623 C132.504246,1172.4778 132.329631,1172.35067 132.25539,1172.14964 C131.982182,1171.41054 132.015442,1170.60818 132.348637,1169.88978 C132.681831,1169.17078 133.273979,1168.62563 134.016391,1168.35364 L150.736694,1162.22505 C150.884582,1162.17065 151.048507,1162.17775 151.19105,1162.24279 C151.334187,1162.30842 151.444658,1162.42845 151.499299,1162.57568 C151.608582,1162.87191 151.827742,1163.10783 152.115798,1163.24027 C152.404448,1163.37331 152.726951,1163.38573 153.023916,1163.27634 C153.322069,1163.16696 153.55964,1162.94937 153.692087,1162.6626 C153.825127,1162.37583 153.838193,1162.05476 153.728316,1161.75853 C153.674269,1161.61131 153.680802,1161.44871 153.746728,1161.30621 C153.812654,1161.16371 153.933222,1161.05314 154.081111,1160.99874 L156.310128,1160.18219 C157.051946,1159.91079 157.858502,1159.94331 158.580126,1160.27502 C159.301751,1160.60673 159.849948,1161.19623 160.123155,1161.93474 L163.816803,1171.922 Z" id="ic-events"></path>
        </g>
    </g>
</svg>