<?xml version="1.0" encoding="UTF-8"?>
<svg width="120px" height="105px" viewBox="0 0 120 105" version="1.1" xmlns="http://www.w3.org/2000/svg" xmlns:xlink="http://www.w3.org/1999/xlink">
    <!-- Generator: Sketch 55.2 (78181) - https://sketchapp.com -->
    <title>ic-events-epmty-state</title>
    <desc>Created with Sketch.</desc>
    <defs>
        <linearGradient x1="1.46315029%" y1="12.8389744%" x2="98.2229949%" y2="86.9207305%" id="linearGradient-1">
            <stop stop-color="#D438FF" offset="0%"></stop>
            <stop stop-color="#8C58FF" offset="100%"></stop>
        </linearGradient>
    </defs>
    <g id="01_Pages" stroke="none" stroke-width="1" fill="none" fill-rule="evenodd">
        <g id="D_06B3_Personal-Profile---Events-Empty" transform="translate(-708.000000, -759.000000)" fill="url(#linearGradient-1)">
            <path d="M723.157895,823.05 C721.763368,823.05 720.631579,822.3444 720.631579,821.475 C720.631579,820.6056 721.763368,819.9 723.157895,819.9 L730.736842,819.9 C732.131368,819.9 733.263158,820.6056 733.263158,821.475 C733.263158,822.3444 732.131368,823.05 730.736842,823.05 L723.157895,823.05 Z M738.676692,823.05 C737.431579,823.05 736.421053,822.3444 736.421053,821.475 C736.421053,820.6056 737.431579,819.9 738.676692,819.9 L749.954887,819.9 C751.2,819.9 752.210526,820.6056 752.210526,821.475 C752.210526,822.3444 751.2,823.05 749.954887,823.05 L738.676692,823.05 Z M722.92823,835.65 C721.660478,835.65 720.631579,834.9444 720.631579,834.075 C720.631579,833.2056 721.660478,832.5 722.92823,832.5 L743.598086,832.5 C744.865837,832.5 745.894737,833.2056 745.894737,834.075 C745.894737,834.9444 744.865837,835.65 743.598086,835.65 L722.92823,835.65 Z M765.744361,845.1 C766.989474,845.1 768,845.8056 768,846.675 C768,847.5444 766.989474,848.25 765.744361,848.25 L722.887218,848.25 C721.642105,848.25 720.631579,847.5444 720.631579,846.675 C720.631579,845.8056 721.642105,845.1 722.887218,845.1 L765.744361,845.1 Z M822.918674,810.323872 C823.669253,808.705251 823.744979,806.900378 823.132489,805.241846 L809.281311,767.787403 C808.668821,766.128871 807.434933,764.80515 805.806823,764.055706 C804.180941,763.30848 802.365744,763.233092 800.701999,763.845064 L794.169518,766.237518 C794.332106,767.79849 794.069292,769.381634 793.389985,770.842827 C792.392184,772.995815 790.612622,774.629957 788.378705,775.448136 C786.147015,776.266316 783.728237,776.170972 781.567819,775.177627 C780.097843,774.503571 778.868409,773.46588 777.97306,772.175418 L717.100485,794.487995 C715.434512,795.09775 714.102626,796.326128 713.352047,797.944749 C712.601469,799.563369 712.525743,801.368243 713.138232,803.026775 C713.213959,803.230765 713.218413,803.436973 713.234004,803.640964 C714.948975,802.563361 716.962396,801.915913 719.136178,801.915913 L785.953245,801.915913 C787.182679,801.915913 788.180481,802.909258 788.180481,804.133202 C788.180481,806.581089 790.178311,808.567779 792.634952,808.567779 C795.091593,808.567779 797.089423,806.581089 797.089423,804.133202 C797.089423,802.909258 798.087225,801.915913 799.316659,801.915913 L808.225601,801.915913 C814.36609,801.915913 819.361779,806.891509 819.361779,813.002357 L819.361779,813.689717 C820.93198,813.055572 822.19705,811.878192 822.918674,810.323872 Z M814.907308,852.913556 L814.907308,813.002357 C814.907308,809.334961 811.909449,806.350491 808.225601,806.350491 L801.261036,806.350491 C800.269916,810.173096 796.77761,813.002357 792.634952,813.002357 C788.490067,813.002357 784.999989,810.173096 784.006642,806.350491 L719.136178,806.350491 C715.45233,806.350491 712.454471,809.334961 712.454471,813.002357 L712.454471,852.913556 C712.454471,856.583169 715.45233,859.565422 719.136178,859.565422 L784.006642,859.565422 C784.999989,855.745034 788.490067,852.913556 792.634952,852.913556 C796.77761,852.913556 800.269916,855.745034 801.261036,859.565422 L808.225601,859.565422 C811.909449,859.565422 814.907308,856.583169 814.907308,852.913556 Z M827.31301,803.707482 C828.337539,806.479093 828.212813,809.487954 826.961107,812.18196 C825.711628,814.878183 823.491074,816.922524 820.709257,817.942477 C820.455352,818.035603 820.194765,818.079948 819.94086,818.079948 C819.742637,818.079948 819.548867,818.042255 819.361779,817.991257 L819.361779,852.913556 C819.361779,859.026621 814.36609,864 808.225601,864 L799.316659,864 C798.087225,864 797.089423,863.008872 797.089423,861.782711 C797.089423,859.337042 795.091593,857.348134 792.634952,857.348134 C790.178311,857.348134 788.180481,859.337042 788.180481,861.782711 C788.180481,863.008872 787.182679,864 785.953245,864 L719.136178,864 C712.995689,864 708,859.026621 708,852.913556 L708,813.002357 C708,810.303917 709.011165,807.860464 710.628138,805.935858 C709.890923,805.791734 709.236116,805.315017 708.957711,804.561138 C707.933183,801.789527 708.057908,798.780667 709.307387,796.086661 C710.556866,793.390437 712.77742,791.346097 715.561465,790.326144 L778.262601,767.343946 C778.817183,767.139955 779.4319,767.166562 779.966436,767.410464 C780.5032,767.656583 780.917466,768.106693 781.122371,768.658798 C781.532183,769.76966 782.354033,770.654358 783.434242,771.15103 C784.516678,771.64992 785.726067,771.696484 786.839685,771.286285 C787.957757,770.876087 788.848652,770.060124 789.345325,768.984739 C789.844226,767.909354 789.893225,766.705366 789.481187,765.594505 C789.278508,765.0424 789.303008,764.432645 789.550231,763.898279 C789.797454,763.363912 790.249583,762.949279 790.804165,762.745289 L799.16298,759.683213 C801.944797,758.665477 804.969383,758.787428 807.675474,760.031327 C810.381565,761.275226 812.437304,763.485863 813.461832,766.255257 L827.31301,803.707482 Z" id="ic-events-epmty-state"></path>
        </g>
    </g>
</svg>