<?xml version="1.0" encoding="UTF-8"?>
<svg xmlns="http://www.w3.org/2000/svg" width="24" height="56" viewBox="0 0 24 56">
    <svg width="24px" height="24px" x="0" y="2" viewBox="0 0 24 24" version="1.1" xmlns="http://www.w3.org/2000/svg" xmlns:xlink="http://www.w3.org/1999/xlink"><g id="01_Pages" stroke="none" stroke-width="1" fill="none" fill-rule="evenodd"><g id="D_06_Personal-Profile" transform="translate(-541.000000, -633.000000)" fill="#C9CED6"><path d="M553,657 C546.383,657 541,651.617 541,645 C541,638.383 546.383,633 553,633 C559.617,633 565,638.383 565,645 C565,651.617 559.617,657 553,657 Z M553,634 C546.935,634 542,638.935 542,645 C542,651.065 546.935,656 553,656 C559.065,656 564,651.065 564,645 C564,638.935 559.065,634 553,634 Z M548.5,643 C547.673,643 547,642.327 547,641.5 C547,640.673 547.673,640 548.5,640 C549.327,640 550,640.673 550,641.5 C550,642.327 549.327,643 548.5,643 Z M548.5,641 C548.224,641 548,641.224 548,641.5 C548,641.776 548.224,642 548.5,642 C548.776,642 549,641.776 549,641.5 C549,641.224 548.776,641 548.5,641 Z M557.5,643 C556.673,643 556,642.327 556,641.5 C556,640.673 556.673,640 557.5,640 C558.327,640 559,640.673 559,641.5 C559,642.327 558.327,643 557.5,643 Z M557.5,641 C557.224,641 557,641.224 557,641.5 C557,641.776 557.224,642 557.5,642 C557.776,642 558,641.776 558,641.5 C558,641.224 557.776,641 557.5,641 Z M553,652 C550.607,652 548.404,650.792 547.107,648.77 C546.958,648.538 547.025,648.228 547.258,648.079 C547.489,647.929 547.8,647.997 547.949,648.23 C549.062,649.964 550.95,651 553,651 C555.05,651 556.938,649.964 558.051,648.23 C558.2,647.998 558.509,647.929 558.742,648.079 C558.974,648.228 559.042,648.537 558.893,648.77 C557.596,650.792 555.393,652 553,652 Z" id="ic-emoji"></path></g></g></svg>
    <svg width="24px" height="24px" x="0" y="30" viewBox="0 0 24 24" version="1.1" xmlns="http://www.w3.org/2000/svg" xmlns:xlink="http://www.w3.org/1999/xlink"><g id="01_Pages" stroke="none" stroke-width="1" fill="none" fill-rule="evenodd"><g id="D_06_Personal-Profile" transform="translate(-541.000000, -633.000000)" fill="#8A94A6"><path d="M553,657 C546.383,657 541,651.617 541,645 C541,638.383 546.383,633 553,633 C559.617,633 565,638.383 565,645 C565,651.617 559.617,657 553,657 Z M553,634 C546.935,634 542,638.935 542,645 C542,651.065 546.935,656 553,656 C559.065,656 564,651.065 564,645 C564,638.935 559.065,634 553,634 Z M548.5,643 C547.673,643 547,642.327 547,641.5 C547,640.673 547.673,640 548.5,640 C549.327,640 550,640.673 550,641.5 C550,642.327 549.327,643 548.5,643 Z M548.5,641 C548.224,641 548,641.224 548,641.5 C548,641.776 548.224,642 548.5,642 C548.776,642 549,641.776 549,641.5 C549,641.224 548.776,641 548.5,641 Z M557.5,643 C556.673,643 556,642.327 556,641.5 C556,640.673 556.673,640 557.5,640 C558.327,640 559,640.673 559,641.5 C559,642.327 558.327,643 557.5,643 Z M557.5,641 C557.224,641 557,641.224 557,641.5 C557,641.776 557.224,642 557.5,642 C557.776,642 558,641.776 558,641.5 C558,641.224 557.776,641 557.5,641 Z M553,652 C550.607,652 548.404,650.792 547.107,648.77 C546.958,648.538 547.025,648.228 547.258,648.079 C547.489,647.929 547.8,647.997 547.949,648.23 C549.062,649.964 550.95,651 553,651 C555.05,651 556.938,649.964 558.051,648.23 C558.2,647.998 558.509,647.929 558.742,648.079 C558.974,648.228 559.042,648.537 558.893,648.77 C557.596,650.792 555.393,652 553,652 Z" id="ic-emoji"></path></g></g></svg>
</svg>