<?xml version="1.0" encoding="UTF-8"?>
<svg width="20px" height="20px" viewBox="0 0 20 20" version="1.1" xmlns="http://www.w3.org/2000/svg" xmlns:xlink="http://www.w3.org/1999/xlink">
    <!-- Generator: Sketch 55.2 (78181) - https://sketchapp.com -->
    <title>ic-favorite</title>
    <desc>Created with Sketch.</desc>
    <g id="Symbols" stroke="none" stroke-width="1" fill="none" fill-rule="evenodd">
        <g id="Card/Post/Image" transform="translate(-59.000000, -400.000000)" fill="#C9CED6">
            <g id="ic-favorite" transform="translate(59.000000, 400.000000)">
                <path d="M10,20 C9.91,20 9.82,19.9708333 9.745,19.9125 C9.34666667,19.6041667 0,12.2808333 0,5.625 C0,2.52333333 2.52333333,0 5.625,0 C7.34083333,0 8.93583333,0.773333333 10,2.095 C11.0641667,0.773333333 12.6591667,0 14.375,0 C17.4766667,0 20,2.52333333 20,5.625 C20,12.2808333 10.6533333,19.6041667 10.255,19.9125 C10.18,19.9708333 10.09,20 10,20 Z M5.625,0.833333333 C2.98333333,0.833333333 0.833333333,2.98333333 0.833333333,5.625 C0.833333333,11.2858333 8.49166667,17.8183333 10,19.0491667 C11.5083333,17.8183333 19.1666667,11.2866667 19.1666667,5.625 C19.1666667,2.98333333 17.0166667,0.833333333 14.375,0.833333333 C12.7433333,0.833333333 11.2391667,1.655 10.35,3.03166667 C10.1966667,3.26916667 9.80333333,3.26916667 9.65,3.03166667 C8.76083333,1.655 7.25666667,0.833333333 5.625,0.833333333 Z"></path>
            </g>
        </g>
    </g>
</svg>