<?xml version="1.0" encoding="UTF-8"?>
<svg width="32px" height="32px" viewBox="0 0 32 32" version="1.1" xmlns="http://www.w3.org/2000/svg" xmlns:xlink="http://www.w3.org/1999/xlink">
    <!-- Generator: Sketch 55.2 (78181) - https://sketchapp.com -->
    <title>ic-guide</title>
    <desc>Created with Sketch.</desc>
    <g id="01_Pages" stroke="none" stroke-width="1" fill="none" fill-rule="evenodd">
        <g id="D_06_Personal-Profile" transform="translate(-132.000000, -1255.000000)" fill="#FFFFFF">
            <path d="M153.521817,1264.02725 C153.194786,1263.60459 153,1263.07466 153,1262.5 C153,1261.12125 154.12125,1260 155.5,1260 C156.87875,1260 158,1261.12125 158,1262.5 C158,1263.87875 156.87875,1265 155.5,1265 C154.937618,1265 154.418079,1264.81345 153.999998,1264.49897 C154.000373,1264.61103 153.947472,1264.72385 153.838442,1264.81724 C153.597763,1265.0237 153.053929,1265.44011 152.121742,1265.90702 C151.996788,1265.97001 151.853375,1266 151.710672,1266 C151.489162,1266 151.269782,1265.92701 151.132049,1265.79004 C150.90415,1265.56509 150.978696,1265.25315 151.298181,1265.09319 C152.096184,1264.69277 152.544883,1264.35084 152.740833,1264.18237 C152.934903,1264.01653 153.249108,1263.96104 153.521817,1264.02725 Z M162.406549,1277.03069 C160.805156,1280.48523 158.094962,1283.76665 157.020602,1285 C155.933327,1283.77012 153.18439,1280.48639 151.574386,1277.01158 C151.193102,1276.26346 151,1275.45512 151,1274.60915 C151,1271.5165 153.691744,1269 157.000307,1269 C160.308256,1269 163,1271.5165 163,1274.60915 C163,1275.44065 162.803208,1276.24899 162.406549,1277.03069 Z M145.241354,1265.86194 C145.428088,1266.19789 145.604782,1266.51475 145.804567,1266.73258 C146.024431,1266.97164 146.064588,1267.4158 145.895424,1267.72487 C145.796535,1267.90523 145.647951,1268 145.497862,1268 C145.39044,1268 145.282516,1267.95191 145.191157,1267.85218 C144.891981,1267.52684 144.6676,1267.1237 144.45125,1266.73471 C144.347843,1266.54869 144.243433,1266.36056 144.128481,1266.18021 C143.943254,1265.88953 143.960321,1265.44253 144.166631,1265.18155 C144.372942,1264.91987 144.690188,1264.94391 144.875416,1265.23531 C145.005427,1265.439 145.124394,1265.65188 145.241354,1265.86194 Z M142.465168,1265.02864 C142.79604,1265.05641 143.033497,1265.27865 142.996131,1265.52417 C142.958162,1265.77015 142.655616,1265.94668 142.328962,1265.9189 C141.435185,1265.84363 140.776454,1265.98118 140.77103,1265.98253 C140.715583,1265.99462 140.658931,1266 140.603485,1266 C140.342524,1266 140.101451,1265.87365 140.02491,1265.6783 C139.930892,1265.44173 140.111094,1265.19396 140.42931,1265.12317 C140.501029,1265.10704 141.321881,1264.93275 142.465168,1265.02864 Z M150.947825,1266.39753 C151.085368,1266.73287 150.941601,1267.12387 150.626683,1267.27034 C150.196628,1267.46982 149.741055,1267.65538 149.271168,1267.82239 C149.099395,1267.88336 148.935712,1267.93505 148.78012,1267.97879 C148.727219,1267.99337 148.674318,1268 148.622661,1268 C148.345708,1268 148.093649,1267.80251 148.02021,1267.50428 C147.933701,1267.15038 148.132859,1266.78853 148.465825,1266.69575 C148.5959,1266.65997 148.73282,1266.61623 148.87721,1266.56453 C149.312244,1266.41078 149.732964,1266.2398 150.128167,1266.05556 C150.443085,1265.9091 150.810282,1266.06219 150.947825,1266.39753 Z M137.5,1268.75 C138.189375,1268.75 138.75,1268.18937 138.75,1267.5 C138.75,1266.81063 138.189375,1266.25 137.5,1266.25 C136.810625,1266.25 136.25,1266.81063 136.25,1267.5 C136.25,1268.18937 136.810625,1268.75 137.5,1268.75 Z M137.5,1265 C138.87875,1265 140,1266.12125 140,1267.5 C140,1268.87875 138.87875,1270 137.5,1270 C136.12125,1270 135,1268.87875 135,1267.5 C135,1266.12125 136.12125,1265 137.5,1265 Z M155.5,1261.25 C154.810625,1261.25 154.25,1261.81063 154.25,1262.5 C154.25,1263.18937 154.810625,1263.75 155.5,1263.75 C156.189375,1263.75 156.75,1263.18937 156.75,1262.5 C156.75,1261.81063 156.189375,1261.25 155.5,1261.25 Z M147.001826,1279 L139.951913,1275.86581 C139.79,1275.79397 139.603739,1275.79339 139.441217,1275.86523 L133,1278.70737 L133,1258.96539 L139.695652,1256 L146.744957,1259.12192 C146.906261,1259.19376 147.09313,1259.19318 147.255043,1259.12192 L154.304348,1256 L161,1258.96539 L161,1268.57004 C159.897652,1267.90711 158.59687,1267.51752 157.199913,1267.51752 C153.253739,1267.51752 150.043478,1270.57987 150.043478,1274.34369 C150.043478,1275.37343 150.275391,1276.35878 150.722783,1277.25359 C150.738,1277.28689 150.755043,1277.31959 150.770261,1277.3523 L147.001826,1279 Z M161.880141,1269.9092 C161.885523,1269.8772 161.899277,1269.84816 161.899277,1269.81497 L161.899277,1258.87463 C161.899277,1258.64352 161.764132,1258.43315 161.551847,1258.33656 L154.376021,1255.05422 C154.216957,1254.98193 154.033973,1254.98193 153.874909,1255.05422 L146.949638,1258.22219 L140.024368,1255.05481 C139.865304,1254.98193 139.68232,1254.98193 139.523256,1255.05422 L132.34743,1258.33656 C132.135743,1258.43315 132,1258.64352 132,1258.87463 L132,1280.20777 C132,1280.40984 132.103451,1280.59769 132.275671,1280.70672 C132.447293,1280.81576 132.662568,1280.83058 132.847943,1280.74643 L139.773214,1277.5909 L146.697886,1280.77013 C146.778017,1280.80687 146.863528,1280.82524 146.949638,1280.82524 C147.033954,1280.82524 147.11827,1280.80746 147.197204,1280.77191 L151.166034,1278.97993 C153.262572,1283.12626 156.401996,1286.64089 156.546708,1286.80208 C156.660326,1286.9277 156.822978,1287 156.993403,1287 L156.995197,1287 C157.166819,1286.99941 157.329471,1286.92593 157.442491,1286.79852 C157.597967,1286.62252 161.282754,1282.44241 163.314111,1277.82734 C163.769178,1276.88513 164,1275.88603 164,1274.85611 C164,1272.91895 163.186142,1271.16726 161.880141,1269.9092 L161.880141,1269.9092 Z M156.5,1276.77322 C155.246845,1276.77322 154.226779,1275.75315 154.226779,1274.5 C154.226779,1273.24623 155.246845,1272.22678 156.5,1272.22678 C157.753155,1272.22678 158.773221,1273.24623 158.773221,1274.5 C158.773221,1275.75315 157.753155,1276.77322 156.5,1276.77322 M156.5,1271 C154.570277,1271 153,1272.57028 153,1274.5 C153,1276.42972 154.570277,1278 156.5,1278 C158.429723,1278 160,1276.42972 160,1274.5 C160,1272.57028 158.429723,1271 156.5,1271" id="ic-guide"></path>
        </g>
    </g>
</svg>