<?xml version="1.0" encoding="UTF-8"?>
<svg xmlns="http://www.w3.org/2000/svg" width="28" height="50" viewBox="0 0 28 50">
    <svg width="28px" height="22px" x="0" y="0" viewBox="0 0 28 22" version="1.1" xmlns="http://www.w3.org/2000/svg" xmlns:xlink="http://www.w3.org/1999/xlink"><g id="01_Pages" stroke="none" stroke-width="1" fill="none" fill-rule="evenodd"><g id="D_06_Personal-Profile" transform="translate(-470.000000, -635.000000)" fill="#C9CED6"><path d="M470.514131,656.995924 C470.415676,656.98438 470.318888,656.948216 470.233792,656.886128 C470.079171,656.773314 469.998397,656.600588 470.000024,656.426367 C470.000008,656.424597 470,656.422826 470,656.421053 L470,635.578947 C470,635.259368 470.261333,635 470.583333,635 L497.416667,635 C497.738667,635 498,635.258211 498,635.578947 L498,656.421053 C498,656.422689 497.999993,656.424324 497.999979,656.425957 C498.001649,656.619219 497.901423,656.808555 497.719689,656.916725 C497.695131,656.931156 497.669863,656.943674 497.64409,656.954298 C497.574193,656.983722 497.497334,657 497.416667,657 L470.583333,657 C470.559689,657 470.536372,656.998602 470.513461,656.995883 Z M471.166667,654.732057 L478.865717,644.760662 C478.967214,644.629208 479.123543,644.547616 479.291538,644.535151 C479.461867,644.524952 479.625196,644.582746 479.745359,644.699468 L482.70511,647.57445 L486.99249,640.285572 C487.095153,640.111056 487.285315,640.002266 487.491809,640 C487.671471,640.03173 487.891964,640.100857 487.999295,640.273106 L496.833333,654.406564 L496.833333,636.157895 L471.166667,636.157895 L471.166667,654.732057 Z M496.364303,655.842105 L487.513975,641.683967 L483.339759,648.781331 C483.248761,648.934315 483.090099,649.038572 482.910437,649.062369 C482.731942,649.086167 482.549947,649.026106 482.420451,648.901452 L479.395369,645.964143 L471.768992,655.842105 L496.364303,655.842105 Z M480,643 C478.3452,643 477,641.6536 477,640 C477,638.3464 478.3452,637 480,637 C481.6548,637 483,638.3452 483,640 C483,641.6548 481.6548,643 480,643 Z M480,638.2 C479.0076,638.2 478.2,639.0076 478.2,640 C478.2,640.9924 479.0076,641.8 480,641.8 C480.9924,641.8 481.8,640.9924 481.8,640 C481.8,639.0076 480.9924,638.2 480,638.2 Z" id="ic-image"></path></g></g></svg>
    <svg width="28px" height="22px" x="0" y="28" viewBox="0 0 28 22" version="1.1" xmlns="http://www.w3.org/2000/svg" xmlns:xlink="http://www.w3.org/1999/xlink"><g id="01_Pages" stroke="none" stroke-width="1" fill="none" fill-rule="evenodd"><g id="D_06_Personal-Profile" transform="translate(-470.000000, -635.000000)" fill="#8A94A6"><path d="M470.514131,656.995924 C470.415676,656.98438 470.318888,656.948216 470.233792,656.886128 C470.079171,656.773314 469.998397,656.600588 470.000024,656.426367 C470.000008,656.424597 470,656.422826 470,656.421053 L470,635.578947 C470,635.259368 470.261333,635 470.583333,635 L497.416667,635 C497.738667,635 498,635.258211 498,635.578947 L498,656.421053 C498,656.422689 497.999993,656.424324 497.999979,656.425957 C498.001649,656.619219 497.901423,656.808555 497.719689,656.916725 C497.695131,656.931156 497.669863,656.943674 497.64409,656.954298 C497.574193,656.983722 497.497334,657 497.416667,657 L470.583333,657 C470.559689,657 470.536372,656.998602 470.513461,656.995883 Z M471.166667,654.732057 L478.865717,644.760662 C478.967214,644.629208 479.123543,644.547616 479.291538,644.535151 C479.461867,644.524952 479.625196,644.582746 479.745359,644.699468 L482.70511,647.57445 L486.99249,640.285572 C487.095153,640.111056 487.285315,640.002266 487.491809,640 C487.671471,640.03173 487.891964,640.100857 487.999295,640.273106 L496.833333,654.406564 L496.833333,636.157895 L471.166667,636.157895 L471.166667,654.732057 Z M496.364303,655.842105 L487.513975,641.683967 L483.339759,648.781331 C483.248761,648.934315 483.090099,649.038572 482.910437,649.062369 C482.731942,649.086167 482.549947,649.026106 482.420451,648.901452 L479.395369,645.964143 L471.768992,655.842105 L496.364303,655.842105 Z M480,643 C478.3452,643 477,641.6536 477,640 C477,638.3464 478.3452,637 480,637 C481.6548,637 483,638.3452 483,640 C483,641.6548 481.6548,643 480,643 Z M480,638.2 C479.0076,638.2 478.2,639.0076 478.2,640 C478.2,640.9924 479.0076,641.8 480,641.8 C480.9924,641.8 481.8,640.9924 481.8,640 C481.8,639.0076 480.9924,638.2 480,638.2 Z" id="ic-image"></path></g></g></svg>
</svg>