<?xml version="1.0" encoding="UTF-8"?>
<svg width="22px" height="24px" viewBox="0 0 22 24" version="1.1" xmlns="http://www.w3.org/2000/svg" xmlns:xlink="http://www.w3.org/1999/xlink">
    <!-- Generator: Sketch 55.2 (78181) - https://sketchapp.com -->
    <title>ic-kogout</title>
    <desc>Created with Sketch.</desc>
    <g id="01_Pages" stroke="none" stroke-width="1" fill="none" fill-rule="evenodd">
        <g id="D_06_Personal-Profile" transform="translate(-120.000000, -1336.000000)" fill="#121212">
            <path d="M136.5,1349 C136.224,1349 136,1349.224 136,1349.5 L136,1354.5 C136,1355.327 135.327,1356 134.5,1356 L130,1356 L130,1340.594 C130,1339.729 129.486,1338.95 128.691,1338.61 L124.935,1337 L134.5,1337 C135.327,1337 136,1337.673 136,1338.5 L136,1343.5 C136,1343.776 136.224,1344 136.5,1344 C136.776,1344 137,1343.776 137,1343.5 L137,1338.5 C137,1337.122 135.878,1336 134.5,1336 L122.5,1336 C122.46,1336 122.424,1336.014 122.386,1336.023 C122.311,1336.015 122.236,1336 122.159,1336 C120.969,1336 120,1336.969 120,1338.159 L120,1355.406 C120,1356.271 120.514,1357.05 121.309,1357.39 L126.989,1359.825 C127.259,1359.941 127.546,1360 127.841,1360 C129.031,1360 130,1359.031 130,1357.841 L130,1357 L134.5,1357 C135.878,1357 137,1355.878 137,1354.5 L137,1349.5 C137,1349.224 136.776,1349 136.5,1349 Z M129,1357.841 C129,1358.48 128.48,1359 127.841,1359 C127.683,1359 127.529,1358.969 127.384,1358.907 L121.703,1356.472 C121.276,1356.289 121,1355.87 121,1355.406 L121,1338.159 C121,1337.52 121.52,1337 122.159,1337 C122.317,1337 122.471,1337.031 122.616,1337.094 L128.297,1339.528 C128.724,1339.711 129,1340.13 129,1340.594 L129,1357.841 Z M127.5,1347 C127.224,1347 127,1347.224 127,1347.5 L127,1349.5 C127,1349.776 127.224,1350 127.5,1350 C127.776,1350 128,1349.776 128,1349.5 L128,1347.5 C128,1347.224 127.776,1347 127.5,1347 Z M141.973,1346.368 C141.968,1346.35 141.969,1346.33 141.962,1346.312 C141.936,1346.247 141.897,1346.19 141.847,1346.142 L138.853,1343.148 C138.658,1342.953 138.341,1342.953 138.146,1343.148 C137.951,1343.343 137.951,1343.66 138.146,1343.855 L140.291,1346 L131.5,1346 C131.224,1346 131,1346.224 131,1346.5 C131,1346.776 131.224,1347 131.5,1347 L140.293,1347 L138.146,1349.147 C137.951,1349.342 137.951,1349.659 138.146,1349.854 C138.244,1349.951 138.372,1350 138.5,1350 C138.628,1350 138.756,1349.951 138.853,1349.855 L141.853,1346.855 C141.867,1346.841 141.872,1346.823 141.884,1346.809 C141.913,1346.773 141.943,1346.736 141.961,1346.692 C141.979,1346.649 141.983,1346.603 141.988,1346.558 C141.991,1346.538 142,1346.52 142,1346.5 C142,1346.453 141.985,1346.411 141.973,1346.368 Z" id="ic-kogout"></path>
        </g>
    </g>
</svg>