<?xml version="1.0" encoding="UTF-8"?>
<svg xmlns="http://www.w3.org/2000/svg" width="24" height="46" viewBox="0 0 24 46">
    <svg width="24px" height="18px" x="0" y="2" viewBox="0 0 24 18" version="1.1" xmlns="http://www.w3.org/2000/svg" xmlns:xlink="http://www.w3.org/1999/xlink"><g id="01_Pages" stroke="none" stroke-width="1" fill="none" fill-rule="evenodd"><g id="D_06_Personal-Profile" transform="translate(-575.000000, -638.000000)" fill="#C9CED6"><path d="M584.999886,647.183013 L589.277152,647.183013 C589.264703,647.052366 589.25833,646.919891 589.25833,646.785898 C589.25833,644.580184 590.98533,642.785898 593.10833,642.785898 L596.40833,642.785898 C598.53133,642.785898 600.25833,644.580184 600.25833,646.785898 C600.25833,648.991613 598.53133,650.785898 596.40833,650.785898 L593.10833,650.785898 C591.45811,650.785898 590.047154,649.701783 589.50057,648.183013 L584.88582,648.183013 C584.46789,649.92208 582.95152,651.214102 581.15,651.214102 L577.85,651.214102 C575.727,651.214102 574,649.419816 574,647.214102 C574,645.008387 575.727,643.214102 577.85,643.214102 L581.15,643.214102 C583.263017,643.214102 584.983749,644.991552 584.999886,647.183013 Z M583.89984,647.183013 C583.883725,645.622404 582.655813,644.356959 581.15,644.356959 L577.85,644.356959 C576.3342,644.356959 575.1,645.639244 575.1,647.214102 C575.1,648.788959 576.3342,650.071244 577.85,650.071244 L581.15,650.071244 C582.338629,650.071244 583.354101,649.282759 583.737086,648.183013 L582.362178,648.183013 C582.058578,648.183013 581.812178,647.959013 581.812178,647.683013 C581.812178,647.407013 582.058578,647.183013 582.362178,647.183013 L583.89984,647.183013 Z M590.710346,648.183013 C591.182249,649.053527 592.080559,649.643041 593.10833,649.643041 L596.40833,649.643041 C597.92413,649.643041 599.15833,648.360756 599.15833,646.785898 C599.15833,645.211041 597.92413,643.928756 596.40833,643.928756 L593.10833,643.928756 C591.59253,643.928756 590.35833,645.211041 590.35833,646.785898 C590.35833,646.920617 590.367362,647.053195 590.384828,647.183013 L592.262178,647.183013 C592.565778,647.183013 592.812178,647.407013 592.812178,647.683013 C592.812178,647.959013 592.565778,648.183013 592.262178,648.183013 L590.710346,648.183013 Z" id="ic-link" transform="translate(587.129165, 647.000000) rotate(-30.000000) translate(-587.129165, -647.000000) "></path></g></g></svg>
    <svg width="24px" height="18px" x="0" y="24" viewBox="0 0 24 18" version="1.1" xmlns="http://www.w3.org/2000/svg" xmlns:xlink="http://www.w3.org/1999/xlink"><g id="01_Pages" stroke="none" stroke-width="1" fill="none" fill-rule="evenodd"><g id="D_06_Personal-Profile" transform="translate(-575.000000, -638.000000)" fill="#8A94A6"><path d="M584.999886,647.183013 L589.277152,647.183013 C589.264703,647.052366 589.25833,646.919891 589.25833,646.785898 C589.25833,644.580184 590.98533,642.785898 593.10833,642.785898 L596.40833,642.785898 C598.53133,642.785898 600.25833,644.580184 600.25833,646.785898 C600.25833,648.991613 598.53133,650.785898 596.40833,650.785898 L593.10833,650.785898 C591.45811,650.785898 590.047154,649.701783 589.50057,648.183013 L584.88582,648.183013 C584.46789,649.92208 582.95152,651.214102 581.15,651.214102 L577.85,651.214102 C575.727,651.214102 574,649.419816 574,647.214102 C574,645.008387 575.727,643.214102 577.85,643.214102 L581.15,643.214102 C583.263017,643.214102 584.983749,644.991552 584.999886,647.183013 Z M583.89984,647.183013 C583.883725,645.622404 582.655813,644.356959 581.15,644.356959 L577.85,644.356959 C576.3342,644.356959 575.1,645.639244 575.1,647.214102 C575.1,648.788959 576.3342,650.071244 577.85,650.071244 L581.15,650.071244 C582.338629,650.071244 583.354101,649.282759 583.737086,648.183013 L582.362178,648.183013 C582.058578,648.183013 581.812178,647.959013 581.812178,647.683013 C581.812178,647.407013 582.058578,647.183013 582.362178,647.183013 L583.89984,647.183013 Z M590.710346,648.183013 C591.182249,649.053527 592.080559,649.643041 593.10833,649.643041 L596.40833,649.643041 C597.92413,649.643041 599.15833,648.360756 599.15833,646.785898 C599.15833,645.211041 597.92413,643.928756 596.40833,643.928756 L593.10833,643.928756 C591.59253,643.928756 590.35833,645.211041 590.35833,646.785898 C590.35833,646.920617 590.367362,647.053195 590.384828,647.183013 L592.262178,647.183013 C592.565778,647.183013 592.812178,647.407013 592.812178,647.683013 C592.812178,647.959013 592.565778,648.183013 592.262178,648.183013 L590.710346,648.183013 Z" id="ic-link" transform="translate(587.129165, 647.000000) rotate(-30.000000) translate(-587.129165, -647.000000) "></path></g></g></svg>
</svg>