<?xml version="1.0" encoding="UTF-8"?>
<svg xmlns="http://www.w3.org/2000/svg" width="17" height="52" viewBox="0 0 17 52">
    <svg width="17px" height="24px" x="0" y="0" viewBox="0 0 17 24" version="1.1" xmlns="http://www.w3.org/2000/svg" xmlns:xlink="http://www.w3.org/1999/xlink"><g id="01_Pages" stroke="none" stroke-width="1" fill="none" fill-rule="evenodd"><g id="D_05A_Guide-Public-Profile" transform="translate(-124.000000, -713.000000)" fill="#C9CED6"><path d="M132.5,727 C129.468,727 127,724.533 127,721.5 C127,718.467 129.468,716 132.5,716 C135.532,716 138,718.467 138,721.5 C138,724.533 135.532,727 132.5,727 Z M132.5,717 C130.019,717 128,719.019 128,721.5 C128,723.981 130.019,726 132.5,726 C134.981,726 137,723.981 137,721.5 C137,719.019 134.981,717 132.5,717 Z M132.5,737 C132.384,737 132.267,736.959 132.173,736.878 C131.839,736.59 124,729.718 124,721.5 C124,716.813 127.813,713 132.5,713 C137.187,713 141,716.813 141,721.5 C141,729.718 133.161,736.59 132.827,736.878 C132.733,736.959 132.616,737 132.5,737 Z M132.5,714 C128.364,714 125,717.364 125,721.5 C125,728.342 131.016,734.426 132.5,735.822 C133.983,734.425 140,728.334 140,721.5 C140,717.364 136.636,714 132.5,714 Z" id="ic-location"></path></g></g></svg>
    <svg width="17px" height="24px" x="0" y="27" viewBox="0 0 17 24" version="1.1" xmlns="http://www.w3.org/2000/svg" xmlns:xlink="http://www.w3.org/1999/xlink"><g id="01_Pages" stroke="none" stroke-width="1" fill="none" fill-rule="evenodd"><g id="D_05A_Guide-Public-Profile" transform="translate(-124.000000, -713.000000)" fill="#8A94A6"><path d="M132.5,727 C129.468,727 127,724.533 127,721.5 C127,718.467 129.468,716 132.5,716 C135.532,716 138,718.467 138,721.5 C138,724.533 135.532,727 132.5,727 Z M132.5,717 C130.019,717 128,719.019 128,721.5 C128,723.981 130.019,726 132.5,726 C134.981,726 137,723.981 137,721.5 C137,719.019 134.981,717 132.5,717 Z M132.5,737 C132.384,737 132.267,736.959 132.173,736.878 C131.839,736.59 124,729.718 124,721.5 C124,716.813 127.813,713 132.5,713 C137.187,713 141,716.813 141,721.5 C141,729.718 133.161,736.59 132.827,736.878 C132.733,736.959 132.616,737 132.5,737 Z M132.5,714 C128.364,714 125,717.364 125,721.5 C125,728.342 131.016,734.426 132.5,735.822 C133.983,734.425 140,728.334 140,721.5 C140,717.364 136.636,714 132.5,714 Z" id="ic-location"></path></g></g></svg>
</svg>