<?xml version="1.0" encoding="UTF-8"?>
<svg width="11px" height="16px" viewBox="0 0 11 16" version="1.1" xmlns="http://www.w3.org/2000/svg" xmlns:xlink="http://www.w3.org/1999/xlink">
    <!-- Generator: Sketch 55.2 (78181) - https://sketchapp.com -->
    <title>ic-location</title>
    <desc>Created with Sketch.</desc>
    <g id="Symbols" stroke="none" stroke-width="1" fill="none" fill-rule="evenodd">
        <g id="Card/Post/Image" transform="translate(-81.000000, -36.000000)" fill="#3ED3A3">
            <path d="M86.5,36 C83.4672353,36 81,38.542 81,41.6666667 C81,47.1453333 86.0722941,51.7266667 86.2884118,51.9186667 C86.3492353,51.9726667 86.4249412,52 86.5,52 C86.5750588,52 86.6507647,51.9726667 86.7115882,51.9186667 C86.9277059,51.726 92,47.1446667 92,41.6666667 C92,38.542 89.5327647,36 86.5,36 Z M86.5,44.6666667 C84.8920588,44.6666667 83.5882353,43.3233333 83.5882353,41.6666667 C83.5882353,40.01 84.8920588,38.6666667 86.5,38.6666667 C88.1079412,38.6666667 89.4117647,40.01 89.4117647,41.6666667 C89.4117647,43.3233333 88.1079412,44.6666667 86.5,44.6666667 Z" id="ic-location"></path>
        </g>
    </g>
</svg>