<?xml version="1.0" encoding="UTF-8"?>
<svg width="19px" height="19px" viewBox="0 0 19 19" version="1.1" xmlns="http://www.w3.org/2000/svg" xmlns:xlink="http://www.w3.org/1999/xlink">
    <!-- Generator: Sketch 55.2 (78181) - https://sketchapp.com -->
    <title>ic-phone</title>
    <desc>Created with Sketch.</desc>
    <g id="01_Pages" stroke="none" stroke-width="1" fill="none" fill-rule="evenodd">
        <g id="D_05A_Guide-Public-Profile" transform="translate(-125.000000, -852.000000)" fill="#C9CED6">
            <path d="M142.5,871 C132.851,871 125,863.149 125,853.5 C125,852.673 125.673,852 126.5,852 L130,852 C130.827,852 131.5,852.673 131.5,853.5 C131.5,854.67 131.684,855.819 132.045,856.913 C132.216,857.46 132.073,858.043 131.674,858.443 L130.089,860.549 C131.393,863.007 132.977,864.59 135.451,865.91 L137.608,864.281 C137.958,863.925 138.56,863.784 139.091,863.967 C140.18,864.327 141.328,864.51 142.5,864.51 C143.327,864.51 144,865.183 144,866.01 L144,869.5 C144,870.327 143.327,871 142.5,871 Z M126.5,853 C126.225,853 126,853.224 126,853.5 C126,862.598 133.402,870 142.5,870 C142.775,870 143,869.776 143,869.5 L143,866.01 C143,865.734 142.775,865.51 142.5,865.51 C141.222,865.51 139.968,865.31 138.772,864.915 C138.594,864.856 138.397,864.902 138.263,865.034 L135.801,866.9 C135.648,867.016 135.441,867.034 135.272,866.946 C132.338,865.443 130.537,863.641 129.054,860.728 C128.967,860.558 128.985,860.353 129.1,860.2 L130.92,857.79 C131.103,857.6 131.15,857.407 131.092,857.22 C130.7,856.031 130.5,854.777 130.5,853.5 C130.5,853.224 130.275,853 130,853 L126.5,853 Z" id="ic-phone"></path>
        </g>
    </g>
</svg>