<?xml version="1.0" encoding="UTF-8"?>
<svg width="24px" height="20px" viewBox="0 0 24 20" version="1.1" xmlns="http://www.w3.org/2000/svg" xmlns:xlink="http://www.w3.org/1999/xlink">
    <!-- Generator: Sketch 55.2 (78181) - https://sketchapp.com -->
    <title>ic-share</title>
    <desc>Created with Sketch.</desc>
    <g id="Symbols" stroke="none" stroke-width="1" fill="none" fill-rule="evenodd">
        <g id="Card/Post/Image" transform="translate(-120.000000, -400.000000)" fill="#C9CED6">
            <g id="ic-share" transform="translate(120.000000, 400.000000)">
                <path d="M21.5,7.99825 C21.224,7.99825 21,8.22225 21,8.49825 L21,17.49825 C21,18.32525 20.327,18.99825 19.5,18.99825 L2.5,18.99825 C1.673,18.99825 1,18.32525 1,17.49825 L1,4.49825 C1,3.67125 1.673,2.99825 2.5,2.99825 L15.5,2.99825 C15.776,2.99825 16,2.77425 16,2.49825 C16,2.22225 15.776,1.99825 15.5,1.99825 L2.5,1.99825 C1.122,1.99825 0,3.12025 0,4.49825 L0,17.49825 C0,18.87625 1.122,19.99825 2.5,19.99825 L19.5,19.99825 C20.878,19.99825 22,18.87625 22,17.49825 L22,8.49825 C22,8.22225 21.776,7.99825 21.5,7.99825 Z M23.973,3.36625 C23.968,3.34825 23.969,3.32825 23.962,3.31025 C23.936,3.24525 23.897,3.18825 23.847,3.14025 L20.853,0.14625 C20.658,-0.04875 20.341,-0.04875 20.146,0.14625 C19.951,0.34125 19.951,0.65825 20.146,0.85325 L22.291,2.99825 L21.5,2.99825 C15.159,2.99825 10,8.15725 10,14.49825 C10,14.77425 10.224,14.99825 10.5,14.99825 C10.776,14.99825 11,14.77425 11,14.49825 C11,8.70825 15.71,3.99825 21.5,3.99825 L22.293,3.99825 L20.146,6.14525 C19.951,6.34025 19.951,6.65725 20.146,6.85225 C20.244,6.94925 20.372,6.99825 20.5,6.99825 C20.628,6.99825 20.756,6.94925 20.853,6.85325 L23.853,3.85325 C23.867,3.83925 23.872,3.82125 23.884,3.80725 C23.913,3.77125 23.943,3.73425 23.961,3.69025 C23.979,3.64725 23.983,3.60125 23.988,3.55625 C23.991,3.53625 24,3.51925 24,3.49825 C24,3.45125 23.985,3.40925 23.973,3.36625 Z"></path>
            </g>
        </g>
    </g>
</svg>