<?xml version="1.0" encoding="UTF-8"?>
<svg width="20px" height="20px" viewBox="0 0 20 20" version="1.1" xmlns="http://www.w3.org/2000/svg" xmlns:xlink="http://www.w3.org/1999/xlink">
    <!-- Generator: Sketch 55.2 (78181) - https://sketchapp.com -->
    <title>ic-time</title>
    <desc>Created with Sketch.</desc>
    <g id="01_Pages" stroke="none" stroke-width="1" fill="none" fill-rule="evenodd">
        <g id="D_05A_Guide-Public-Profile" transform="translate(-122.000000, -751.000000)" fill="#C9CED6">
            <path d="M132,771 C126.486087,771 122,766.513913 122,761 C122,755.486087 126.486087,751 132,751 C137.513913,751 142,755.486087 142,761 C142,766.513913 137.513913,771 132,771 Z M132,751.869565 C126.965217,751.869565 122.869565,755.965217 122.869565,761 C122.869565,766.034783 126.965217,770.130435 132,770.130435 C137.034783,770.130435 141.130435,766.034783 141.130435,761 C141.130435,755.965217 137.034783,751.869565 132,751.869565 Z M137.079365,761 L131.365079,761 C131.102222,761 130.888889,760.80642 130.888889,760.567901 L130.888889,753.654321 C130.888889,753.415802 131.102222,753.222222 131.365079,753.222222 C131.627937,753.222222 131.84127,753.415802 131.84127,753.654321 L131.84127,760.135802 L137.079365,760.135802 C137.342222,760.135802 137.555556,760.329383 137.555556,760.567901 C137.555556,760.80642 137.342222,761 137.079365,761 Z" id="ic-time"></path>
        </g>
    </g>
</svg>