<?xml version="1.0" encoding="UTF-8"?>
<svg width="28px" height="28px" viewBox="0 0 28 28" version="1.1" xmlns="http://www.w3.org/2000/svg" xmlns:xlink="http://www.w3.org/1999/xlink">
    <!-- Generator: Sketch 55.2 (78181) - https://sketchapp.com -->
    <title>ic-user</title>
    <desc>Created with Sketch.</desc>
    <g id="01_Pages" stroke="none" stroke-width="1" fill="none" fill-rule="evenodd">
        <g id="D_06_Personal-Profile" transform="translate(-134.000000, -1111.000000)" fill="#FFFFFF">
            <path d="M158.550562,1134.20278 C155.984145,1137.14262 152.20898,1139 148,1139 C140.268014,1139 134,1132.73199 134,1125 C134,1117.26801 140.268014,1111 148,1111 C155.731986,1111 162,1117.26801 162,1125 C162,1128.28001 160.872029,1131.29657 158.982828,1133.68293 C159.042754,1133.87721 158.941946,1134.08787 158.741119,1134.17001 C158.678937,1134.19544 158.613907,1134.2058 158.550562,1134.20278 Z M138.891653,1134.48688 C141.254993,1136.75649 144.464584,1138.15152 148,1138.15152 C151.989208,1138.15152 155.56358,1136.37539 157.975466,1133.57079 C156.662845,1131.37281 152.950547,1129.813 148.62845,1129.813 C143.692721,1129.813 139.587722,1131.8614 138.891653,1134.48688 Z M138.224805,1133.79834 C139.359087,1130.99468 143.632573,1129 148.62845,1129 C153.044636,1129 156.913097,1130.54765 158.531908,1132.87794 C160.177032,1130.68212 161.151515,1127.95486 161.151515,1125 C161.151515,1117.73662 155.263381,1111.84848 148,1111.84848 C140.736619,1111.84848 134.848485,1117.73662 134.848485,1125 C134.848485,1128.38316 136.125939,1131.46796 138.224805,1133.79834 Z M148,1127 C144.686292,1127 142,1124.31371 142,1121 C142,1117.68629 144.686292,1115 148,1115 C151.313708,1115 154,1117.68629 154,1121 C154,1124.31371 151.313708,1127 148,1127 Z M148,1126.13793 C150.837601,1126.13793 153.137931,1123.8376 153.137931,1121 C153.137931,1118.1624 150.837601,1115.86207 148,1115.86207 C145.162399,1115.86207 142.862069,1118.1624 142.862069,1121 C142.862069,1123.8376 145.162399,1126.13793 148,1126.13793 Z" id="ic-user"></path>
        </g>
    </g>
</svg>