<?xml version="1.0" encoding="UTF-8"?>
<svg width="24px" height="20px" viewBox="0 0 24 20" version="1.1" xmlns="http://www.w3.org/2000/svg" xmlns:xlink="http://www.w3.org/1999/xlink">
    <!-- Generator: Sketch 55.2 (78181) - https://sketchapp.com -->
    <title>ic-website</title>
    <desc>Created with Sketch.</desc>
    <g id="01_Pages" stroke="none" stroke-width="1" fill="none" fill-rule="evenodd">
        <g id="D_05A_Guide-Public-Profile" transform="translate(-120.000000, -785.000000)" fill="#C9CED6">
            <g id="ic-website" transform="translate(120.000000, 785.000000)">
                <path d="M21,14.5 L3,14.5 C1.621,14.5 0.5,13.378 0.5,12 L0.5,8 C0.5,6.622 1.621,5.5 3,5.5 L21,5.5 C22.379,5.5 23.5,6.622 23.5,8 L23.5,12 C23.5,13.378 22.379,14.5 21,14.5 Z M3,6.5 C2.173,6.5 1.5,7.173 1.5,8 L1.5,12 C1.5,12.827 2.173,13.5 3,13.5 L21,13.5 C21.827,13.5 22.5,12.827 22.5,12 L22.5,8 C22.5,7.173 21.827,6.5 21,6.5 L3,6.5 Z" id="Shape"></path>
                <path d="M12,6.5 C11.724,6.5 11.5,6.276 11.5,6 L11.5,1 C11.5,0.724 11.724,0.5 12,0.5 C12.276,0.5 12.5,0.724 12.5,1 L12.5,6 C12.5,6.276 12.276,6.5 12,6.5 Z" id="Path"></path>
                <path d="M12,19.5 C11.724,19.5 11.5,19.276 11.5,19 L11.5,14 C11.5,13.724 11.724,13.5 12,13.5 C12.276,13.5 12.5,13.724 12.5,14 L12.5,19 C12.5,19.276 12.276,19.5 12,19.5 Z" id="Path"></path>
                <path d="M16.475,6.5 C16.255,6.5 16.054,6.355 15.994,6.133 C15.214,3.319 13.646,1.5 12,1.5 C10.354,1.5 8.786,3.319 8.007,6.133 C7.935,6.399 7.661,6.555 7.392,6.482 C7.126,6.408 6.97,6.133 7.044,5.867 C7.96,2.556 9.858,0.5 12,0.5 C14.142,0.5 16.04,2.556 16.956,5.867 C17.03,6.133 16.874,6.409 16.608,6.482 C16.563,6.494 16.519,6.5 16.475,6.5 Z" id="Path"></path>
                <path d="M12,19.5 C9.858,19.5 7.96,17.444 7.044,14.133 C6.97,13.867 7.126,13.591 7.392,13.518 C7.663,13.446 7.935,13.601 8.007,13.867 C8.786,16.681 10.354,18.5 12,18.5 C13.646,18.5 15.214,16.681 15.993,13.867 C16.065,13.601 16.339,13.446 16.608,13.518 C16.874,13.592 17.03,13.867 16.956,14.133 C16.04,17.444 14.142,19.5 12,19.5 Z" id="Path"></path>
                <path d="M20.054,6.5 C19.87,6.5 19.694,6.398 19.607,6.223 C18.156,3.31 15.242,1.5 12,1.5 C8.758,1.5 5.844,3.31 4.394,6.223 C4.271,6.47 3.969,6.571 3.724,6.448 C3.477,6.325 3.376,6.025 3.499,5.778 C5.119,2.522 8.376,0.5 12,0.5 C15.624,0.5 18.881,2.522 20.501,5.777 C20.624,6.024 20.523,6.324 20.276,6.447 C20.205,6.483 20.129,6.5 20.054,6.5 Z" id="Path"></path>
                <path d="M12,19.5 C8.376,19.5 5.119,17.478 3.499,14.223 C3.376,13.976 3.477,13.676 3.724,13.553 C3.969,13.431 4.271,13.53 4.394,13.778 C5.844,16.69 8.758,18.5 12,18.5 C15.242,18.5 18.156,16.69 19.606,13.777 C19.729,13.529 20.03,13.43 20.276,13.552 C20.523,13.675 20.624,13.975 20.501,14.222 C18.881,17.478 15.624,19.5 12,19.5 Z" id="Path"></path>
                <path d="M13,12.5 C12.785,12.5 12.594,12.363 12.525,12.158 L12,10.581 L11.475,12.158 C11.405,12.368 11.242,12.51 10.981,12.499 C10.759,12.491 10.569,12.336 10.515,12.121 L9.515,8.121 C9.448,7.854 9.61,7.582 9.879,7.515 C10.143,7.447 10.419,7.61 10.485,7.879 L11.068,10.213 L11.525,8.842 C11.662,8.434 12.338,8.434 12.474,8.842 L12.931,10.213 L13.514,7.879 C13.58,7.61 13.848,7.448 14.12,7.515 C14.389,7.582 14.551,7.853 14.484,8.121 L13.484,12.121 C13.43,12.337 13.24,12.491 13.018,12.499 C13.013,12.5 13.006,12.5 13,12.5 Z" id="Path"></path>
                <path d="M7,12.5 C6.785,12.5 6.594,12.363 6.525,12.158 L6,10.581 L5.475,12.158 C5.405,12.368 5.246,12.51 4.981,12.499 C4.759,12.491 4.569,12.336 4.515,12.121 L3.515,8.121 C3.448,7.854 3.61,7.582 3.879,7.515 C4.143,7.447 4.418,7.61 4.485,7.879 L5.068,10.213 L5.525,8.842 C5.662,8.434 6.338,8.434 6.474,8.842 L6.931,10.213 L7.514,7.879 C7.582,7.61 7.849,7.448 8.121,7.515 C8.39,7.582 8.552,7.853 8.485,8.121 L7.485,12.121 C7.431,12.337 7.241,12.491 7.019,12.499 C7.013,12.5 7.006,12.5 7,12.5 Z" id="Path"></path>
                <path d="M19,12.5 C18.785,12.5 18.594,12.363 18.525,12.158 L18,10.581 L17.475,12.158 C17.405,12.368 17.237,12.51 16.981,12.499 C16.759,12.491 16.569,12.336 16.515,12.121 L15.515,8.121 C15.449,7.853 15.611,7.582 15.879,7.515 C16.143,7.447 16.419,7.61 16.485,7.879 L17.068,10.213 L17.525,8.842 C17.662,8.434 18.338,8.434 18.474,8.842 L18.931,10.213 L19.514,7.879 C19.58,7.61 19.847,7.448 20.12,7.515 C20.389,7.582 20.551,7.853 20.484,8.121 L19.484,12.121 C19.43,12.337 19.24,12.491 19.018,12.499 C19.013,12.5 19.006,12.5 19,12.5 Z" id="Path"></path>
            </g>
        </g>
    </g>
</svg>