<svg width="53" height="50" xmlns="http://www.w3.org/2000/svg"><path d="M3.225 22.267c-.564-.178-.983-.588-1.149-1.122-.166-.536-.056-1.123.3-1.611l1.349-1.842c.505-.692 1.478-1.236 2.31-1.294l19.908-1.395c.55-.04 1.018.392 1.055.96.036.57-.377 1.06-.923 1.1L6.168 18.458c-.259.019-.712.272-.867.485l-1.084 1.48 14.489 4.556c.524.165.821.741.662 1.287a.998.998 0 0 1-.948.734.963.963 0 0 1-.287-.044l-14.908-4.69zm47.707 19.467c.094-.122.117-.45.044-.586L39.829 20.674l8.866-12.05c2.107-2.778 2.414-5.55 1.704-6.245a1.394 1.394 0 0 0-.218-.182l-.118-.068c-.002-.001-.221-.135-.976-.135-2.815 0-7.902 1.733-9.245 3.505l-17.99 24.064c-.538.708-4.01 5.46-6.561 9.587l-.247.399-10.813 1.463c-.28.038-.756.316-.927.541l-1.116 1.472 9.473 3.263-.745 1.084c-.12.173-.204.309-.262.411.26.14.66.223 1.132.223.212 0 .362-.017.386-.02 5.597-.757 13.203-8.273 14.157-9.531l3.282-4.326c2.035-2.353 4.46-1.567 4.782-1.461l.272.138L49.541 43.52l1.391-1.785zm1.783-1.542c.448.825.359 2.006-.206 2.751l-1.348 1.778c-.631.833-1.927 1.028-2.774.419L33.66 34.534a2.648 2.648 0 0 0-.565-.059c-.767 0-1.422.308-1.948.915l-3.24 4.274c-1.175 1.55-9.255 9.458-15.473 10.3 0 0-.262.036-.647.036-1.378 0-2.45-.464-3.02-1.304-.285-.422-.252-.897-.102-1.332l-7.482-2.577c-.55-.19-.956-.596-1.113-1.115-.157-.518-.044-1.084.31-1.55l1.349-1.777c.491-.65 1.433-1.201 2.238-1.31l9.89-1.338c2.563-4.093 5.89-8.645 6.414-9.338L38.261 4.295C40.221 1.71 46.074 0 49.087 0c.892 0 1.554.143 2.022.435.327.174.607.446.688.53 1.696 1.657 1.05 5.472-1.518 8.857l-8.102 11.012 10.538 19.358zM43.426 8.774c-.428-.318-.555-.985-.282-1.485.205-.376.576-.554.93-.484.453-.36 1.441-1.815 2.225-3.296.268-.505.834-.66 1.266-.347.431.313.564.977.297 1.481-.781 1.477-2.27 4-3.449 4.316-.104.028-.208.041-.311.041-.242 0-.475-.076-.676-.226z" fill="#C9CED6" fill-rule="evenodd"/></svg>