<?xml version="1.0" encoding="UTF-8"?>
<svg width="24px" height="24px" viewBox="0 0 24 24" version="1.1" xmlns="http://www.w3.org/2000/svg" xmlns:xlink="http://www.w3.org/1999/xlink">
    <!-- Generator: Sketch 63.1 (92452) - https://sketch.com -->
    <title>ic-all-grey</title>
    <desc>Created with Sketch.</desc>
    <g id="01_Pages" stroke="none" stroke-width="1" fill="none" fill-rule="evenodd">
        <g id="D_02_Hotels" transform="translate(-124.000000, -337.000000)" fill="#C9CED6">
            <path d="M145.622183,341.765134 C146.329833,341.813294 146.918853,342.1205 147.379388,342.660639 C147.806163,343.161205 147.993078,343.750028 147.993078,344.403772 C147.992488,349.049657 147.992488,353.695564 147.993078,358.34145 C147.993078,358.787869 147.910786,359.216021 147.698305,359.61039 C147.2825,360.382261 146.637322,360.836525 145.770377,360.968156 C145.617375,360.991384 145.460637,360.998617 145.305625,360.998661 C140.67084,361.000234 136.036033,360.999993 131.401226,360.999993 C130.735574,360.999993 130.139824,360.802721 129.635565,360.361328 C129.155123,359.940758 128.853642,359.411348 128.788592,358.776244 C128.740934,358.311186 128.753389,357.839944 128.738836,357.36444 L129.794969,357.36444 L129.794969,357.455647 L129.794969,357.455647 C129.795275,357.783393 129.787955,358.111357 129.797547,358.43884 C129.814657,359.020912 130.072697,359.467287 130.578879,359.761448 C130.784717,359.881061 131.010636,359.940758 131.248333,359.953213 L131.354699,359.95645 L131.354699,359.95645 L131.461164,359.956884 C136.07956,359.957016 140.697957,359.956338 145.316354,359.958305 C145.67539,359.958458 146.009779,359.886436 146.304332,359.67472 C146.706394,359.385695 146.913914,358.987785 146.947019,358.496178 L146.949548,358.426628 L146.949548,358.426628 L146.94975,358.356964 C146.949837,353.700153 146.949335,349.04332 146.950624,344.386531 C146.950733,343.914327 146.798627,343.508923 146.448222,343.187427 C146.181223,342.942431 145.861475,342.809183 145.500799,342.796203 C145.151836,342.783661 144.802152,342.791374 144.452796,342.790194 L144.356257,342.790194 L144.356257,342.790194 L144.356257,341.75753 C144.369958,341.75399 144.382347,341.747872 144.394715,341.748003 C144.803944,341.751936 145.214505,341.737405 145.622183,341.765134 Z M126.680594,337.013403 C131.091226,337.015108 135.501859,337.014081 139.912469,337.014671 C140.207467,337.014715 140.502595,337.016528 140.79744,337.025487 C140.932765,337.029617 141.067542,337.053085 141.217961,337.069452 C141.194226,337.098798 141.177425,337.121217 141.158918,337.142129 C140.903648,337.430346 140.646714,337.717142 140.394134,338.007741 C140.353139,338.054917 140.309146,338.056316 140.257103,338.056316 L126.615338,338.056054 L126.615338,338.056054 C125.713238,338.056054 125.042477,338.727037 125.042477,339.629447 L125.042477,353.632919 C125.042477,354.553421 125.695038,355.214397 126.614747,355.225432 L140.600819,355.226174 L140.600819,355.226174 C141.024272,355.226284 141.404629,355.111674 141.72019,354.822343 C142.071321,354.500388 142.221106,354.091662 142.220887,353.621163 L142.220646,349.64707 C142.220646,347.205246 142.220975,344.763443 142.219203,342.321641 C142.219137,342.248134 142.238869,342.194315 142.288987,342.140233 C142.597066,341.807658 142.901952,341.47209 143.207143,341.136871 C143.219394,341.123433 143.224294,341.10333 143.232629,341.086329 C143.241488,341.092273 143.250392,341.098217 143.25928,341.104138 L143.25928,353.686257 L143.25928,353.686257 C143.25928,354.966823 142.330661,356.044501 141.063889,356.231219 C140.929286,356.251038 140.792102,356.262204 140.656121,356.262247 C135.97497,356.263799 131.293798,356.263553 126.612647,356.263553 C125.300833,356.263553 124.238579,355.362242 124.032202,354.068543 C124.007832,353.915716 124.001794,353.758585 124.00175,353.60342 C124.000197,348.962888 124.000985,344.322356 124,339.681824 C124,338.909538 124.252952,338.242488 124.820458,337.710215 C125.341609,337.221405 125.971287,337.013141 126.680594,337.013403 Z M141.886269,338.69697 C142.14695,338.925644 142.404917,339.151949 142.666669,339.381566 C139.425999,342.992548 136.19023,346.598092 132.946869,350.212121 C131.26039,348.709219 129.572358,347.204958 127.87879,345.695741 C128.106541,345.434528 128.330725,345.177415 128.561517,344.912737 C129.998343,346.190298 131.431974,347.465031 132.873089,348.746407 C135.878438,345.395542 138.879433,342.049523 141.886269,338.69697 Z" id="ic-all-grey"></path>
        </g>
    </g>
</svg>