<?xml version="1.0" encoding="UTF-8"?>
<svg width="20px" height="16px" viewBox="0 0 20 16" version="1.1" xmlns="http://www.w3.org/2000/svg" xmlns:xlink="http://www.w3.org/1999/xlink">
    <g id="01_Pages" stroke="none" stroke-width="1" fill="none" fill-rule="evenodd">
        <g id="D_03_Venue-Details" transform="translate(-165.000000, -113.000000)" fill="#0C66FF" fill-rule="nonzero">
            <g id="ic-back-black" transform="translate(165.000000, 113.000000)">
                <path d="M19.5835417,8.42042105 L0.416875,8.42042105 C0.186875,8.42042105 0.000208333333,8.23178947 0.000208333333,7.99936842 C0.000208333333,7.76694737 0.186875,7.57831579 0.416875,7.57831579 L19.5835417,7.57831579 C19.8135417,7.57831579 20.0002083,7.76694737 20.0002083,7.99936842 C20.0002083,8.23178947 19.8135417,8.42042105 19.5835417,8.42042105 Z M7.916875,15.9993684 C7.81020833,15.9993684 7.70354167,15.9581053 7.621875,15.8764211 L0.121875,8.29747368 C-0.040625,8.13326316 -0.040625,7.86631579 0.121875,7.70210526 L7.621875,0.123157895 C7.784375,-0.0410526316 8.04854167,-0.0410526316 8.21104167,0.123157895 C8.37354167,0.287368421 8.37354167,0.554315789 8.21104167,0.718526316 L1.00604167,7.99936842 L8.21104167,15.2802105 C8.37354167,15.4444211 8.37354167,15.7113684 8.21104167,15.8755789 C8.13020833,15.9581053 8.02354167,15.9993684 7.916875,15.9993684 Z"></path>
            </g>
        </g>
    </g>
</svg>