<?xml version="1.0" encoding="UTF-8"?>
<svg xmlns="http://www.w3.org/2000/svg" width="60" height="28" viewBox="0 0 60 28">
    <svg width="28px" height="28px" x="1" y="0" viewBox="0 0 28 28" version="1.1" xmlns="http://www.w3.org/2000/svg" xmlns:xlink="http://www.w3.org/1999/xlink"><defs><path d="M22.2761424,15.057191 L16.942809,9.72385763 C16.42211,9.20315857 15.57789,9.20315857 15.057191,9.72385763 C14.5364919,10.2445567 14.5364919,11.0887767 15.057191,11.6094757 L18.1143819,14.6666667 L10.6666667,14.6666667 C9.930287,14.6666667 9.33333333,15.2636203 9.33333333,16 C9.33333333,16.7363797 9.930287,17.3333333 10.6666667,17.3333333 L18.1143819,17.3333333 L15.057191,20.3905243 C14.5364919,20.9112233 14.5364919,21.7554433 15.057191,22.2761424 C15.57789,22.7968414 16.42211,22.7968414 16.942809,22.2761424 L22.2761424,16.942809 C22.5174282,16.7015232 22.6666667,16.3681898 22.6666667,16 C22.6666667,15.6318102 22.5174282,15.2984768 22.2761424,15.057191 Z M16,29.3333333 C8.63620334,29.3333333 2.66666667,23.3637967 2.66666667,16 C2.66666667,8.63620334 8.63620334,2.66666667 16,2.66666667 C23.3637967,2.66666667 29.3333333,8.63620334 29.3333333,16 C29.3333333,23.3637967 23.3637967,29.3333333 16,29.3333333 Z" id="path-1"></path></defs><g id="01_Pages" stroke="none" stroke-width="1" fill="none" fill-rule="evenodd"><g id="D_07A_Messaging---Business---Open" transform="translate(-1233.000000, -912.000000)"><g id="Icon-/-Solid-/-Right-arrow-round" transform="translate(1231.000000, 910.000000)"><mask id="mask-2" fill="white"><use xlink:href="#path-1"></use></mask><use id="Mask" fill-opacity="0" fill="#051033" fill-rule="evenodd" xlink:href="#path-1"></use><g id="Color-/-Black-/-Black-800" mask="url(#mask-2)" fill="#59C3B6" fill-rule="evenodd"><polygon id="Black-/-Black-800" points="0 0 32 0 32 32 0 32"></polygon></g></g></g></g></svg>
    <svg width="28px" height="28px" x="31" y="0" viewBox="0 0 28 28" version="1.1" xmlns="http://www.w3.org/2000/svg" xmlns:xlink="http://www.w3.org/1999/xlink"><defs><path d="M22.2761424,15.057191 L16.942809,9.72385763 C16.42211,9.20315857 15.57789,9.20315857 15.057191,9.72385763 C14.5364919,10.2445567 14.5364919,11.0887767 15.057191,11.6094757 L18.1143819,14.6666667 L10.6666667,14.6666667 C9.930287,14.6666667 9.33333333,15.2636203 9.33333333,16 C9.33333333,16.7363797 9.930287,17.3333333 10.6666667,17.3333333 L18.1143819,17.3333333 L15.057191,20.3905243 C14.5364919,20.9112233 14.5364919,21.7554433 15.057191,22.2761424 C15.57789,22.7968414 16.42211,22.7968414 16.942809,22.2761424 L22.2761424,16.942809 C22.5174282,16.7015232 22.6666667,16.3681898 22.6666667,16 C22.6666667,15.6318102 22.5174282,15.2984768 22.2761424,15.057191 Z M16,29.3333333 C8.63620334,29.3333333 2.66666667,23.3637967 2.66666667,16 C2.66666667,8.63620334 8.63620334,2.66666667 16,2.66666667 C23.3637967,2.66666667 29.3333333,8.63620334 29.3333333,16 C29.3333333,23.3637967 23.3637967,29.3333333 16,29.3333333 Z" id="path-1"></path></defs><g id="01_Pages" stroke="none" stroke-width="1" fill="none" fill-rule="evenodd"><g id="D_07A_Messaging---Business---Open" transform="translate(-1233.000000, -912.000000)"><g id="Icon-/-Solid-/-Right-arrow-round" transform="translate(1231.000000, 910.000000)"><mask id="mask-2" fill="white"><use xlink:href="#path-1"></use></mask><use id="Mask" fill-opacity="0" fill="#051033" fill-rule="evenodd" xlink:href="#path-1"></use><g id="Color-/-Black-/-Black-800" mask="url(#mask-2)" fill="#46bcae" fill-rule="evenodd"><polygon id="Black-/-Black-800" points="0 0 32 0 32 32 0 32"></polygon></g></g></g></g></svg>
</svg>