<?xml version="1.0" encoding="UTF-8"?>
<svg xmlns="http://www.w3.org/2000/svg" width="40" height="24" viewBox="0 0 40 24">
    <svg width="18px" height="20px" x="0" y="2" viewBox="0 0 18 20" version="1.1" xmlns="http://www.w3.org/2000/svg" xmlns:xlink="http://www.w3.org/1999/xlink"><defs><path d="M4,5 L8,5 L8,3 C8,2.44771525 8.44771525,2 9,2 L15,2 C15.5522847,2 16,2.44771525 16,3 L16,5 L20,5 C20.5522847,5 21,5.44771525 21,6 C21,6.55228475 20.5522847,7 20,7 L19,7 L19,20.5 C19,21.3284271 18.3284271,22 17.5,22 L6.5,22 C5.67157288,22 5,21.3284271 5,20.5 L5,7 L4,7 C3.44771525,7 3,6.55228475 3,6 C3,5.44771525 3.44771525,5 4,5 Z M11,17 L11,11 C11,10.4477153 10.5522847,10 10,10 C9.44771525,10 9,10.4477153 9,11 L9,17 C9,17.5522847 9.44771525,18 10,18 C10.5522847,18 11,17.5522847 11,17 Z M15,17 L15,11 C15,10.4477153 14.5522847,10 14,10 C13.4477153,10 13,10.4477153 13,11 L13,17 C13,17.5522847 13.4477153,18 14,18 C14.5522847,18 15,17.5522847 15,17 Z M10,4 L10,5 L14,5 L14,4 L10,4 Z M17,7 L7,7 L7,20 L17,20 L17,7 Z" id="path-1"></path></defs><g id="Symbols" stroke="none" stroke-width="1" fill="none" fill-rule="evenodd"><g id="Card/Events-In-Profile" transform="translate(-604.000000, -28.000000)"><g id="Icon-/-Line-/-Delete" transform="translate(601.000000, 26.000000)"><mask id="mask-2" fill="white"><use xlink:href="#path-1"></use></mask><use id="Mask" fill-opacity="0" fill="#051033" fill-rule="nonzero" xlink:href="#path-1"></use><g id="Color-/-Black-/-Black-800" mask="url(#mask-2)" fill="#C9CED6" fill-rule="evenodd"><polygon id="Black-/-Black-800" points="0 0 24 0 24 24 0 24"></polygon></g></g></g></g></svg>
    <svg width="18px" height="20px" x="22" y="2" viewBox="0 0 18 20" version="1.1" xmlns="http://www.w3.org/2000/svg" xmlns:xlink="http://www.w3.org/1999/xlink"><defs><path d="M4,5 L8,5 L8,3 C8,2.44771525 8.44771525,2 9,2 L15,2 C15.5522847,2 16,2.44771525 16,3 L16,5 L20,5 C20.5522847,5 21,5.44771525 21,6 C21,6.55228475 20.5522847,7 20,7 L19,7 L19,20.5 C19,21.3284271 18.3284271,22 17.5,22 L6.5,22 C5.67157288,22 5,21.3284271 5,20.5 L5,7 L4,7 C3.44771525,7 3,6.55228475 3,6 C3,5.44771525 3.44771525,5 4,5 Z M11,17 L11,11 C11,10.4477153 10.5522847,10 10,10 C9.44771525,10 9,10.4477153 9,11 L9,17 C9,17.5522847 9.44771525,18 10,18 C10.5522847,18 11,17.5522847 11,17 Z M15,17 L15,11 C15,10.4477153 14.5522847,10 14,10 C13.4477153,10 13,10.4477153 13,11 L13,17 C13,17.5522847 13.4477153,18 14,18 C14.5522847,18 15,17.5522847 15,17 Z M10,4 L10,5 L14,5 L14,4 L10,4 Z M17,7 L7,7 L7,20 L17,20 L17,7 Z" id="path-1"></path></defs><g id="Symbols" stroke="none" stroke-width="1" fill="none" fill-rule="evenodd"><g id="Card/Events-In-Profile" transform="translate(-604.000000, -28.000000)"><g id="Icon-/-Line-/-Delete" transform="translate(601.000000, 26.000000)"><mask id="mask-2" fill="white"><use xlink:href="#path-1"></use></mask><use id="Mask" fill-opacity="0" fill="#051033" fill-rule="nonzero" xlink:href="#path-1"></use><g id="Color-/-Black-/-Black-800" mask="url(#mask-2)" fill="#C6C6C6" fill-rule="evenodd"><polygon id="Black-/-Black-800" points="0 0 24 0 24 24 0 24"></polygon></g></g></g></g></svg>

</svg>