<svg width="54" height="47" xmlns="http://www.w3.org/2000/svg"><path d="M7 28a1 1 0 0 1 0-2h3a1 1 0 0 1 0 2H7zm7 0a1 1 0 0 1 0-2h5a1 1 0 0 1 0 2h-5zm-7 6a1 1 0 0 1 0-2h9a1 1 0 0 1 0 2H7zm19 4a1 1 0 0 1 0 2H7a1 1 0 0 1 0-2h19zm25.713-15.026a2.931 2.931 0 0 0 .097-2.275L45.577 3.933a2.967 2.967 0 0 0-1.564-1.67 3.01 3.01 0 0 0-2.297-.094l-2.94 1.07a3.897 3.897 0 0 1-.35 2.062 3.965 3.965 0 0 1-2.256 2.061 4.017 4.017 0 0 1-3.064-.12 3.976 3.976 0 0 1-1.618-1.344L4.095 15.885a2.972 2.972 0 0 0-1.687 1.547 2.931 2.931 0 0 0-.096 2.275c.034.092.036.184.043.275a4.993 4.993 0 0 1 2.656-.772H35.08a.998.998 0 0 1 1.002.992c0 1.096.9 1.985 2.005 1.985s2.004-.889 2.004-1.985a.998.998 0 0 1 1.002-.992h4.01c2.763 0 5.01 2.227 5.01 4.962v.308a2.973 2.973 0 0 0 1.601-1.506zm-3.605 19.063V24.172c0-1.641-1.349-2.977-3.006-2.977h-3.135a4.008 4.008 0 0 1-3.881 2.977 4.01 4.01 0 0 1-3.883-2.977H5.011c-1.657 0-3.006 1.336-3.006 2.977v17.865c0 1.643 1.349 2.978 3.006 2.978h29.192a4.01 4.01 0 0 1 3.883-2.978 4.01 4.01 0 0 1 3.881 2.978h3.135c1.657 0 3.006-1.335 3.006-2.978zm5.583-22.025a4.88 4.88 0 0 1-.159 3.793 4.955 4.955 0 0 1-2.813 2.579 1.01 1.01 0 0 1-.346.061.997.997 0 0 1-.26-.04v15.632c0 2.737-2.248 4.963-5.011 4.963h-4.01a.997.997 0 0 1-1.002-.993 1.997 1.997 0 0 0-2.004-1.985c-1.106 0-2.005.89-2.005 1.985A.997.997 0 0 1 35.08 47H5.011C2.248 47 0 44.774 0 42.037V24.172c0-1.207.455-2.301 1.183-3.163a.984.984 0 0 1-.752-.615 4.885 4.885 0 0 1 .157-3.793 4.954 4.954 0 0 1 2.815-2.579L31.618 3.735c.25-.091.526-.08.767.03s.428.311.52.558c.184.498.554.894 1.04 1.116a2.002 2.002 0 0 0 1.533.06 1.98 1.98 0 0 0 1.189-2.547.988.988 0 0 1 .595-1.276l3.761-1.37a5.027 5.027 0 0 1 3.831.156 4.947 4.947 0 0 1 2.604 2.786l6.233 16.764z" fill="#C9CED6" fill-rule="evenodd"/></svg>