<svg width="54" height="54" xmlns="http://www.w3.org/2000/svg"><path d="M44.128 51.994C43.492 51.001 43 49.265 43 48V25c0-.077.027-.145.043-.217-2.042-.454-3.737-1.623-4.794-3.368A7.316 7.316 0 0 1 37.328 19H16.671a7.292 7.292 0 0 1-.92 2.415c-1.059 1.745-2.753 2.914-4.795 3.368.016.072.044.14.044.217v23c0 1.265-.493 3.001-1.129 3.994.038.004.08.006.129.006h34c.048 0 .09-.002.128-.006zM2 16c0 3.859 3.14 7 7 7 2.226 0 4.016-.932 5.041-2.622.532-.877.98-2.296.645-3.648-.243-.975-.869-1.771-1.86-2.364-1.334-.798-3.09-.74-4.267.137-.489.364-1.255 1.183-.899 2.579.19.747.87 1.057 1.439 1.031.356-.017.8-.164.892-.766a1 1 0 1 1 1.977.304c-.219 1.423-1.307 2.389-2.772 2.46-1.394.054-3.028-.782-3.475-2.535-.462-1.816.152-3.564 1.642-4.676 1.81-1.349 4.478-1.454 6.489-.251 1.445.865 2.404 2.109 2.775 3.6.06.244.1.496.128.751h20.489a5.8 5.8 0 0 1 .129-.751c.371-1.491 1.33-2.735 2.775-3.6 2.01-1.203 4.678-1.099 6.489.251 1.49 1.112 2.104 2.86 1.641 4.676-.446 1.753-2.083 2.583-3.474 2.535-1.465-.071-2.553-1.037-2.772-2.46a1 1 0 1 1 1.976-.304c.093.602.537.749.892.766.575.027 1.25-.284 1.44-1.031.355-1.396-.411-2.215-.899-2.579-1.178-.877-2.933-.935-4.267-.137-.991.593-1.617 1.389-1.86 2.364-.335 1.352.113 2.771.645 3.648C40.983 22.069 42.774 23 45 23c3.86 0 7-3.141 7-7 0-3.86-3.14-7-7-7H9c-3.86 0-7 3.14-7 7zm52 0c0 4.963-4.038 9-9 9v23c0 .903.388 2.28.832 2.945.454.682.527 1.421.202 2.029C45.685 53.626 44.943 54 44 54H10c-.944 0-1.686-.374-2.035-1.026-.325-.608-.252-1.347.203-2.029C8.611 50.28 9 48.903 9 48V25c-4.963 0-9-4.037-9-9s4.037-9 9-9h36c4.962 0 9 4.037 9 9zM7.553 4.895A1.001 1.001 0 0 1 7 4V1a1 1 0 0 1 1-1h38a1 1 0 0 1 1 1v3c0 .379-.214.725-.552.895l-2 1a1 1 0 0 1-.895-1.789L45 3.382V2H9v1.382l1.448.724a1 1 0 0 1-.895 1.789l-2-1zM27 27a1 1 0 0 1 1 1v18a1 1 0 1 1-2 0V28a1 1 0 0 1 1-1zm8 0a1 1 0 0 1 1 1v18a1 1 0 1 1-2 0V28a1 1 0 0 1 1-1zm-16 0a1 1 0 0 1 1 1v18a1 1 0 1 1-2 0V28a1 1 0 0 1 1-1z" fill="#FFF" fill-rule="evenodd"/></svg>