<svg width="36" height="36" xmlns="http://www.w3.org/2000/svg"><path d="M18 0c9.926 0 18 8.077 18 18 0 4.955-2.016 9.452-5.27 12.711-.006.007-.006.017-.012.023-.036.036-.082.06-.118.095a18.374 18.374 0 0 1-2.546 2.091c-.105.072-.216.128-.32.197a18.039 18.039 0 0 1-2.753 1.472c-.112.05-.23.082-.344.128-.978.39-1.996.707-3.05.923-.062.013-.128.016-.19.03A18.17 18.17 0 0 1 18 36c-1.162 0-2.297-.118-3.397-.33-.062-.014-.128-.017-.19-.03a17.763 17.763 0 0 1-3.05-.923c-.115-.046-.232-.078-.344-.128-.965-.409-1.882-.91-2.752-1.472-.105-.069-.216-.125-.32-.197A18.374 18.374 0 0 1 5.4 30.83c-.04-.037-.082-.06-.118-.096-.006-.006-.006-.016-.013-.023A17.94 17.94 0 0 1 0 18C0 8.077 8.074 0 18 0zm11.809 26.571c1.72-2.403 2.762-5.327 2.762-8.507 0-8.07-6.539-14.635-14.574-14.635-8.036 0-14.575 6.566-14.568 14.635 0 3.18 1.04 6.104 2.762 8.507a13.711 13.711 0 0 1 6.433-5.727c-1.659-1.49-2.721-3.63-2.721-6.033 0-4.484 3.634-8.13 8.097-8.13 4.463 0 8.097 3.646 8.097 8.13 0 2.404-1.066 4.544-2.72 6.033a13.776 13.776 0 0 1 6.432 5.727z" fill="#C9CED6" fill-rule="evenodd"/></svg>