<svg width="53" height="54" xmlns="http://www.w3.org/2000/svg"><path d="M5.011 17.849A11.942 11.942 0 0 1 2.764 17l-.422-.211C1.029 16.132 0 14.468 0 13V3a1 1 0 1 1 2 0v10c0 .723.589 1.677 1.236 2l.422.211c.448.225.928.413 1.342.55V3a1 1 0 1 1 2 0v12.76c.414-.136.894-.324 1.342-.549L8.764 15C9.411 14.677 10 13.723 10 13V3a1 1 0 1 1 2 0v10c0 1.468-1.029 3.132-2.342 3.789L9.236 17c-.66.33-1.511.662-2.247.849.007.05.011.1.011.151v9c0 .682.478 3.26.985 5.99C8.883 37.826 10 43.844 10 47c0 4.507-2.365 7-4 7-1.635 0-4-2.493-4-7 0-2.736.835-7.045 1.644-11.212C4.341 32.19 5 28.793 5 27v-9c0-.051.004-.102.011-.151zM27.5 16c-8.028 0-14.559 6.729-14.559 15S19.472 46 27.5 46c8.028 0 14.559-6.729 14.559-15S35.528 16 27.5 16zm0 32C18.402 48 11 40.374 11 31c0-9.374 7.402-17 16.5-17C36.598 14 44 21.626 44 31c0 9.374-7.402 17-16.5 17zm-.05-5c-3.085 0-5.986-1.227-8.168-3.455a.996.996 0 0 1 0-1.39.95.95 0 0 1 1.361 0c1.819 1.857 4.236 2.88 6.806 2.88 5.308 0 9.626-4.41 9.626-9.83a9.909 9.909 0 0 0-3.376-7.475.997.997 0 0 1-.107-1.386.95.95 0 0 1 1.358-.108c2.573 2.246 4.05 5.515 4.05 8.97C39 37.708 33.819 43 27.45 43zM17 32a1 1 0 0 1-1-1c0-6.617 5.383-12 12-12a1 1 0 1 1 0 2c-5.514 0-10 4.486-10 10a1 1 0 0 1-1 1zM6.082 33.696c-.151.803-.312 1.633-.475 2.473C4.817 40.243 4 44.457 4 47c0 3.438 1.611 4.93 2.023 5.001C6.389 51.93 8 50.438 8 47c0-2.897-1.089-8.834-1.918-13.304zM51 2.762c-1.537 1.41-4 5.23-4 15.238 0 7.805 1.935 11.2 2.547 12.076.442-.05.926-.076 1.453-.076V2.762zM51 32c-2.139 0-2.773.49-2.917.64-.096.1-.101.17-.1.187.059.13.017.032.017.173v6c0 2.221-.3 4.162-.565 5.876C47.211 46.321 47 47.685 47 49c0 2.48 1.631 3 3 3 .944 0 1-1.983 1-2.003V32zm-1 22c-2.417 0-5-1.313-5-5 0-1.468.223-2.907.458-4.429.267-1.723.542-3.504.542-5.57v-5.92c-.042-.312-.045-.97.47-1.63a3.007 3.007 0 0 1 1.054-.835C46.554 28.942 45 25.144 45 18 45 1.625 51.519.08 51.796.022A.998.998 0 0 1 53 1v49c0 1.384-.627 4-3 4z" fill="#FFF" fill-rule="evenodd"/></svg>