<svg xmlns="http://www.w3.org/2000/svg" width="25" height="24" viewBox="0 0 25 24"><path d="M24.863 9.074a.548.548 0 0 0-.441-.367L16.586 7.66 12.93.277c-.18-.37-.785-.37-.97 0L8.31 7.66.469 8.707a.553.553 0 0 0-.442.367.54.54 0 0 0 .133.559l5.746 5.797-1.566 7.894a.55.55 0 0 0 .203.54.531.531 0 0 0 .57.054l7.332-3.695 7.336 3.695a.528.528 0 0 0 .566-.055.552.552 0 0 0 .204-.539l-1.567-7.894 5.75-5.797a.546.546 0 0 0 .13-.559zm-6.847 5.79a.556.556 0 0 0-.149.491l1.41 7.09-6.59-3.32a.527.527 0 0 0-.484 0l-6.586 3.32 1.406-7.09a.545.545 0 0 0-.148-.492L1.699 9.645l7.035-.942a.54.54 0 0 0 .414-.297l3.297-6.664 3.297 6.664c.082.16.238.274.414.297l7.04.942zm0 0" fill="red" /></svg>