<svg width="17" height="24" xmlns="http://www.w3.org/2000/svg"><path d="M13.714 15.431a.4.4 0 0 0-.546.149c-1.804 3.162-3.964 6.225-4.768 7.34C6.916 20.86.8 12.142.8 8.4.8 4.21 4.21.8 8.4.8 12.59.8 16 4.21 16 8.4c0 .978-.434 2.404-1.292 4.238a.4.4 0 0 0 .725.34C16.34 11.035 16.8 9.496 16.8 8.4c0-4.632-3.768-8.4-8.4-8.4C3.768 0 0 3.768 0 8.4c0 4.5 7.75 14.994 8.08 15.438a.398.398 0 0 0 .642 0c.028-.038 2.864-3.87 5.142-7.861a.401.401 0 0 0-.15-.546zm-1.936-4.217A4.38 4.38 0 0 0 12.8 8.4c0-2.426-1.974-4.4-4.4-4.4A4.405 4.405 0 0 0 4 8.4c0 2.426 1.974 4.4 4.4 4.4a4.38 4.38 0 0 0 2.813-1.02l4.104 4.103a.402.402 0 0 0 .565 0 .4.4 0 0 0 0-.565l-4.104-4.104zM8.4 12a3.604 3.604 0 0 1-3.6-3.6c0-1.985 1.615-3.6 3.6-3.6S12 6.415 12 8.4 10.385 12 8.4 12z" fill="#000" fill-rule="nonzero"/></svg>