<?xml version="1.0" encoding="UTF-8"?>
<svg width="220px" height="218px" viewBox="0 0 220 218" version="1.1" xmlns="http://www.w3.org/2000/svg" xmlns:xlink="http://www.w3.org/1999/xlink">
    <!-- Generator: Sketch 62 (91390) - https://sketch.com -->
    <title>ic-favorites-empty@3x</title>
    <desc>Created with Sketch.</desc>
    <g id="01_Pages" stroke="none" stroke-width="1" fill="none" fill-rule="evenodd">
        <g id="D_08A_Favorites---Empty" transform="translate(-610.000000, -352.000000)" fill="#C9CED6">
            <path d="M672.189156,352 C688.818997,352 704.426172,358.555977 715.951896,369.987617 L715.951896,369.987617 L715.951896,381.584534 C709.01435,392.299975 694.28243,408.414455 694.125805,408.588914 C693.287403,409.507118 692.854382,410.719148 692.928088,411.967905 C693.001794,413.198298 693.582226,414.355235 694.531186,415.172437 L694.531186,415.172437 L723,439.495662 L698.879821,463.534243 C697.285936,465.122736 697.083245,467.620251 698.391521,469.447477 L698.391521,469.447477 L719.701671,499.188105 L702.740155,528.772639 C702.058377,529.957122 701.947819,531.380339 702.426906,532.665824 L702.426906,532.665824 L715.951896,568.613512 L715.951896,570 C701.524011,558.531632 610,483.009351 610,413.978772 C610,379.803218 637.897595,352 672.189156,352 Z M767.821861,352 C802.107348,352 830,379.802047 830,413.976161 C830,483.003833 738.492203,558.522933 724.057663,570 L724.057663,570 L724.057663,567.77804 C724.057663,567.227141 723.956336,566.676241 723.762893,566.162069 L723.762893,566.162069 L710.710089,531.455418 L728.055487,501.192688 C728.94901,499.631807 728.856894,497.70366 727.806774,496.243777 L727.806774,496.243777 L707.043882,467.27566 L731.924349,442.476014 C732.836295,441.56703 733.315297,440.327507 733.269239,439.051257 C733.223181,437.775007 732.642852,436.572211 731.666425,435.745862 L731.666425,435.745862 L703,411.24921 C708.130848,405.455587 718.162254,393.767342 723.385218,385.320221 C723.827374,384.604052 724.066875,383.768521 724.066875,382.914627 L724.066875,382.914627 L724.066875,369.986859 C735.590556,358.555701 751.194966,352 767.821861,352 Z" id="ic-favorites-empty"></path>
        </g>
    </g>
</svg>